<svg xmlns="http://www.w3.org/2000/svg">
<defs>
<font id="DBHelvethaicaX-Blk" horiz-adv-x="0" >
  <font-face 
    font-family="DB Helvethaica X Blk"
    font-weight="900"
    font-stretch="normal"
    units-per-em="4096"
    panose-1="2 0 5 6 9 0 0 2 0 4"
    ascent="3276"
    descent="-820"
    x-height="1454"
    cap-height="1999"
    bbox="-2220 -1466 3772 3371"
    underline-thickness="82"
    underline-position="-463"
    unicode-range="U+0020-U+F882"
  />
<missing-glyph horiz-adv-x="1151" 
d="M1176 1114v-41h16c13.333 0 20 9.66699 20 29c-0.666992 2 -2 4 -4 6c-4 4 -9.33301 6 -16 6h-16zM1184 1069l-8 0.000976562v-37h-13v94h29c10 0 18 -2 24 -6s9 -10 9 -18c0 -16.667 -2.83301 -26.334 -8.5 -29.001s-12.5 -4 -20.5 -4l29 -37h-13zM1192 1020
c11.333 0 20.833 1.83301 28.5 5.5s14 8.16699 19 13.5s8.5 11 10.5 17s3 11.667 3 17c0 22.667 -5.5 39.334 -16.5 50.001s-25.833 16 -44.5 16s-34.334 -5.33301 -47.001 -16s-19 -27.334 -19 -50.001c0 -14.667 4.83301 -27.167 14.5 -37.5s26.834 -15.5 51.501 -15.5z
M1192 1147c22.667 0 40 -6.66699 52 -20s18 -31.333 18 -54c0 -14.667 -6 -28.5 -18 -41.5s-29.333 -19.5 -52 -19.5c-24.667 0 -43.167 6.5 -55.5 19.5s-18.5 26.833 -18.5 41.5c0 22.667 6.16699 40.667 18.5 54s30.833 20 55.5 20zM561 881.001
c18 -2 39.165 -4.5 63.498 -7.5s49.833 -6.5 76.5 -10.5s53.834 -8.5 81.501 -13.5s53.834 -10.5 78.501 -16.5s46.5 -12.5 65.5 -19.5s33.833 -14.5 44.5 -22.5c-19.333 36 -44.333 68.167 -75 96.5s-64.5 52.333 -101.5 72s-75.833 34.667 -116.5 45s-81 15.5 -121 15.5
c-32 0 -63.5 -3 -94.5 -9s-60.667 -15.167 -89 -27.5s-54.5 -27.833 -78.5 -46.5s-44.667 -40.334 -62 -65.001c33.333 2.66699 67 4.83398 101 6.50098s67.333 2.5 100 2.5h127zM1049 1102l-0.000976562 -397.002c-93.333 26.667 -197.166 49.667 -311.499 69
s-234.5 29 -360.5 29c-88.667 0 -176 -4 -262 -12c8 40.667 24.167 79.834 48.5 117.501s55.5 70.834 93.5 99.501s82 51.5 132 68.5s104.667 25.5 164 25.5c57.333 0 109 -6.5 155 -19.5s86.5 -29.167 121.5 -48.5s64.333 -40 88 -62s41.5 -41.667 53.5 -59v189h78z

<glyph glyph-name="plusminus" unicode="&#x2b;&#x2d;" horiz-adv-x="1667" 
d="M1556 1307v-349h-540v-552h-365v552h-545v349h545v557h365v-557h540zM1556 332v-332h-1450v332h1450z" />
    <glyph glyph-name="ellipsis" unicode="&#x2e;&#x2e;&#x2e;" horiz-adv-x="2777" 
d="M709 467v-467h-467v467h467zM1618 467v-467h-467v467h467zM2531 467v-467h-467v467h467z" />
    <glyph glyph-name="lessequal" unicode="&#x3c;&#x3d;" horiz-adv-x="1794" 
d="M115 360h1548v-360h-1548v360zM672 1229l991 -447v-381l-1548 693v274l1548 696v-385z" />
    <glyph glyph-name="greaterequal" unicode="&#x3e;&#x3d;" horiz-adv-x="1794" 
d="M1679 0h-1548v360h1548v-360zM131 1679v385l1548 -696v-274l-1548 -693v381l991 447z" />
    <glyph glyph-name="fongmanfunnuthai" unicode="&#xe4f;&#x22;" horiz-adv-x="2028" 
d="M1090 2437h290l-28 -500h-230zM668 2437h286l-32 -500h-226zM131 836c0 81.333 10.5 159.5 31.5 234.5s50.833 145 89.5 210s85 124.333 139 178s114 99.5 180 137.5s136.833 67.5 212.5 88.5s154.5 31.5 236.5 31.5c80.667 0 158.167 -10.5 232.5 -31.5
s144 -50.5 209 -88.5s124.167 -83.833 177.5 -137.5s99 -113 137 -178s67.5 -135 88.5 -210s31.5 -153.167 31.5 -234.5s-10.5 -159.5 -31.5 -234.5s-50.5 -145.167 -88.5 -210.5s-83.667 -124.833 -137 -178.5s-112.5 -99.5 -177.5 -137.5s-134.667 -67.5 -209 -88.5
s-151.833 -31.5 -232.5 -31.5c-82 0 -160.833 10.5 -236.5 31.5s-146.5 50.5 -212.5 88.5s-126 83.833 -180 137.5s-100.333 113.167 -139 178.5s-68.5 135.5 -89.5 210.5s-31.5 153.167 -31.5 234.5zM549 844c0 62.667 12.5 122 37.5 178s58.833 105.167 101.5 147.5
s92.5 75.833 149.5 100.5s117.833 37 182.5 37c62.667 0 121.834 -12.333 177.501 -37s104.334 -58.167 146.001 -100.5s74.667 -91.5 99 -147.5s36.5 -115.333 36.5 -178c0 -64.667 -12.167 -125.334 -36.5 -182.001s-57.333 -106.167 -99 -148.5
s-90.334 -75.666 -146.001 -99.999s-114.834 -36.5 -177.501 -36.5c-64.667 0 -125.5 12.167 -182.5 36.5s-106.833 57.666 -149.5 99.999s-76.5 91.833 -101.5 148.5s-37.5 117.334 -37.5 182.001zM410 844c0 -55.333 7.16699 -108.833 21.5 -160.5
s34.666 -100.167 60.999 -145.5s58 -86.666 95 -123.999s78.167 -69.5 123.5 -96.5s94 -47.833 146 -62.5s106.333 -22 163 -22c54.667 0 107.5 7.33301 158.5 22s98.833 35.5 143.5 62.5s85.334 59.167 122.001 96.5s68.167 78.666 94.5 123.999s46.833 93.833 61.5 145.5
s22 105.167 22 160.5c0 82.667 -16 160.667 -48 234s-75.333 137.166 -130 191.499s-118.5 97.333 -191.5 129s-150.5 47.5 -232.5 47.5c-85.333 0 -165 -15.833 -239 -47.5s-138.5 -74.667 -193.5 -129s-98.333 -118.166 -130 -191.499s-47.5 -151.333 -47.5 -234zM799 844
c0 -30.667 5.5 -59.5 16.5 -86.5s26.333 -50.5 46 -70.5s43 -35.667 70 -47s56.5 -17 88.5 -17c28.667 0 55.667 5.66699 81 17s47.5 27 66.5 47s34 43.5 45 70.5s16.5 55.833 16.5 86.5c0 28.667 -5.5 55.834 -16.5 81.501s-26 48.167 -45 67.5s-41.167 34.833 -66.5 46.5
s-52.333 17.5 -81 17.5c-32 0 -61.5 -5.83301 -88.5 -17.5s-50.333 -27.167 -70 -46.5s-35 -41.833 -46 -67.5s-16.5 -52.834 -16.5 -81.501z" />
    <glyph glyph-name="dochadaphinthuthai" unicode="&#xe0e;&#xe3a;" horiz-adv-x="1868" 
d="M1188 -1008c0 40.667 8.16699 79.5 24.5 116.5s38.166 69.167 65.499 96.5s59.333 49.166 96 65.499s75.667 24.5 117 24.5c40 0 78 -8.16699 114 -24.5s67.833 -38.166 95.5 -65.499s49.5 -59.5 65.5 -96.5s24 -75.833 24 -116.5c0 -40 -8 -78 -24 -114
s-37.833 -67.667 -65.5 -95s-59.5 -49.166 -95.5 -65.499s-74 -24.5 -114 -24.5c-41.333 0 -80.333 8.16699 -117 24.5s-68.667 38.166 -96 65.499s-49.166 59 -65.499 95s-24.5 74 -24.5 114zM49 0l0.0078125 365.004h156v540c0 18.667 -2.16699 37.834 -6.5 57.501
s-11.833 39.167 -22.5 58.5s-25.334 38.333 -44.001 57s-42.334 36 -71.001 52c11.333 47.333 28.666 94.666 51.999 141.999s52.5 92.666 87.5 135.999s76 83.666 123 120.999s100.333 69.833 160 97.5s125.667 49.5 198 65.5s151.166 24 236.499 24
c100.667 0 191.334 -8.66699 272.001 -26s152 -41.5 214 -72.5s115 -67.833 159 -110.5s80 -89.667 108 -141s48.667 -106 62 -164s20 -117.333 20 -178v-1610h-426c-14 22.667 -31.167 45.167 -51.5 67.5s-45 42.5 -74 60.5s-63 32.667 -102 44s-84.5 17 -136.5 17
c-46 0 -90.333 -4.83301 -133 -14.5s-84.667 -24.5 -126 -44.5s-82.5 -45.833 -123.5 -77.5s-82.833 -69.5 -125.5 -113.5v373c29.333 28.667 62.666 55.167 99.999 79.5s77.666 45.5 120.999 63.5s89.166 32 137.499 42s98.166 15 149.499 15
c59.333 0 112.666 -5.16699 159.999 -15.5s89.333 -22.833 126 -37.5v1118c0 38.667 -4.16699 78 -12.5 118s-24.5 76.167 -48.5 108.5s-57.667 58.666 -101 78.999s-99.666 30.5 -168.999 30.5c-54.667 0.666992 -100.667 -4.83301 -138 -16.5s-68.333 -26.5 -93 -44.5
s-43.834 -37.667 -57.501 -59s-24.167 -41.333 -31.5 -60c17.333 -15.333 32.5 -31.5 45.5 -48.5s23.667 -35.5 32 -55.5s14.5 -42.333 18.5 -67s6 -52.334 6 -83.001v-893h-651z" />
    <glyph glyph-name="topatakphintuthai" unicode="&#xe0f;&#xe3a;" horiz-adv-x="1868" 
d="M1188 -1008c0 40.667 8.16699 79.5 24.5 116.5s38.166 69.167 65.499 96.5s59.333 49.166 96 65.499s75.667 24.5 117 24.5c40 0 78 -8.16699 114 -24.5s67.833 -38.166 95.5 -65.499s49.5 -59.5 65.5 -96.5s24 -75.833 24 -116.5c0 -40 -8 -78 -24 -114
s-37.833 -67.667 -65.5 -95s-59.5 -49.166 -95.5 -65.499s-74 -24.5 -114 -24.5c-41.333 0 -80.333 8.16699 -117 24.5s-68.667 38.166 -96 65.499s-49.166 59 -65.499 95s-24.5 74 -24.5 114zM1753 -598l-450 0.00292969c-3.33301 21.333 -8.66602 43.166 -15.999 65.499
s-16.666 42.5 -27.999 60.5s-24.666 32.833 -39.999 44.5s-32.666 17.5 -51.999 17.5c-18 0 -34 -5.83301 -48 -17.5s-25.5 -26.5 -34.5 -44.5s-15.833 -38.167 -20.5 -60.5s-7 -44.166 -7 -65.499h-316c0 20.667 -3 42.167 -9 64.5s-14.5 43 -25.5 62
s-24.333 34.667 -40 47s-33.167 18.5 -52.5 18.5c-21.333 0 -40 -6.16699 -56 -18.5s-29.333 -28 -40 -47s-18.5 -39.667 -23.5 -62s-7.5 -43.833 -7.5 -64.5h-372c0 88 12.167 163.667 36.5 227s57.166 115.5 98.499 156.5s89.5 71.333 144.5 91s113.167 29.5 174.5 29.5
c32 0 62.167 -3.66699 90.5 -11s55 -17.166 80 -29.499s48 -27 69 -44s39.5 -35.167 55.5 -54.5c14.667 18 31.5 35 50.5 51s39.667 30 62 42s45.833 21.333 70.5 28s49.667 10 75 10c24.667 0 48 -2.83301 70 -8.5s41 -12.5 57 -20.5v1122c0 38.667 -4.16699 78 -12.5 118
s-24.5 76.167 -48.5 108.5s-57.667 58.666 -101 78.999s-99.666 30.5 -168.999 30.5c-54.667 0.666992 -100.667 -4.83301 -138 -16.5s-68.333 -26.5 -93 -44.5s-43.834 -37.667 -57.501 -59s-24.167 -41.333 -31.5 -60c17.333 -15.333 32.5 -31.5 45.5 -48.5
s23.667 -35.5 32 -55.5s14.5 -42.333 18.5 -67s6 -52.334 6 -83.001v-893h-651v365h156v540c0 18.667 -2.16699 37.834 -6.5 57.501s-11.833 39.167 -22.5 58.5s-25.334 38.333 -44.001 57s-42.334 36 -71.001 52c11.333 47.333 28.666 94.666 51.999 141.999
s52.5 92.666 87.5 135.999s76 83.666 123 120.999s100.333 69.833 160 97.5s125.667 49.5 198 65.5s151.166 24 236.499 24c100.667 0 191.334 -8.66699 272.001 -26s152 -41.5 214 -72.5s115 -67.833 159 -110.5s80 -89.667 108 -141s48.667 -106 62 -164
s20 -117.333 20 -178v-1622z" />
    <glyph glyph-name="dochadasarauthai" unicode="&#xe0e;&#xe38;" horiz-adv-x="1868" 
d="M1290 -1446v381h-188v340h651v-721h-463zM49 0l0.0078125 365.004h156v540c0 18.667 -2.16699 37.834 -6.5 57.501s-11.833 39.167 -22.5 58.5s-25.334 38.333 -44.001 57s-42.334 36 -71.001 52c11.333 47.333 28.666 94.666 51.999 141.999s52.5 92.666 87.5 135.999
s76 83.666 123 120.999s100.333 69.833 160 97.5s125.667 49.5 198 65.5s151.166 24 236.499 24c100.667 0 191.334 -8.66699 272.001 -26s152 -41.5 214 -72.5s115 -67.833 159 -110.5s80 -89.667 108 -141s48.667 -106 62 -164s20 -117.333 20 -178v-1610h-426
c-14 22.667 -31.167 45.167 -51.5 67.5s-45 42.5 -74 60.5s-63 32.667 -102 44s-84.5 17 -136.5 17c-46 0 -90.333 -4.83301 -133 -14.5s-84.667 -24.5 -126 -44.5s-82.5 -45.833 -123.5 -77.5s-82.833 -69.5 -125.5 -113.5v373c29.333 28.667 62.666 55.167 99.999 79.5
s77.666 45.5 120.999 63.5s89.166 32 137.499 42s98.166 15 149.499 15c59.333 0 112.666 -5.16699 159.999 -15.5s89.333 -22.833 126 -37.5v1118c0 38.667 -4.16699 78 -12.5 118s-24.5 76.167 -48.5 108.5s-57.667 58.666 -101 78.999s-99.666 30.5 -168.999 30.5
c-54.667 0.666992 -100.667 -4.83301 -138 -16.5s-68.333 -26.5 -93 -44.5s-43.834 -37.667 -57.501 -59s-24.167 -41.333 -31.5 -60c17.333 -15.333 32.5 -31.5 45.5 -48.5s23.667 -35.5 32 -55.5s14.5 -42.333 18.5 -67s6 -52.334 6 -83.001v-893h-651z" />
    <glyph glyph-name="topataksarauthai" unicode="&#xe0f;&#xe38;" horiz-adv-x="1868" 
d="M1290 -1446v381h-188v340h651v-721h-463zM1753 -598l-450 0.00292969c-3.33301 21.333 -8.66602 43.166 -15.999 65.499s-16.666 42.5 -27.999 60.5s-24.666 32.833 -39.999 44.5s-32.666 17.5 -51.999 17.5c-18 0 -34 -5.83301 -48 -17.5s-25.5 -26.5 -34.5 -44.5
s-15.833 -38.167 -20.5 -60.5s-7 -44.166 -7 -65.499h-316c0 20.667 -3 42.167 -9 64.5s-14.5 43 -25.5 62s-24.333 34.667 -40 47s-33.167 18.5 -52.5 18.5c-21.333 0 -40 -6.16699 -56 -18.5s-29.333 -28 -40 -47s-18.5 -39.667 -23.5 -62s-7.5 -43.833 -7.5 -64.5h-372
c0 88 12.167 163.667 36.5 227s57.166 115.5 98.499 156.5s89.5 71.333 144.5 91s113.167 29.5 174.5 29.5c32 0 62.167 -3.66699 90.5 -11s55 -17.166 80 -29.499s48 -27 69 -44s39.5 -35.167 55.5 -54.5c14.667 18 31.5 35 50.5 51s39.667 30 62 42s45.833 21.333 70.5 28
s49.667 10 75 10c24.667 0 48 -2.83301 70 -8.5s41 -12.5 57 -20.5v1122c0 38.667 -4.16699 78 -12.5 118s-24.5 76.167 -48.5 108.5s-57.667 58.666 -101 78.999s-99.666 30.5 -168.999 30.5c-54.667 0.666992 -100.667 -4.83301 -138 -16.5s-68.333 -26.5 -93 -44.5
s-43.834 -37.667 -57.501 -59s-24.167 -41.333 -31.5 -60c17.333 -15.333 32.5 -31.5 45.5 -48.5s23.667 -35.5 32 -55.5s14.5 -42.333 18.5 -67s6 -52.334 6 -83.001v-893h-651v365h156v540c0 18.667 -2.16699 37.834 -6.5 57.501s-11.833 39.167 -22.5 58.5
s-25.334 38.333 -44.001 57s-42.334 36 -71.001 52c11.333 47.333 28.666 94.666 51.999 141.999s52.5 92.666 87.5 135.999s76 83.666 123 120.999s100.333 69.833 160 97.5s125.667 49.5 198 65.5s151.166 24 236.499 24c100.667 0 191.334 -8.66699 272.001 -26
s152 -41.5 214 -72.5s115 -67.833 159 -110.5s80 -89.667 108 -141s48.667 -106 62 -164s20 -117.333 20 -178v-1622z" />
    <glyph glyph-name="dochadasarauuthai" unicode="&#xe0e;&#xe39;" horiz-adv-x="1868" 
d="M545 -725h572.997v-262c0 -43.333 8.5 -76 25.5 -98s44.167 -33 81.5 -33c70.667 0 106 43.667 106 131v262h422v-262c0 -62.667 -10.667 -122.834 -32 -180.501s-53.666 -108.667 -96.999 -153s-98.166 -79.666 -164.499 -105.999s-144.5 -39.5 -234.5 -39.5
c-81.333 0 -153.5 10.833 -216.5 32.5s-116.833 51.167 -161.5 88.5s-79.667 81.5 -105 132.5s-40.666 105.5 -45.999 163.5h-151v324zM48.9971 0l0.0078125 365.004h156v540c0 18.667 -2.16699 37.834 -6.5 57.501s-11.833 39.167 -22.5 58.5s-25.334 38.333 -44.001 57
s-42.334 36 -71.001 52c11.333 47.333 28.666 94.666 51.999 141.999s52.5 92.666 87.5 135.999s76 83.666 123 120.999s100.333 69.833 160 97.5s125.667 49.5 198 65.5s151.166 24 236.499 24c100.667 0 191.334 -8.66699 272.001 -26s152 -41.5 214 -72.5
s115 -67.833 159 -110.5s80 -89.667 108 -141s48.667 -106 62 -164s20 -117.333 20 -178v-1610h-426c-14 22.667 -31.167 45.167 -51.5 67.5s-45 42.5 -74 60.5s-63 32.667 -102 44s-84.5 17 -136.5 17c-46 0 -90.333 -4.83301 -133 -14.5s-84.667 -24.5 -126 -44.5
s-82.5 -45.833 -123.5 -77.5s-82.833 -69.5 -125.5 -113.5v373c29.333 28.667 62.666 55.167 99.999 79.5s77.666 45.5 120.999 63.5s89.166 32 137.499 42s98.166 15 149.499 15c59.333 0 112.666 -5.16699 159.999 -15.5s89.333 -22.833 126 -37.5v1118
c0 38.667 -4.16699 78 -12.5 118s-24.5 76.167 -48.5 108.5s-57.667 58.666 -101 78.999s-99.666 30.5 -168.999 30.5c-54.667 0.666992 -100.667 -4.83301 -138 -16.5s-68.333 -26.5 -93 -44.5s-43.834 -37.667 -57.501 -59s-24.167 -41.333 -31.5 -60
c17.333 -15.333 32.5 -31.5 45.5 -48.5s23.667 -35.5 32 -55.5s14.5 -42.333 18.5 -67s6 -52.334 6 -83.001v-893h-651z" />
    <glyph glyph-name="topataksarauuthai" unicode="&#xe0f;&#xe39;" horiz-adv-x="1868" 
d="M545 -725h572.997v-262c0 -43.333 8.5 -76 25.5 -98s44.167 -33 81.5 -33c70.667 0 106 43.667 106 131v262h422v-262c0 -62.667 -10.667 -122.834 -32 -180.501s-53.666 -108.667 -96.999 -153s-98.166 -79.666 -164.499 -105.999s-144.5 -39.5 -234.5 -39.5
c-81.333 0 -153.5 10.833 -216.5 32.5s-116.833 51.167 -161.5 88.5s-79.667 81.5 -105 132.5s-40.666 105.5 -45.999 163.5h-151v324zM1753 -598l-450 0.00292969c-3.33301 21.333 -8.66602 43.166 -15.999 65.499s-16.666 42.5 -27.999 60.5s-24.666 32.833 -39.999 44.5
s-32.666 17.5 -51.999 17.5c-18 0 -34 -5.83301 -48 -17.5s-25.5 -26.5 -34.5 -44.5s-15.833 -38.167 -20.5 -60.5s-7 -44.166 -7 -65.499h-316c0 20.667 -3 42.167 -9 64.5s-14.5 43 -25.5 62s-24.333 34.667 -40 47s-33.167 18.5 -52.5 18.5
c-21.333 0 -40 -6.16699 -56 -18.5s-29.333 -28 -40 -47s-18.5 -39.667 -23.5 -62s-7.5 -43.833 -7.5 -64.5h-372c0 88 12.167 163.667 36.5 227s57.166 115.5 98.499 156.5s89.5 71.333 144.5 91s113.167 29.5 174.5 29.5c32 0 62.167 -3.66699 90.5 -11
s55 -17.166 80 -29.499s48 -27 69 -44s39.5 -35.167 55.5 -54.5c14.667 18 31.5 35 50.5 51s39.667 30 62 42s45.833 21.333 70.5 28s49.667 10 75 10c24.667 0 48 -2.83301 70 -8.5s41 -12.5 57 -20.5v1122c0 38.667 -4.16699 78 -12.5 118s-24.5 76.167 -48.5 108.5
s-57.667 58.666 -101 78.999s-99.666 30.5 -168.999 30.5c-54.667 0.666992 -100.667 -4.83301 -138 -16.5s-68.333 -26.5 -93 -44.5s-43.834 -37.667 -57.501 -59s-24.167 -41.333 -31.5 -60c17.333 -15.333 32.5 -31.5 45.5 -48.5s23.667 -35.5 32 -55.5
s14.5 -42.333 18.5 -67s6 -52.334 6 -83.001v-893h-651v365h156v540c0 18.667 -2.16699 37.834 -6.5 57.501s-11.833 39.167 -22.5 58.5s-25.334 38.333 -44.001 57s-42.334 36 -71.001 52c11.333 47.333 28.666 94.666 51.999 141.999s52.5 92.666 87.5 135.999
s76 83.666 123 120.999s100.333 69.833 160 97.5s125.667 49.5 198 65.5s151.166 24 236.499 24c100.667 0 191.334 -8.66699 272.001 -26s152 -41.5 214 -72.5s115 -67.833 159 -110.5s80 -89.667 108 -141s48.667 -106 62 -164s20 -117.333 20 -178v-1622z" />
    <glyph glyph-name=".notdef" horiz-adv-x="1151" 
d="M1176 1114v-41h16c13.333 0 20 9.66699 20 29c-0.666992 2 -2 4 -4 6c-4 4 -9.33301 6 -16 6h-16zM1184 1069l-8 0.000976562v-37h-13v94h29c10 0 18 -2 24 -6s9 -10 9 -18c0 -16.667 -2.83301 -26.334 -8.5 -29.001s-12.5 -4 -20.5 -4l29 -37h-13zM1192 1020
c11.333 0 20.833 1.83301 28.5 5.5s14 8.16699 19 13.5s8.5 11 10.5 17s3 11.667 3 17c0 22.667 -5.5 39.334 -16.5 50.001s-25.833 16 -44.5 16s-34.334 -5.33301 -47.001 -16s-19 -27.334 -19 -50.001c0 -14.667 4.83301 -27.167 14.5 -37.5s26.834 -15.5 51.501 -15.5z
M1192 1147c22.667 0 40 -6.66699 52 -20s18 -31.333 18 -54c0 -14.667 -6 -28.5 -18 -41.5s-29.333 -19.5 -52 -19.5c-24.667 0 -43.167 6.5 -55.5 19.5s-18.5 26.833 -18.5 41.5c0 22.667 6.16699 40.667 18.5 54s30.833 20 55.5 20zM561 881.001
c18 -2 39.165 -4.5 63.498 -7.5s49.833 -6.5 76.5 -10.5s53.834 -8.5 81.501 -13.5s53.834 -10.5 78.501 -16.5s46.5 -12.5 65.5 -19.5s33.833 -14.5 44.5 -22.5c-19.333 36 -44.333 68.167 -75 96.5s-64.5 52.333 -101.5 72s-75.833 34.667 -116.5 45s-81 15.5 -121 15.5
c-32 0 -63.5 -3 -94.5 -9s-60.667 -15.167 -89 -27.5s-54.5 -27.833 -78.5 -46.5s-44.667 -40.334 -62 -65.001c33.333 2.66699 67 4.83398 101 6.50098s67.333 2.5 100 2.5h127zM1049 1102l-0.000976562 -397.002c-93.333 26.667 -197.166 49.667 -311.499 69
s-234.5 29 -360.5 29c-88.667 0 -176 -4 -262 -12c8 40.667 24.167 79.834 48.5 117.501s55.5 70.834 93.5 99.501s82 51.5 132 68.5s104.667 25.5 164 25.5c57.333 0 109 -6.5 155 -19.5s86.5 -29.167 121.5 -48.5s64.333 -40 88 -62s41.5 -41.667 53.5 -59v189h78z
M425.997 351.999c0 16.667 -5 28.334 -15 35.001s-20 10 -30 10c-16.667 0 -29 -3.33301 -37 -10s-12 -18.334 -12 -35.001c0 -27.333 16.333 -41 49 -41c10 0 20 3.33301 30 10s15 17 15 31zM89.9971 388.999c0 42 8.5 79.499 25.5 112.499s39.333 60.833 67 83.5
s59.167 40 94.5 52s71.333 18 108 18c38 0 74.167 -5.16699 108.5 -15.5s64.333 -26.166 90 -47.499s46.167 -48.166 61.5 -80.499s23 -70.5 23 -114.5v-323h303v565h78v-635h-533v70h82v332c0 29.333 -5.5 54.833 -16.5 76.5s-26 39.5 -45 53.5s-41.167 24.5 -66.5 31.5
s-52.333 10.5 -81 10.5s-56.334 -4 -83.001 -12s-50.167 -19.833 -70.5 -35.5s-36.666 -34.667 -48.999 -57s-18.5 -47.833 -18.5 -76.5v-295l164 164c-4 0.666992 -9.5 3.16699 -16.5 7.5s-13.833 10 -20.5 17s-12.5 15.667 -17.5 26s-7.5 22.166 -7.5 35.499
c0 35.333 10.333 62.666 31 81.999s48.667 29 84 29c15.333 0 29.666 -2.83301 42.999 -8.5s25 -13.5 35 -23.5s18 -21.833 24 -35.5s9 -28.167 9 -43.5c0 -12 -1.83301 -23.167 -5.5 -33.5s-8 -19.166 -13 -26.499s-10.5 -13.333 -16.5 -18s-11 -7.33398 -15 -8.00098
c-1.33301 -4 -6.16602 -10.167 -14.499 -18.5l-31.5 -30.5l-42.5 -41c-15.667 -15.333 -31.167 -31.666 -46.5 -48.999l-64 -58.5l-67 -64.5h-90v385z" />
    <glyph glyph-name="space" unicode=" " horiz-adv-x="696" 
 />
    <glyph glyph-name="exclam" unicode="!" horiz-adv-x="1065" 
d="M762 406v-406h-463v406h463zM717 561h-369l-69 787v651h507v-651z" />
    <glyph glyph-name="quotedbl" unicode="&#x22;" horiz-adv-x="1266" 
d="M1077 2019v-770h-372v770h372zM565 2019v-770h-372v770h372z" />
    <glyph glyph-name="numbersign" unicode="#" horiz-adv-x="1708" 
d="M741 836h209l9.5 71.5c3 22.333 6.16699 44.666 9.5 66.999l10.5 69c3.66699 23.667 7.5 49.834 11.5 78.501h-209zM70 516v320h303l41 286h-271v316h312l77 516h361l-74 -516h213l74 516h364l-69 -516h237v-316h-274l-45 -286h237v-320h-282l-74 -516h-369l74 516h-205
l-77 -516h-365l70 516h-258z" />
    <glyph glyph-name="dollar" unicode="$" horiz-adv-x="1802" 
d="M508 676c0 -52 6.99902 -98.167 20.999 -138.5s33.5 -75.333 58.5 -105s54.333 -54.167 88 -73.5s70.5 -34 110.5 -44v541l-49 16c-47.333 13.333 -94 28.166 -140 44.499s-90 35.333 -132 57s-80.833 46.5 -116.5 74.5s-66.5 60.833 -92.5 98.5
s-46.5 80.834 -61.5 129.501s-22.5 104 -22.5 166s8 119.167 24 171.5s38 100 66 143s61.333 81 100 114s80.834 61.5 126.501 85.5s93.667 43.333 144 58s101.5 24.667 153.5 30v188h254v-196c80.667 -12 156.834 -33.833 228.501 -65.5s134.334 -74 188.001 -127
s96 -116.833 127 -191.5s46.5 -161 46.5 -259h-401c-2 40.667 -8 76.5 -18 107.5s-23.167 57.833 -39.5 80.5s-35.666 41.667 -57.999 57s-46.833 27.666 -73.5 36.999v-475l90 -24l90.5 -24c37 -10 76.5 -24 118.5 -42s84.167 -40.833 126.5 -68.5s80.666 -62 114.999 -103
s62.166 -89.667 83.499 -146s32 -122.5 32 -198.5c0 -84 -14.167 -162.333 -42.5 -235s-70.166 -137 -125.499 -193s-123.833 -102 -205.5 -138s-175.834 -59 -282.501 -69v-233h-254v233c-61.333 6.66699 -120.833 18.834 -178.5 36.501s-111.834 40.667 -162.501 69
s-96.834 62.333 -138.501 102s-77.5 85 -107.5 136s-53.167 107.5 -69.5 169.5s-24.166 130 -23.499 204h402zM1294 553c0 32.667 -6.5 61.332 -19.5 85.999s-30.833 46.334 -53.5 65.001s-49.5 35 -80.5 49s-64.5 26.667 -100.5 38v-480c30.667 6 61.167 14.667 91.5 26
s57.5 26.5 81.5 45.5s43.5 42.333 58.5 70s22.5 61.167 22.5 100.5zM572.999 1475c0 -26 3.00195 -48.333 9.00195 -67s17 -35.5 33 -50.5s37.667 -29.167 65 -42.5s62.666 -27 105.999 -41v418c-27.333 -5.33301 -53.833 -13.333 -79.5 -24s-48.334 -24.667 -68.001 -42
s-35.5 -38.333 -47.5 -63s-18 -54 -18 -88z" />
    <glyph glyph-name="percent" unicode="%" horiz-adv-x="2777" 
d="M520 1421c0 -32 1.83203 -66.333 5.49902 -103s11.5 -70.667 23.5 -102s29 -57.5 51 -78.5s51.333 -31.5 88 -31.5c36 0 65 10.333 87 31s39 46.5 51 77.5s20 65 24 102s6 71.833 6 104.5c0 30.667 -1.66699 64.334 -5 101.001s-10.5 71 -21.5 103s-27.5 58.667 -49.5 80
s-51.333 32 -88 32c-36 0 -65.167 -10.667 -87.5 -32s-39.666 -48 -51.999 -80s-20.833 -66.333 -25.5 -103s-7 -70.334 -7 -101.001zM179.999 1417c0 76 9.00195 148.998 27.002 218.998s47.167 131.833 87.5 185.5s93.166 96.667 158.499 129s145 48.5 239 48.5
c95.333 0 175.666 -15.333 240.999 -46s118 -72.167 158 -124.5s68.833 -113.666 86.5 -183.999s26.5 -144.833 26.5 -223.5c0 -49.333 -4.5 -97.833 -13.5 -145.5s-22.667 -92.834 -41 -135.501s-41.5 -82 -69.5 -118s-61 -67.167 -99 -93.5s-81 -47 -129 -62
s-101.333 -22.5 -160 -22.5c-91.333 0 -169.333 14.667 -234 44s-117.5 69.833 -158.5 121.5s-71.167 112.334 -90.5 182.001s-29 144.834 -29 225.501zM1921 552.998c0 -30 1.83398 -63.001 5.50098 -99.001s11.167 -69.667 22.5 -101s27.5 -57.666 48.5 -78.999
s48.833 -32 83.5 -32c38 0 68.5 10 91.5 30s40.667 45.5 53 76.5s20.666 65 24.999 102s6.5 72.5 6.5 106.5c0 32 -1.83301 66.333 -5.5 103s-11.5 70.667 -23.5 102s-29 57.5 -51 78.5s-51.333 31.5 -88 31.5c-36 0 -65 -10.5 -87 -31.5s-39 -47.333 -51 -79
s-20 -66.167 -24 -103.5s-6 -72.333 -6 -105zM1573 548.997c0 76.667 9.16699 150.335 27.5 221.002s48 133 89 187s94.333 97.167 160 129.5s145.5 48.5 239.5 48.5c96 0 176.667 -15.333 242 -46s118 -72.334 158 -125.001s68.667 -114 86 -184s26 -144.333 26 -223
c0 -74.667 -10 -146.5 -30 -215.5s-50.833 -130 -92.5 -183s-94.834 -95.333 -159.5 -127c-64.667 -31.667 -141.334 -47.5 -230 -47.5c-90 0 -167.5 14.833 -232.5 44.5s-118.5 70.167 -160.5 121.5s-73 111.166 -93 179.499s-30 141.5 -30 219.5zM2201 2040l-1230 -2080
h-391l1234 2080h387z" />
    <glyph glyph-name="ampersand" unicode="&#x26;" horiz-adv-x="1810" 
d="M1282 197c-32.667 -37.333 -70.0039 -69.998 -112.004 -97.998s-86.667 -51.5 -134 -70.5s-96.5 -33.333 -147.5 -43s-101.5 -14.5 -151.5 -14.5c-99.333 0 -185.666 9.33301 -258.999 28s-136 43.5 -188 74.5s-94.333 66.167 -127 105.5s-58.334 79.666 -77.001 120.999
s-31.5 81.833 -38.5 121.5s-10.5 75.167 -10.5 106.5c0 72.667 13.333 138.334 40 197.001s61.667 111.834 105 159.501s92.333 90.5 147 128.5s110.334 73 167.001 105l-79 96.5c-26.667 31.667 -50.834 64.167 -72.501 97.5s-39.5 68.166 -53.5 104.499
s-21 76.166 -21 119.499c0 59.333 12.167 115.833 36.5 169.5s59.5 100.667 105.5 141s101.833 72.333 167.5 96s140.167 35.5 223.5 35.5c74.667 0 145.834 -8.5 213.501 -25.5s127.334 -43.167 179.001 -78.5s92.667 -80.666 123 -135.999s45.5 -121.333 45.5 -198
c0 -53.333 -9.83301 -104.333 -29.5 -153s-45.667 -94.334 -78 -137.001s-69.166 -82 -110.499 -118s-83.333 -68 -126 -96l213 -262c8 33.333 14.333 67.666 19 102.999s9.33398 74.666 14.001 117.999h340c-3.33301 -61.333 -8.5 -115.666 -15.5 -162.999
s-16 -90.833 -27 -130.5s-23.5 -76.667 -37.5 -111s-29.667 -68.833 -47 -103.5l422 -487h-443zM708.996 872.002c-35.333 -21.333 -67.167 -43.334 -95.5 -66.001s-52.5 -47.167 -72.5 -73.5s-35.333 -55.166 -46 -86.499s-16 -66.333 -16 -105
c0 -37.333 7.66699 -70.833 23 -100.5s35.5 -55 60.5 -76s53.5 -37.167 85.5 -48.5s64.333 -17 97 -17c36 0 69.667 2.5 101 7.5s60.666 13.167 87.999 24.5s52.833 26 76.5 44s45.834 40.333 66.501 67zM663.995 1528c0 -19.333 3.50195 -38.9951 10.502 -58.9951
s16.5 -40.333 28.5 -61s26 -41.5 42 -62.5l50 -63.5c22.667 15.333 45.167 31.666 67.5 48.999s42.5 36.166 60.5 56.499s32.5 42.166 43.5 65.499s16.5 48.333 16.5 75c0 19.333 -3.5 37.666 -10.5 54.999s-17.5 32.5 -31.5 45.5s-31.167 23.333 -51.5 31
s-43.833 11.5 -70.5 11.5c-19.333 0 -38.333 -2.83301 -57 -8.5s-35.334 -14.334 -50.001 -26.001s-26.334 -26.5 -35.001 -44.5s-13 -39.333 -13 -64z" />
    <glyph glyph-name="quotesingle" unicode="'" horiz-adv-x="770" 
d="M569 2019v-770h-372v770h372z" />
    <glyph glyph-name="parenleft" unicode="(" horiz-adv-x="922" 
d="M569 -627c-70.667 110 -135.5 220.335 -194.5 331.002s-109.833 223 -152.5 337s-76 230 -100 348s-36 239.667 -36 365c0 116 10.167 233 30.5 351s50.833 235.333 91.5 352s91.5 231.667 152.5 345s131.833 222.666 212.5 327.999h455
c-78.667 -127.333 -146 -249.833 -202 -367.5s-101.667 -232.834 -137 -345.501s-61.333 -223.667 -78 -333s-25 -219.333 -25 -330c0 -110 8 -219.5 24 -328.5s41.667 -220 77 -333s81 -229 137 -348s124 -242.833 204 -371.5h-459z" />
    <glyph glyph-name="parenright" unicode=")" horiz-adv-x="922" 
d="M-106 -627c80 128.667 148 252.498 204 371.498s101.667 235 137 348s61 224 77 333s24 218.5 24 328.5c0 110.667 -8.33301 220.667 -25 330s-42.667 220.333 -78 333s-81 227.834 -137 345.501s-123.333 240.167 -202 367.5h454
c80.667 -105.333 151.5 -214.666 212.5 -327.999s112 -228.333 153 -345s71.667 -234 92 -352s30.5 -235 30.5 -351c0 -125.333 -12 -247 -36 -365s-57.333 -234 -100 -348s-93.667 -226.333 -153 -337s-124.333 -221 -195 -331h-458z" />
    <glyph glyph-name="asterisk" unicode="*" horiz-adv-x="1188" 
d="M1008 1888l122 -291l-282 -102l164 -229l-254 -181l-164 230l-160 -234l-270 176l168 238l-275 98l107 295l266 -94v274h320v-278z" />
    <glyph glyph-name="plus" unicode="+" horiz-adv-x="1667" 
d="M1561 967v-349h-545v-552h-365v552h-545v349h545v557h365v-557h545z" />
    <glyph glyph-name="comma" unicode="," horiz-adv-x="852" 
d="M659 446l0.000976562 -397c0 -60.667 -8 -121.667 -24 -183s-42 -118.833 -78 -172.5s-83.5 -101.5 -142.5 -143.5s-131.5 -73.667 -217.5 -95v299c25.333 6 48.166 16.833 68.499 32.5s37.5 34.167 51.5 55.5s24.667 45 32 71s11 52.333 11 79h-167v454h466z" />
    <glyph glyph-name="hyphen" unicode="-" horiz-adv-x="1352" 
d="M1245 971v-357h-1139v357h1139z" />
    <glyph glyph-name="period" unicode="." horiz-adv-x="852" 
d="M659 467v-467h-466v467h466z" />
    <glyph glyph-name="slash" unicode="/" horiz-adv-x="1200" 
d="M1257 2048l-827 -2089h-487l819 2089h495z" />
    <glyph glyph-name="zero" unicode="0" horiz-adv-x="1626" 
d="M49 979c0 70.667 3.33301 144.834 10 222.501s19.5 153.834 38.5 228.501s45.833 145.667 80.5 213s80.167 126.5 136.5 177.5s125.166 91.5 206.499 121.5s178 45 290 45c112.667 0 209.834 -15 291.501 -45s150.834 -70.5 207.501 -121.5s102.5 -110.167 137.5 -177.5
s62 -138.333 81 -213s31.833 -150.834 38.5 -228.501s10 -151.834 10 -222.501c0 -74.667 -3.33301 -151.5 -10 -230.5s-19.5 -155.833 -38.5 -230.5s-46 -145.5 -81 -212.5s-80.833 -125.5 -137.5 -175.5s-125.834 -89.667 -207.501 -119s-178.834 -44 -291.501 -44
c-112 0 -208.667 14.667 -290 44s-150.166 69 -206.499 119s-101.833 108.5 -136.5 175.5s-61.5 137.833 -80.5 212.5s-31.833 151.5 -38.5 230.5s-10 155.833 -10 230.5zM545 979c0 -37.333 0.5 -78.333 1.5 -123s4 -89.667 9 -135s13 -89.166 24 -131.499
s26.333 -79.833 46 -112.5s44.5 -58.834 74.5 -78.501s67 -29.5 111 -29.5c44.667 0 82.167 9.83301 112.5 29.5s55.5 45.834 75.5 78.501s35.5 70.167 46.5 112.5s19.167 86.166 24.5 131.499s8.5 90.333 9.5 135s1.5 85.667 1.5 123c0 36.667 -0.5 77 -1.5 121
s-4.16699 88.333 -9.5 133s-13.5 88 -24.5 130s-26.5 79.167 -46.5 111.5s-45.333 58.166 -76 77.499s-68 29 -112 29c-43.333 0 -79.833 -9.66699 -109.5 -29s-54.334 -45.166 -74.001 -77.499s-35 -69.5 -46 -111.5s-19.167 -85.333 -24.5 -130
s-8.66602 -89 -9.99902 -133s-2 -84.333 -2 -121z" />
    <glyph glyph-name="one" unicode="1" horiz-adv-x="1626" 
d="M197 1602c72.667 2.66699 138.167 9.16992 196.5 19.5029s109.5 28.166 153.5 53.499s80.833 60.166 110.5 104.499s52.167 102.5 67.5 174.5h422v-1954h-488v1270c-38 -17.333 -73.5 -31.833 -106.5 -43.5s-67.167 -21.334 -102.5 -29.001s-73.333 -13.5 -114 -17.5
s-87 -7 -139 -9v431z" />
    <glyph glyph-name="two" unicode="2" horiz-adv-x="1626" 
d="M86 1171c-6.66699 78 -3.66602 152.166 9.00098 222.499s33.667 135.833 63 196.5s66.333 115.334 111 164.001s95.334 90.334 152.001 125.001s118.834 61.334 186.501 80.001s139.5 28 215.5 28c93.333 0 183.166 -13.333 269.499 -40s162.666 -66 228.999 -118
s119.333 -116 159 -192s59.5 -163 59.5 -261c0 -62.667 -7.5 -120.334 -22.5 -173.001s-35.333 -101.167 -61 -145.5s-55.334 -85 -89.001 -122s-69.334 -71.167 -107.001 -102.5s-76.167 -60.5 -115.5 -87.5l-113 -77.5l-194.5 -138.5
c-57.667 -42.333 -106.167 -85.166 -145.5 -128.499h832v-401h-1499c8 88.667 22.833 168.5 44.5 239.5s48.334 135.167 80.001 192.5s67 108.5 106 153.5s80.167 86.167 123.5 123.5s87.333 71.5 132 102.5l132 89.5c76 49.333 139.167 95.166 189.5 137.499
s90.5 82.666 120.5 120.999s51.333 75.5 64 111.5s19 72.333 19 109c0 68.667 -18.333 120 -55 154s-88 51 -154 51c-50 0 -91.333 -11.167 -124 -33.5s-58.667 -52.5 -78 -90.5s-32.833 -82 -40.5 -132s-11.5 -102.667 -11.5 -158h-487z" />
    <glyph glyph-name="three" unicode="3" horiz-adv-x="1626" 
d="M688 1176l70.0039 0.00488281c71.333 0 127.333 16 168 48s61 82.667 61 152c0 32 -5.5 59.5 -16.5 82.5s-26 42.167 -45 57.5s-41.167 26.666 -66.5 33.999s-52.333 11 -81 11c-38 0 -70.667 -7.16699 -98 -21.5s-49.833 -34.333 -67.5 -60s-30.667 -56.667 -39 -93
s-12.5 -76.5 -12.5 -120.5h-495c4 110.667 23.333 209.167 58 295.5s82.667 159.166 144 218.499s135 104.5 221 135.5s182.333 46.5 289 46.5c94 0 183.5 -11 268.5 -33s159.5 -56.167 223.5 -102.5s114.833 -105.333 152.5 -177s56.5 -157.167 56.5 -256.5
c0 -68.667 -14.333 -131.834 -43 -189.501s-67.667 -109.167 -117 -154.5c82.667 -43.333 143.667 -104.5 183 -183.5s59 -172.167 59 -279.5c0 -64.667 -11 -125.334 -33 -182.001s-51.333 -108.834 -88 -156.501s-78.334 -89.834 -125.001 -126.501
s-94.667 -67.334 -144 -92.001c-55.333 -27.333 -116.5 -45.166 -183.5 -53.499s-135.5 -12.5 -205.5 -12.5c-107.333 0 -207 13.667 -299 41s-171.667 69.333 -239 126s-120 128.834 -158 216.501s-57 191.834 -57 312.501h491c0 -52 6.66699 -97 20 -135
s32 -69.5 56 -94.5s52.833 -43.5 86.5 -55.5s71.167 -18 112.5 -18c34.667 0 68 5.5 100 16.5s60.333 27 85 48s44.334 46.667 59.001 77s22 65.166 22 104.499c0 38 -5.83301 72.667 -17.5 104s-28.834 58 -51.501 80s-50.834 39.167 -84.501 51.5s-72.5 18.5 -116.5 18.5
c-18.667 0 -35.334 -0.166992 -50.001 -0.5s-32.334 -1.5 -53.001 -3.5v324z" />
    <glyph glyph-name="four" unicode="4" horiz-adv-x="1626" 
d="M864 1294l-385 -528h385v528zM1597 766v-356h-254v-410h-479v410h-827v323l901 1221h405v-1188h254z" />
    <glyph glyph-name="five" unicode="5" horiz-adv-x="1626" 
d="M700 1618l-57.0029 -279.001c31.333 6.66699 63.5 12.5 96.5 17.5s65.167 7.5 96.5 7.5c64.667 0 127.834 -6.16699 189.501 -18.5s119.834 -31 174.501 -56s104.834 -56.5 150.501 -94.5s85 -82.667 118 -134s58.667 -109.333 77 -174s27.5 -136.334 27.5 -215.001
c0 -98 -16.167 -189.5 -48.5 -274.5s-80.666 -158.833 -144.999 -221.5s-145 -111.834 -242 -147.501s-209.833 -53.5 -338.5 -53.5c-99.333 0 -192.833 13.833 -280.5 41.5s-164.834 68.5 -231.501 122.5s-121 121 -163 201s-67 172.667 -75 278h488
c8 -40.667 20.667 -76.334 38 -107.001s37.666 -56.167 60.999 -76.5s49.333 -35.666 78 -45.999s58.334 -15.5 89.001 -15.5s62 5.33301 94 16s61 28 87 52s47.333 55.5 64 94.5s25 87.167 25 144.5c0 42 -5.5 81.833 -16.5 119.5s-28.167 70.667 -51.5 99
s-53.166 50.833 -89.499 67.5s-79.5 25 -129.5 25c-26.667 0 -52.334 -1.66699 -77.001 -5s-48.5 -9.16602 -71.5 -17.499s-45.167 -19.666 -66.5 -33.999s-42.333 -32.166 -63 -53.499l-414 4l197 1069h1139v-336h-730z" />
    <glyph glyph-name="six" unicode="6" horiz-adv-x="1626" 
d="M868 1987c86 0 165.837 -11.665 239.504 -34.998s139.167 -58.333 196.5 -105s105.5 -104.5 144.5 -173.5s66.833 -148.833 83.5 -239.5h-442c-16.667 72 -44.834 124.667 -84.501 158s-89.5 50 -149.5 50c-40 0 -76.167 -6.66699 -108.5 -20s-61.333 -31.333 -87 -54
s-48.167 -49.334 -67.5 -80.001s-35.5 -63.667 -48.5 -99s-23.167 -72 -30.5 -110s-12 -75.333 -14 -112c55.333 56 114.833 96.167 178.5 120.5s129.834 37.5 198.501 39.5c105.333 2.66699 201.166 -11.666 287.499 -42.999s160.333 -76.333 222 -135
s109.5 -129.334 143.5 -212.001s51 -173.667 51 -273c0 -52 -6.16699 -105.333 -18.5 -160s-31.333 -107.834 -57 -159.501s-58.667 -100.334 -99 -146.001s-88.5 -85.667 -144.5 -120s-120.5 -61.5 -193.5 -81.5s-154.833 -30 -245.5 -30
c-106.667 0 -199.834 14 -279.501 42s-148.334 65.833 -206.001 113.5s-105.334 103.334 -143.001 167.001s-67.5 131 -89.5 202s-37.5 143.667 -46.5 218s-13.5 146.5 -13.5 216.5c0 90.667 6.33301 179.834 19 267.501s32.667 170.834 60 249.501
s62.5 151.167 105.5 217.5s95 123.666 156 171.999s131.333 86.166 211 113.499s170.167 41 271.5 41zM836.004 971.002c-46 0 -86.3311 -8.83008 -120.998 -26.4971s-63.334 -41.334 -86.001 -71.001s-39.667 -64.167 -51 -103.5s-17 -80.333 -17 -123
c0 -43.333 5.83301 -84 17.5 -122s29 -71.333 52 -100s51.667 -51.334 86 -68.001s74.166 -25 119.499 -25c44 0 82.333 8.66699 115 26s60 40.666 82 69.999s38.333 62.833 49 100.5s16 77.167 16 118.5c0 42 -4.83301 82.5 -14.5 121.5s-25 73.5 -46 103.5
s-48.167 54 -81.5 72s-73.333 27 -120 27z" />
    <glyph glyph-name="seven" unicode="7" horiz-adv-x="1626" 
d="M1503 1622c-63.333 -60 -123.332 -127.835 -179.999 -203.502s-109.167 -157 -157.5 -244s-92 -178.333 -131 -274s-73 -193.667 -102 -294s-52.5 -201.666 -70.5 -303.999s-29.667 -203.166 -35 -302.499h-503c10 160.667 32.667 314.5 68 461.5
s80.666 286.5 135.999 418.5s119.833 256.5 193.5 373.5s154.167 226.167 241.5 327.5h-832v373h1372v-332v0z" />
    <glyph glyph-name="eight" unicode="8" horiz-adv-x="1626" 
d="M119 1438c0 64 9.16211 122 27.4951 174s43.333 98.333 75 139s69.334 75.834 113.001 105.501s90.667 54.167 141 73.5s103 33.666 158 42.999s110.167 14 165.5 14c116.667 0 218.834 -14.167 306.501 -42.5s160.667 -67.333 219 -117s102 -107.834 131 -174.501
s43.5 -138.334 43.5 -215.001c0 -74.667 -14.5 -143.5 -43.5 -206.5s-70.5 -117.167 -124.5 -162.5c78.667 -51.333 140 -116.666 184 -195.999s66 -169.666 66 -270.999c0 -105.333 -19.667 -197.666 -59 -276.999s-93.166 -145.5 -161.499 -198.5
s-148.666 -92.833 -240.999 -119.5s-191.166 -40 -296.499 -40c-107.333 0 -208 12.667 -302 38s-176 64.166 -246 116.499s-125.167 118.333 -165.5 198s-60.5 173.834 -60.5 282.501c0 103.333 19 193.5 57 270.5s98.333 141.167 181 192.5
c-56 47.333 -98 103.666 -126 168.999s-42 133.333 -42 204zM597.995 1425c0 -34.667 5 -66.167 15 -94.5s24.667 -52.5 44 -72.5s42.833 -35.333 70.5 -46s59.5 -16 95.5 -16c32 0 60.167 6 84.5 18s44.833 28.333 61.5 49s29.334 44.834 38.001 72.501s13 57.5 13 89.5
c0 32.667 -5.33301 62.167 -16 88.5s-25.334 48.666 -44.001 66.999s-40.667 32.5 -66 42.5s-53 15 -83 15c-32 0 -61 -5.33301 -87 -16s-48.333 -25.5 -67 -44.5s-33.167 -41.5 -43.5 -67.5s-15.5 -54.333 -15.5 -85zM531.995 598c0 -42 6.8291 -80.333 20.4961 -115
s33.334 -64.5 59.001 -89.5s56.334 -44.333 92.001 -58s75.5 -20.5 119.5 -20.5c40.667 0 77.834 7.83301 111.501 23.5s62.167 36.834 85.5 63.501s41.5 57.167 54.5 91.5s19.5 70.5 19.5 108.5c0 34.667 -6.5 68.667 -19.5 102s-31.333 63.166 -55 89.499
s-52.5 47.5 -86.5 63.5s-72 24 -114 24c-45.333 0 -85.666 -7.66699 -120.999 -23s-65.333 -35.833 -90 -61.5s-43.5 -55.667 -56.5 -90s-19.5 -70.5 -19.5 -108.5z" />
    <glyph glyph-name="nine" unicode="9" horiz-adv-x="1626" 
d="M758 -33c-86 0 -165.834 11.667 -239.501 35s-139.167 58.333 -196.5 105s-105.5 104.334 -144.5 173.001s-66.833 148.667 -83.5 240h443c16 -72 43.833 -124.833 83.5 -158.5s89.5 -50.5 149.5 -50.5c59.333 0 110.666 14.333 153.999 43s79.5 65.834 108.5 111.501
s51 96.667 66 153s24.167 112.166 27.5 167.499c-55.333 -55.333 -114.833 -95.166 -178.5 -119.499s-129.5 -37.5 -197.5 -39.5c-105.333 -3.33301 -201.333 10.667 -288 42s-160.834 76.5 -222.501 135.5s-109.5 129.833 -143.5 212.5s-51 173.667 -51 273
c0 52 6.16699 105.333 18.5 160s31.333 107.834 57 159.501s58.667 100.334 99 146.001s88.5 85.667 144.5 120s120.5 61.5 193.5 81.5s154.833 30 245.5 30c106.667 0 199.834 -14 279.501 -42s148.334 -65.833 206.001 -113.5s105.334 -103.334 143.001 -167.001
s67.5 -131 89.5 -202s37.5 -143.833 46.5 -218.5s13.5 -146.667 13.5 -216c0 -90.667 -6.33301 -179.834 -19 -267.501s-32.667 -170.834 -60 -249.501s-62.5 -151.334 -105.5 -218.001s-95 -124.167 -156 -172.5s-131.5 -86 -211.5 -113s-170.333 -40.5 -271 -40.5z
M790.999 983c46 0 86.168 8.83105 120.501 26.498s62.833 41.334 85.5 71.001s39.667 64 51 103s17 80.167 17 123.5c0 42.667 -5.83301 83.167 -17.5 121.5s-29 71.833 -52 100.5s-51.667 51.334 -86 68.001s-73.833 25 -118.5 25c-44 0 -82.5 -8.83301 -115.5 -26.5
s-60.5 -41 -82.5 -70s-38.333 -62.5 -49 -100.5s-16 -77.333 -16 -118c0 -42 4.83301 -82.5 14.5 -121.5s25 -73.5 46 -103.5s48.167 -54 81.5 -72s73.666 -27 120.999 -27z" />
    <glyph glyph-name="colon" unicode=":" horiz-adv-x="852" 
d="M659 467v-467h-466v467h466zM659 1454v-467h-466v467h466z" />
    <glyph glyph-name="semicolon" unicode=";" horiz-adv-x="852" 
d="M659 1454v-467h-466v467h466zM659 446l0.000976562 -397c0 -60.667 -8 -121.667 -24 -183s-42 -118.833 -78 -172.5s-83.5 -101.5 -142.5 -143.5s-131.5 -73.667 -217.5 -95v299c25.333 6 48.166 16.833 68.499 32.5s37.5 34.167 51.5 55.5s24.667 45 32 71
s11 52.333 11 79h-167v454h466z" />
    <glyph glyph-name="less" unicode="&#x3c;" horiz-adv-x="1794" 
d="M635 819l1048 -471v-409l-1589 708v348l1589 713v-414z" />
    <glyph glyph-name="equal" unicode="=" horiz-adv-x="1667" 
d="M1561 1249v-364h-1459v364h1459zM1561 696v-364h-1459v364h1459z" />
    <glyph glyph-name="greater" unicode="&#x3e;" horiz-adv-x="1794" 
d="M111 1294v414l1589 -713v-348l-1589 -708v409l1048 471z" />
    <glyph glyph-name="question" unicode="?" horiz-adv-x="1544" 
d="M1008 406v-406h-488v406h488zM57 1282c0 124 17 233.664 51 328.997s82.167 175.333 144.5 240s137.666 113.667 225.999 147s186.833 50 295.5 50c100.667 0 192.667 -12.667 276 -38s155 -63 215 -113s106.5 -112 139.5 -186s49.5 -159.667 49.5 -257
c0 -61.333 -8 -116.166 -24 -164.499s-36.5 -91.666 -61.5 -129.999s-52.833 -73.166 -83.5 -104.499l-89 -88l-73.5 -69.5c-24.333 -22.333 -46.333 -45.5 -66 -69.5s-35.5 -49.667 -47.5 -77s-18 -58 -18 -92v-118h-454v143c2 58.667 13.333 110.667 34 156
s45.834 86.5 75.501 123.5s61.5 70.5 95.5 100.5s65.333 59 94 87c20.667 20.667 41 43.667 61 69s37.5 52.166 52.5 80.499s26.5 57.333 34.5 87s10.333 58.834 7 87.501c-6 65.333 -26.333 116.333 -61 153s-86.667 55 -156 55c-48 0 -88.833 -10 -122.5 -30
s-61.167 -47.667 -82.5 -83s-36.833 -77.5 -46.5 -126.5s-14.5 -102.833 -14.5 -161.5h-451z" />
    <glyph glyph-name="at" unicode="@" horiz-adv-x="2384" 
d="M1491 504c-39.333 2 -74.8369 11.3379 -106.504 28.0049s-58.834 41.334 -81.501 74.001c-39.333 -30.667 -83.5 -56.667 -132.5 -78s-99.167 -32 -150.5 -32c-56 0 -107.833 10.833 -155.5 32.5s-88.834 51.5 -123.501 89.5s-61.667 82.667 -81 134
s-29 106.666 -29 165.999c0 58 6.66699 115.667 20 173s32.5 112 57.5 164s55.667 100.5 92 145.5s77.333 83.833 123 116.5s95.834 58.334 150.501 77.001s113 28 175 28c22.667 0 46 -2.66699 70 -8s47.167 -13.666 69.5 -24.999s43.5 -25.666 63.5 -42.999
s37 -38.333 51 -63l37 102h250l-221 -733c-4 -15.333 -7.33301 -31.166 -10 -47.499s-3.33398 -31.333 -2.00098 -45s5 -24.834 11 -33.501s15.667 -13 29 -13c36 0 73.667 12.333 113 37s75.5 58.5 108.5 101.5s60.333 93.667 82 152s32.5 121.166 32.5 188.499
c0 104.667 -19.167 196.5 -57.5 275.5s-89.666 145.167 -153.999 198.5s-138.833 93.5 -223.5 120.5s-173 40.5 -265 40.5c-75.333 0 -147.166 -9.66699 -215.499 -29s-131.666 -46.5 -189.999 -81.5s-111.333 -77.167 -159 -126.5s-88.167 -104 -121.5 -164
s-59.166 -124.5 -77.499 -193.5s-27.5 -141.167 -27.5 -216.5c0 -74 9.66699 -143.833 29 -209.5s46.333 -126.334 81 -182.001s76.5 -105.667 125.5 -150s103.333 -81.833 163 -112.5s123.667 -54.334 192 -71.001s139.166 -25 212.499 -25
c61.333 0 122.666 3.33301 183.999 10s120.5 18.5 177.5 35.5s111.167 40 162.5 69s98 66.167 140 111.5h348c-59.333 -90 -126.666 -167.333 -201.999 -232s-156.333 -117.834 -243 -159.501s-178.167 -72.167 -274.5 -91.5s-195.166 -29 -296.499 -29
c-102.667 0 -201.834 11.167 -297.501 33.5s-185.5 54.5 -269.5 96.5s-160.833 93.667 -230.5 155s-129.5 131.166 -179.5 209.499s-88.833 164.5 -116.5 258.5s-41.5 195 -41.5 303c0 107.333 14 207.666 42 300.999s67 178.666 117 255.999s109.833 146.166 179.5 206.499
s146.167 111.333 229.5 153s172 73.5 266 95.5s190.333 33 289 33c89.333 0 176.833 -8.83301 262.5 -26.5s166.667 -43.667 243 -78s146.833 -76.5 211.5 -126.5s120.334 -107.5 167.001 -172.5s83 -137.167 109 -216.5s39 -165 39 -257
c0 -84.667 -12.5 -161.167 -37.5 -229.5s-58.167 -128.833 -99.5 -181.5s-88.666 -98 -141.999 -136s-108.5 -68.667 -165.5 -92s-113.667 -40 -170 -50s-108.166 -13.667 -155.499 -11zM1253 1360c-33.333 0 -64.498 -6.50293 -93.498 -19.5029s-55.667 -30.5 -80 -52.5
s-46 -47.667 -65 -77s-35 -59.833 -48 -91.5s-23 -63.834 -30 -96.501s-10.5 -63.667 -10.5 -93c0 -23.333 3.66699 -45 11 -65s17.5 -37.333 30.5 -52s28.5 -26.167 46.5 -34.5s37.667 -12.5 59 -12.5c28 0 55 6.83301 81 20.5s50.167 32 72.5 55s42.666 49.333 60.999 79
s34 60.834 47 93.501s23.167 65.334 30.5 98.001s11 63.334 11 92.001c0 19.333 -3.33301 38.333 -10 57s-15.667 35.334 -27 50.001s-24.333 26.5 -39 35.5s-30.334 13.5 -47.001 13.5z" />
    <glyph glyph-name="A" unicode="A" horiz-adv-x="2056" 
d="M1356 446h-664l-155 -446h-537l754 1999h549l753 -1999h-545zM807 774h434l-213 619z" />
    <glyph glyph-name="B" unicode="B" horiz-adv-x="1946" 
d="M950 1204c60.667 0 112.5 4.16699 155.5 12.5s78.167 21.166 105.5 38.499s47.333 39 60 65s19 57 19 93c0 48 -9 85.333 -27 112s-42.5 46.334 -73.5 59.001s-67.167 20.167 -108.5 22.5s-85 3.5 -131 3.5h-291v-406h291zM958 1999
c44 0 92.165 -0.499023 144.498 -1.49902s104.333 -4 156 -9s101 -13 148 -24s87.5 -26.833 121.5 -47.5c36 -21.333 70.5 -46.666 103.5 -75.999s62.167 -62.666 87.5 -99.999s45.5 -78.5 60.5 -123.5s22.5 -94.167 22.5 -147.5c0 -45.333 -5.33301 -87.833 -16 -127.5
s-25.667 -76.334 -45 -110.001s-42.166 -64.167 -68.499 -91.5s-55.5 -51.333 -87.5 -72c44.667 -21.333 85.667 -47.833 123 -79.5s69.333 -67.334 96 -107.001s47.334 -82.5 62.001 -128.5s22 -94 22 -144c0 -50.667 -6.83301 -100.834 -20.5 -150.501
s-33.667 -97.167 -60 -142.5s-59 -87.333 -98 -126s-84 -72.167 -135 -100.5s-107.833 -50.5 -170.5 -66.5s-130.667 -24 -204 -24h-1057v1999h815zM1081 389.001c95.333 0 167.667 20 217 60s74 99.333 74 178c0 44 -10 80 -30 108s-46.333 50.167 -79 66.5
s-69.5 27.5 -110.5 33.5s-82.5 9 -124.5 9h-369v-455h422z" />
    <glyph glyph-name="C" unicode="C" horiz-adv-x="2040" 
d="M1475 1327c-7.33301 48 -21.999 91.335 -43.999 130.002s-50.167 71.334 -84.5 98.001s-74.333 47.167 -120 61.5s-95.5 21.5 -149.5 21.5c-62.667 0 -118.834 -8.33301 -168.501 -25s-93.334 -39.834 -131.001 -69.501s-69.667 -65 -96 -106s-47.833 -85.333 -64.5 -133
s-28.834 -98.167 -36.501 -151.5s-11.5 -107.333 -11.5 -162c0 -52 4 -103.333 12 -154s20.667 -98.834 38 -144.501s39.333 -88 66 -127s58.834 -72.833 96.501 -101.5s81 -51 130 -67s104.167 -24 165.5 -24c120.667 0 215.667 34.667 285 104
s112.333 169.666 129 300.999h508c-11.333 -124.667 -42.666 -237.5 -93.999 -338.5s-117.833 -187 -199.5 -258s-176.167 -125.833 -283.5 -164.5s-222.333 -58 -345 -58c-166 0 -312.667 25 -440 75s-234.166 120.333 -320.499 211s-151.833 199.334 -196.5 326.001
s-67 266.667 -67 420c0 154.667 22.333 296.667 67 426s110.167 240.833 196.5 334.5s193.166 166.5 320.499 218.5s274 78 440 78c73.333 0 145.333 -7.16699 216 -21.5s138 -35.333 202 -63s123.667 -61.834 179 -102.501s104.333 -87.667 147 -141
s78 -112.833 106 -178.5s46.333 -137.167 55 -214.5h-507z" />
    <glyph glyph-name="D" unicode="D" horiz-adv-x="1999" 
d="M905 389c24.667 0 55.167 1.66992 91.5 5.00293s74.5 11.666 114.5 24.999s80 33.166 120 59.499s75.833 62.5 107.5 108.5s57.5 103.167 77.5 171.5s30 151.5 30 249.5s-9 184.333 -27 259s-47.667 137.167 -89 187.5s-96 88.166 -164 113.499s-152.333 38 -253 38h-258
v-1217h250zM909 1999c160.667 0 305.501 -18.666 434.501 -55.999s238.667 -94.833 329 -172.5s159.833 -176.667 208.5 -297s73 -263.5 73 -429.5c0 -171.333 -21.333 -322 -64 -452s-107.334 -238.833 -194.001 -326.5s-195.5 -153.834 -326.5 -198.501
s-284.5 -67 -460.5 -67h-766v1999h766z" />
    <glyph glyph-name="E" unicode="E" horiz-adv-x="1737" 
d="M1663 1999v-402h-1008v-376h934v-394h-934v-430h1012v-397h-1524v1999h1520z" />
    <glyph glyph-name="F" unicode="F" horiz-adv-x="1634" 
d="M1597 1999v-402h-942v-372h815v-398h-815v-827h-512v1999h1454z" />
    <glyph glyph-name="G" unicode="G" horiz-adv-x="2150" 
d="M1647 205c-38 -48 -80.666 -87.833 -127.999 -119.5s-96.666 -56.834 -147.999 -75.501s-103.166 -31.834 -155.499 -39.501s-102.5 -11.5 -150.5 -11.5c-164.667 0 -309.834 24.333 -435.501 73s-230.834 118 -315.501 208s-148.667 198.5 -192 325.5
s-65 268.833 -65 425.5s22.667 299.834 68 429.501s111.5 241 198.5 334s194 165.167 321 216.5s272.5 77 436.5 77c74.667 0 147.5 -6.5 218.5 -19.5s138.333 -32.5 202 -58.5s122.834 -58.5 177.501 -97.5s102.667 -84.667 144 -137s75.5 -111.166 102.5 -176.499
s44.5 -137.333 52.5 -216h-503c-14.667 51.333 -34.667 95.5 -60 132.5s-55 67.5 -89 91.5s-71.833 41.833 -113.5 53.5s-85.5 17.5 -131.5 17.5c-93.333 0 -172 -17.167 -236 -51.5s-115.667 -81 -155 -140s-67.833 -127.667 -85.5 -206s-26.5 -161.5 -26.5 -249.5
c0 -83.333 9 -162.333 27 -237s46.833 -140.167 86.5 -196.5s91.5 -101.166 155.5 -134.499s142 -50 234 -50c58.667 0 113 7.16699 163 21.5s94.167 36.333 132.5 66s70.166 67.167 95.499 112.5s42.666 98.666 51.999 159.999h-410v393h893v-1126h-319z" />
    <glyph glyph-name="H" unicode="H" horiz-adv-x="2048" 
d="M655 1999v-774h738v774h512v-1999h-512v823h-738v-823h-512v1999h512z" />
    <glyph glyph-name="I" unicode="I" horiz-adv-x="852" 
d="M680 1999v-1999h-508v1999h508z" />
    <glyph glyph-name="J" unicode="J" horiz-adv-x="1528" 
d="M1384 647c0 -43.333 -3.67188 -89.999 -11.0049 -139.999s-20.666 -100.333 -39.999 -151s-45.666 -99.334 -78.999 -146.001s-76.166 -88 -128.499 -124s-115.5 -64.833 -189.5 -86.5s-160.667 -32.5 -260 -32.5c-55.333 0 -111 5.16699 -167 15.5
s-109.667 26.5 -161 48.5s-99.5 49.833 -144.5 83.5s-84 73.5 -117 119.5s-59 98.5 -78 157.5s-28.5 125.167 -28.5 198.5v172h479v-90c0 -96.667 16.5 -170 49.5 -220s87.5 -75 163.5 -75c46 0 81.833 10.5 107.5 31.5s44.834 47.833 57.501 80.5s20.334 68.5 23.001 107.5
s4 76.5 4 112.5v1290h520v-1352z" />
    <glyph glyph-name="K" unicode="K" horiz-adv-x="1892" 
d="M143 1999h525v-746l696 746h602l-770 -791l811 -1208h-569l-586 872l-184 -188v-684h-525v1999z" />
    <glyph glyph-name="L" unicode="L" horiz-adv-x="1585" 
d="M659 1999v-1581h906v-418h-1422v1999h516z" />
    <glyph glyph-name="M" unicode="M" horiz-adv-x="2482" 
d="M143 1999h688l422 -1254l398 1254h688v-1999h-492v1319l-446 -1319h-316l-446 1298v-1298h-496v1999z" />
    <glyph glyph-name="N" unicode="N" horiz-adv-x="2060" 
d="M143 1999h512l766 -1241v1241h496v-1999h-516l-762 1237v-1237h-496v1999z" />
    <glyph glyph-name="O" unicode="O" horiz-adv-x="2154" 
d="M41 999c0 94 9.16797 185.002 27.501 273.002s46.166 170.667 83.499 248s84.333 148.166 141 212.499s123.167 119.5 199.5 165.5s162.833 81.833 259.5 107.5s203.667 38.5 321 38.5s224.666 -12.833 321.999 -38.5s184.5 -61.834 261.5 -108.501
s144.167 -102.167 201.5 -166.5s105 -135.333 143 -213s66.333 -160.334 85 -248.001s28 -177.834 28 -270.501c0 -94 -9.33301 -185 -28 -273s-46.834 -170.333 -84.501 -247s-85 -146.667 -142 -210s-124.167 -117.666 -201.5 -162.999s-164.666 -80.5 -261.999 -105.5
s-205 -37.5 -323 -37.5c-117.333 0 -224.333 12.667 -321 38s-183.167 60.666 -259.5 105.999s-142.833 99.833 -199.5 163.5s-103.667 133.834 -141 210.501s-65.166 158.834 -83.499 246.501s-27.5 178.167 -27.5 271.5zM557.001 999.002
c0 -51.333 4.16699 -102.333 12.5 -153s21.5 -99 39.5 -145s40.667 -88.667 68 -128s60.166 -73.5 98.499 -102.5s82.166 -51.833 131.499 -68.5s104.666 -25 165.999 -25c62.667 0 119.167 8.33301 169.5 25s95 39.5 134 68.5s72.333 63.167 100 102.5s50.5 82 68.5 128
s31.167 94.333 39.5 145s12.5 101.667 12.5 153s-4.16699 102.5 -12.5 153.5s-21.5 99.667 -39.5 146s-40.833 89.5 -68.5 129.5s-61 74.667 -100 104s-83.667 52.333 -134 69s-106.833 25 -169.5 25c-61.333 0 -116.666 -8.33301 -165.999 -25
s-93.166 -39.667 -131.499 -69s-71.166 -64 -98.499 -104s-50 -83.167 -68 -129.5s-31.167 -95 -39.5 -146s-12.5 -102.167 -12.5 -153.5z" />
    <glyph glyph-name="P" unicode="P" horiz-adv-x="1843" 
d="M963 1130c112.667 -2 195.334 15.833 248.001 53.5s79 96.5 79 176.5s-26.333 139.5 -79 178.5s-135.334 58.5 -248.001 58.5h-349v-467h349zM1090 1999c111.333 0 211.166 -13.998 299.499 -41.998s163 -68.833 224 -122.5s107.667 -119.334 140 -197.001
s48.5 -166.167 48.5 -265.5c0 -98 -16.167 -186 -48.5 -264s-79 -144 -140 -198s-135.667 -95.333 -224 -124s-188.166 -42.334 -299.499 -41.001h-476v-745h-471v1999h947z" />
    <glyph glyph-name="Q" unicode="Q" horiz-adv-x="2154" 
d="M1511 37c-64 -22.667 -131.83 -40.6641 -203.497 -53.9971s-149.834 -20 -234.501 -20c-117.333 0 -224.333 12.667 -321 38s-183.167 60.666 -259.5 105.999s-142.833 99.833 -199.5 163.5s-103.667 133.834 -141 210.501s-65.166 158.834 -83.499 246.501
s-27.5 178.167 -27.5 271.5c0 94 9.16699 185 27.5 273s46.166 170.667 83.499 248s84.333 148.166 141 212.499s123.167 119.5 199.5 165.5s162.833 81.833 259.5 107.5s203.667 38.5 321 38.5s224.666 -12.833 321.999 -38.5s184.5 -61.834 261.5 -108.501
s144.167 -102.167 201.5 -166.5s105 -135.333 143 -213s66.333 -160.334 85 -248.001s28 -177.834 28 -270.501c0 -140 -20.333 -271.167 -61 -393.5s-102.334 -229.833 -185.001 -322.5l262 -213l-275 -316zM557.003 999.003c0 -51.333 4.16699 -102.333 12.5 -153
s21.5 -99 39.5 -145s40.667 -88.667 68 -128s60.166 -73.5 98.499 -102.5s82.166 -51.833 131.499 -68.5s104.666 -25 165.999 -25h29l-103 86l271 307l217 -180c37.333 58 65 122.167 83 192.5s27 142.5 27 216.5c0 51.333 -4.16699 102.5 -12.5 153.5
s-21.5 99.667 -39.5 146s-40.833 89.5 -68.5 129.5s-61 74.667 -100 104s-83.667 52.333 -134 69s-106.833 25 -169.5 25c-61.333 0 -116.666 -8.33301 -165.999 -25s-93.166 -39.667 -131.499 -69s-71.166 -64 -98.499 -104s-50 -83.167 -68 -129.5s-31.167 -95 -39.5 -146
s-12.5 -102.167 -12.5 -153.5z" />
    <glyph glyph-name="R" unicode="R" horiz-adv-x="1946" 
d="M1180 1999c105.333 0 200.504 -13.0029 285.504 -39.0029s157.333 -63.167 217 -111.5s105.5 -107.5 137.5 -177.5s48 -149 48 -237c0 -50 -3.33301 -97.167 -10 -141.5s-17.834 -85.666 -33.501 -123.999s-36.334 -74 -62.001 -107s-57.5 -63.167 -95.5 -90.5
c30 -22.667 54.333 -47.667 73 -75s33.667 -56.833 45 -88.5s20.166 -65 26.499 -100s11.5 -71.5 15.5 -109.5c2.66699 -57.333 4.66699 -112.5 6 -165.5s6.5 -104.167 15.5 -153.5s23.833 -97.166 44.5 -143.499s52 -91.5 94 -135.5h-545c-30 36 -51.667 74.167 -65 114.5
s-23 82.666 -29 126.999s-10.333 90.333 -13 138s-8 97.167 -16 148.5c-5.33301 32.667 -11.833 63.834 -19.5 93.501s-19.334 55.834 -35.001 78.501s-37 40.667 -64 54s-62.5 20 -106.5 20h-430v-774h-517v1999h1033zM1004 1163c44.667 0 88.167 2.33203 130.5 6.99902
s80 14.5 113 29.5s59.333 36.833 79 65.5s29.5 67 29.5 115c0 32.667 -5.16699 62.334 -15.5 89.001s-26 49.5 -47 68.5s-47.5 33.667 -79.5 44s-69.333 15.5 -112 15.5h-438v-434h340z" />
    <glyph glyph-name="S" unicode="S" horiz-adv-x="1843" 
d="M537 676c0 -60.667 10.668 -112.002 32.001 -154.002s50.333 -76.167 87 -102.5s79.334 -45.5 128.001 -57.5s100 -18 154 -18c34.667 0 72.5 2.66699 113.5 8s79.167 15.5 114.5 30.5s64.833 36.167 88.5 63.5s35.5 63 35.5 107c0 42.667 -15.167 79.167 -45.5 109.5
s-71 56.833 -122 79.5s-109.833 43.167 -176.5 61.5l-209 56.5c-50 14 -101.5 29.5 -154.5 46.5s-104.667 37 -155 60s-98 49.5 -143 79.5s-84.333 64.5 -118 103.5s-60.334 83.333 -80.001 133s-29.5 105.5 -29.5 167.5c0 70.667 10.5 134.334 31.5 191.001
s50.5 107.167 88.5 151.5s82.833 82.5 134.5 114.5s108.167 58.5 169.5 79.5s126.166 36.5 194.499 46.5s138.166 15 209.499 15c116.667 0 226.334 -12.5 329.001 -37.5s192.167 -64 268.5 -117s136.5 -120.833 180.5 -203.5s66 -181.667 66 -297h-508
c-3.33301 50 -14.333 92 -33 126s-43.334 61.333 -74.001 82s-66.667 35.5 -108 44.5s-86 13.5 -134 13.5c-36 0 -70 -2.83301 -102 -8.5s-60.167 -15.334 -84.5 -29.001s-43.666 -31.667 -57.999 -54s-21.5 -50.5 -21.5 -84.5c0 -16.667 2.5 -32.5 7.5 -47.5
s14.667 -29.667 29 -44s34.333 -29 60 -44s59 -30.667 100 -47s90.667 -33.666 149 -51.999s127.5 -38.5 207.5 -60.5l98.5 -26.5c41 -11 85.167 -25.833 132.5 -44.5s95.333 -42.167 144 -70.5s92.5 -63.333 131.5 -105s70.833 -91 95.5 -148s37 -123.5 37 -199.5
c0 -96 -18 -183.5 -54 -262.5s-90.333 -146.667 -163 -203s-163.834 -100 -273.501 -131s-238.167 -46.5 -385.5 -46.5c-80.667 0 -158.834 6.5 -234.501 19.5s-146.667 32.667 -213 59s-127 59.5 -182 99.5s-102.167 86.833 -141.5 140.5s-69.666 114.334 -90.999 182.001
s-31.666 142.5 -30.999 224.5h508z" />
    <glyph glyph-name="T" unicode="T" horiz-adv-x="1642" 
d="M25 1597v402h1589v-402h-541v-1597h-516v1597h-532z" />
    <glyph glyph-name="U" unicode="U" horiz-adv-x="2073" 
d="M1925 750c0 -131.333 -20.6689 -246 -62.002 -344s-100 -179.5 -176 -244.5s-167.667 -113.667 -275 -146s-227 -48.5 -359 -48.5c-137.333 0 -261.666 15.167 -372.999 45.5s-206.5 77.5 -285.5 141.5s-140 145.333 -183 244s-64.5 216 -64.5 352v1249h512v-1208
c0 -68.667 7 -129.334 21 -182.001s36.667 -96.667 68 -132s72 -62.166 122 -80.499s111 -27.5 183 -27.5c66.667 0 122.834 9.16699 168.501 27.5s82.667 45.166 111 80.499s48.833 79.333 61.5 132s19 113.334 19 182.001v1208h512v-1249z" />
    <glyph glyph-name="V" unicode="V" horiz-adv-x="1876" 
d="M684 0l-684 1999h549l393 -1249l393 1249h541l-692 -1999h-500z" />
    <glyph glyph-name="W" unicode="W" horiz-adv-x="2728" 
d="M2179 0h-475l-340 1343h-8l-332 -1343h-487l-529 1999h520l283 -1196l307 1196h492l303 -1213l291 1213h516z" />
    <glyph glyph-name="X" unicode="X" horiz-adv-x="1884" 
d="M1237 1040l684 -1040h-598l-389 598l-389 -598h-582l684 1028l-635 971h594l344 -533l348 533h574z" />
    <glyph glyph-name="Y" unicode="Y" horiz-adv-x="2060" 
d="M1294 0h-520v811l-770 1188h574l466 -770l455 770h557l-762 -1188v-811z" />
    <glyph glyph-name="Z" unicode="Z" horiz-adv-x="1737" 
d="M1008 1597h-844v402h1515v-328l-966 -1274h958v-397h-1642v319z" />
    <glyph glyph-name="bracketleft" unicode="[" horiz-adv-x="938" 
d="M639 1737v-1970h295v-394h-787v2757h787v-393h-295z" />
    <glyph glyph-name="backslash" unicode="\" horiz-adv-x="1200" 
d="M438 2048l819 -2089h-487l-827 2089h495z" />
    <glyph glyph-name="bracketright" unicode="]" horiz-adv-x="934" 
d="M0 1737v393h786v-2757h-786v394h295v1970h-295z" />
    <glyph glyph-name="asciicircum" unicode="^" horiz-adv-x="1851" 
d="M1065 2032l688 -1377h-377l-450 889l-221 -444.5l-218 -444.5h-393l692 1377h279z" />
    <glyph glyph-name="underscore" unicode="_" horiz-adv-x="1405" 
d="M1405 -131v-315h-1405v315h1405z" />
    <glyph glyph-name="grave" unicode="`" horiz-adv-x="1004" 
d="M586 2105l319 -528h-340l-479 528h500z" />
    <glyph glyph-name="a" unicode="a" horiz-adv-x="1556" 
d="M975 635c-15.333 -15.333 -32.998 -28.002 -52.998 -38.002s-41.833 -18.667 -65.5 -26s-49.334 -13.833 -77.001 -19.5s-56.834 -12.167 -87.501 -19.5c-30 -7.33301 -56.667 -14.166 -80 -20.499s-43 -14.166 -59 -23.499s-28.167 -20.833 -36.5 -34.5
s-12.5 -31.167 -12.5 -52.5c0 -32.667 4.33301 -60 13 -82s21.167 -39.667 37.5 -53s36.666 -22.833 60.999 -28.5s52.5 -8.5 84.5 -8.5c46.667 0 85.834 6 117.501 18s57.667 27.333 78 46s35.833 40 46.5 64s18.5 48 23.5 72s7.83301 46.833 8.5 68.5s1 40.167 1 55.5v82z
M1053 134.998c-30.667 -34 -65.666 -62.1709 -104.999 -84.5039s-81 -40.333 -125 -54s-89 -23.334 -135 -29.001s-91 -8.5 -135 -8.5c-67.333 0 -132.5 8.83301 -195.5 26.5s-118.833 44.667 -167.5 81s-87.667 82.166 -117 137.499s-44 121 -44 197
c0 55.333 7.33301 103.5 22 144.5s34.667 76.333 60 106s55 54.334 89 74.001s70.5 36.334 109.5 50.001s79.167 24.667 120.5 33s82.333 15.833 123 22.5c60.667 10 116.667 19.833 168 29.5s95.833 21.834 133.5 36.501s67.167 33.167 88.5 55.5s32 51.5 32 87.5
c0 34.667 -4.5 63.5 -13.5 86.5s-22.5 41.167 -40.5 54.5s-40.333 22.666 -67 27.999s-57.334 8 -92.001 8c-37.333 0 -71.166 -4 -101.499 -12s-56.5 -21 -78.5 -39s-39.833 -41 -53.5 -69s-21.834 -62 -24.501 -102h-434c4 62.667 17 118.334 39 167.001
s50.5 91.334 85.5 128.001s75.333 67.5 121 92.5s94.167 45.167 145.5 60.5s104.333 26.5 159 33.5s108.667 10.5 162 10.5c48 0 97.833 -2 149.5 -6s102.167 -11.333 151.5 -22s96.166 -25.5 140.499 -44.5s83.333 -43.667 117 -74s60.334 -67.166 80.001 -110.499
s29.5 -94.333 29.5 -153v-721c0 -24.667 4 -42.167 12 -52.5s18.167 -15.5 30.5 -15.5s26 4.5 41 13.5s29.5 20.5 43.5 34.5v-311c-21.333 -15.333 -42.666 -27.833 -63.999 -37.5s-42.5 -17.167 -63.5 -22.5s-42.333 -9 -64 -11s-43.834 -3 -66.501 -3
c-30.667 0 -60.5 4.16699 -89.5 12.5s-55.333 20.5 -79 36.5s-44.167 35.333 -61.5 58s-29.333 48.334 -36 77.001z" />
    <glyph glyph-name="b" unicode="b" horiz-adv-x="1700" 
d="M573 733c0 -60 5 -118.334 15 -175.001s26.833 -107 50.5 -151s55 -79.167 94 -105.5s87.167 -39.5 144.5 -39.5c53.333 0 99.5 13.833 138.5 41.5s71.333 63.667 97 108s44.667 94.333 57 150s18.5 111.5 18.5 167.5c0 37.333 -2 74.833 -6 112.5
s-10.667 73.834 -20 108.501s-21.833 67 -37.5 97s-35 56 -58 78s-50.167 39.333 -81.5 52s-67.333 19 -108 19c-60.667 0 -110.5 -13 -149.5 -39s-70 -60.5 -93 -103.5s-39 -92.333 -48 -148s-13.5 -113.167 -13.5 -172.5zM565 -0.000976562l-463.002 -0.00292969v1999h484
v-647c28.667 28.667 59.334 52.334 92.001 71.001s66.167 33.667 100.5 45s68.833 19.333 103.5 24s68.334 7 101.001 7c107.333 0 203.666 -19.333 288.999 -58s157.5 -92 216.5 -160s104.167 -148.167 135.5 -240.5s47 -192.166 47 -299.499
c0 -111.333 -15.5 -214.666 -46.5 -309.999s-76.167 -178 -135.5 -248s-132.166 -124.833 -218.499 -164.5s-184.833 -59.5 -295.5 -59.5c-84 0 -160 12 -228 36s-128.667 66.667 -182 128v-123z" />
    <glyph glyph-name="c" unicode="c" horiz-adv-x="1540" 
d="M1044 877c-10 84 -35.501 149.999 -76.501 197.999s-94.5 72 -160.5 72c-58.667 0 -107.167 -12.333 -145.5 -37s-68.833 -57.334 -91.5 -98.001s-38.667 -87.334 -48 -140.001s-14 -107 -14 -163c0 -50 4.5 -99.167 13.5 -147.5s24.333 -91.333 46 -129
s50.667 -68 87 -91s81.833 -34.5 136.5 -34.5c42.667 0 80 7.33301 112 22s59.167 35.834 81.5 63.501s40 61.5 53 101.5s22.167 85.667 27.5 137h479c-43.333 -219.333 -127 -385.5 -251 -498.5s-291.333 -169.5 -502 -169.5c-123.333 0 -232.5 17.333 -327.5 52
s-175 84.334 -240 149.001s-114.333 143 -148 235s-50.5 195.333 -50.5 310c0 116.667 16.833 223 50.5 319s83.334 178.333 149.001 247s146.5 121.834 242.5 159.501s206.667 56.5 332 56.5c94 0 182.667 -12.5 266 -37.5s157 -62.833 221 -113.5
s116.833 -114.5 158.5 -191.5s68.167 -167.5 79.5 -271.5h-480v0z" />
    <glyph glyph-name="d" unicode="d" horiz-adv-x="1700" 
d="M1126 733c0 59.333 -4.50098 116.834 -13.501 172.501s-24.833 105 -47.5 148s-53.5 77.5 -92.5 103.5s-88.833 39 -149.5 39c-40.667 0 -76.667 -6.33301 -108 -19s-58.5 -30 -81.5 -52s-42.333 -48 -58 -78s-28.167 -62.333 -37.5 -97s-16 -70.834 -20 -108.501
s-6 -75.167 -6 -112.5c0 -56 6.16699 -111.833 18.5 -167.5s31.333 -105.667 57 -150s58 -80.333 97 -108s85.167 -41.5 138.5 -41.5c57.333 0 105.333 13.167 144 39.5s69.834 61.5 93.501 105.5s40.5 94.333 50.5 151s15 115 15 175zM1135 123.001
c-53.333 -61.333 -114.002 -103.997 -182.002 -127.997s-144 -36 -228 -36c-110.667 0 -209.167 19.833 -295.5 59.5s-159.166 94.5 -218.499 164.5s-104.5 152.667 -135.5 248s-46.5 198.666 -46.5 309.999c0 107.333 15.667 207.166 47 299.499s76.5 172.5 135.5 240.5
s131.167 121.333 216.5 160s181.666 58 288.999 58c32.667 0 66.334 -2.33301 101.001 -7s69.167 -12.667 103.5 -24s67.833 -26.333 100.5 -45s63.334 -42.334 92.001 -71.001v647h483v-1999h-462v123z" />
    <glyph glyph-name="e" unicode="e" horiz-adv-x="1602" 
d="M512 618c6 -115.333 35.332 -202.835 87.999 -262.502s128.334 -89.5 227.001 -89.5c34.667 0 67.834 4.5 99.501 13.5s60 21.333 85 37s46.167 34 63.5 55s29 43.167 35 66.5h438c-28.667 -87.333 -65.667 -162.166 -111 -224.499s-98.5 -113.5 -159.5 -153.5
s-129.833 -69.5 -206.5 -88.5s-160.667 -28.5 -252 -28.5c-120.667 0 -229.667 17.833 -327 53.5s-180.333 87 -249 154s-121.5 148.167 -158.5 243.5s-55.5 203 -55.5 323c0 116 19.333 221.5 58 316.5s92.667 176.333 162 244s152.5 120.167 249.5 157.5
s203.833 56 320.5 56c87.333 0 167.333 -11.167 240 -33.5s137.667 -53.333 195 -93s107.166 -86.667 149.499 -141s76.833 -113.833 103.5 -178.5s45.5 -133.167 56.5 -205.5s14.167 -146.166 9.5 -221.499h-1061zM1110 871.998c-5.33301 40.667 -15.165 79 -29.498 115
s-34 67.333 -59 94s-55.333 47.667 -91 63s-76.834 23 -123.501 23c-54 0 -99.5 -10 -136.5 -30s-66.833 -44.833 -89.5 -74.5s-39.334 -61.667 -50.001 -96s-17 -65.833 -19 -94.5h598z" />
    <glyph glyph-name="f" unicode="f" horiz-adv-x="877" 
d="M33 1167l0.000976562 286.999h143v164c0 136.667 42 238.334 126 305.001s206 100 366 100c12 0 26.667 -0.666992 44 -2s36.166 -3.66602 56.499 -6.99902s41.5 -7.83301 63.5 -13.5s43.667 -13.167 65 -22.5v-319c-35.333 12 -66.666 19.667 -93.999 23
s-49.333 3.66602 -66 0.999023c-22.667 -2 -41.334 -12.167 -56.001 -30.5s-22 -40.833 -22 -67.5v-131h189v-287h-189v-1167h-483v1167h-143z" />
    <glyph glyph-name="g" unicode="g" horiz-adv-x="1667" 
d="M799 287c55.333 0 102.001 12 140.001 36s68.833 55.667 92.5 95s40.667 84.333 51 135s15.5 102.667 15.5 156c0 62 -3.83301 121.5 -11.5 178.5s-22.334 107.167 -44.001 150.5s-52 77.833 -91 103.5s-89.833 38.5 -152.5 38.5c-55.333 0 -101.333 -11.833 -138 -35.5
s-66 -55.334 -88 -95.001s-37.667 -85.5 -47 -137.5s-14 -106 -14 -162c0 -55.333 3.66699 -110.666 11 -165.999s21.333 -105 42 -149s49.667 -79.667 87 -107s86.333 -41 147 -41zM1565 25c0 -48 -3.83496 -97.833 -11.502 -149.5s-21.834 -102.334 -42.501 -152.001
s-49.167 -97 -85.5 -142s-83.5 -84.333 -141.5 -118s-128.167 -60.5 -210.5 -80.5s-179.5 -30 -291.5 -30c-47.333 0 -97.166 3.83301 -149.499 11.5s-104 19.667 -155 36s-99.667 37.166 -146 62.499s-87.666 56.166 -123.999 92.499s-66 78 -89 125
s-36.5 100.167 -40.5 159.5h438c9.33301 -38.667 24.5 -69.834 45.5 -93.501s45.5 -41.834 73.5 -54.501s58 -21.167 90 -25.5s63.333 -6.5 94 -6.5c92.667 0 162.334 31 209.001 93s70 148.333 70 259v115c-28.667 -32.667 -58.5 -59 -89.5 -79s-63 -35.333 -96 -46
s-67.167 -17.834 -102.5 -21.501s-72 -5.5 -110 -5.5c-111.333 0 -209 18.833 -293 56.5s-154 90.334 -210 158.001s-98 148.334 -126 242.001s-42 196.834 -42 309.501c0 106.667 15.667 205.834 47 297.501s76 171.334 134 239.001s128.333 120.834 211 159.501
s175.667 58 279 58c82 0 155.5 -11.5 220.5 -34.5s124.167 -62.167 177.5 -117.5v111h467v-1429z" />
    <glyph glyph-name="h" unicode="h" horiz-adv-x="1647" 
d="M102 1999l463.001 -0.00195312v-672c30 32.667 61.333 59.834 94 81.501s66.5 38.834 101.5 51.501s70.5 21.667 106.5 27s72 8 108 8c106.667 0 196.5 -14.5 269.5 -43.5s132 -69.833 177 -122.5s77.333 -116 97 -190s29.5 -156 29.5 -246v-893h-483v819
c0 60.667 -3 112.5 -9 155.5s-17 78.167 -33 105.5s-37.833 47.333 -65.5 60s-62.834 19 -105.501 19c-84.667 0 -150.167 -34 -196.5 -102s-69.5 -169 -69.5 -303v-754h-484v1999z" />
    <glyph glyph-name="i" unicode="i" horiz-adv-x="729" 
d="M123 1630v369h483v-369h-483zM606 1454v-1454h-483v1454h483z" />
    <glyph glyph-name="j" unicode="j" horiz-adv-x="729" 
d="M627 -193c0 -76.667 -12.001 -141.333 -36.001 -194s-56.833 -95.167 -98.5 -127.5s-90.667 -55.666 -147 -69.999s-116.833 -21.5 -181.5 -21.5c-26.667 0 -58 1.66699 -94 5s-71.667 7 -107 11v365l60.5 -7.5l32 -4c7.66699 -1 14.167 -1.5 19.5 -1.5h23
c16.667 0 28.334 7.16699 35.001 21.5s10 40.166 10 77.499v1593h484v-1647zM142.999 1630v369h484v-369h-484z" />
    <glyph glyph-name="k" unicode="k" horiz-adv-x="1470" 
d="M582 1999v-901l389 356h561l-590 -536l627 -918h-488l-442 635l-57 -53v-582h-480v1999h480z" />
    <glyph glyph-name="l" unicode="l" horiz-adv-x="725" 
d="M602 1999v-1999h-479v1999h479z" />
    <glyph glyph-name="m" unicode="m" horiz-adv-x="2507" 
d="M102 1454l459.001 0.00390625v-131c55.333 55.333 116 97.166 182 125.499s142 42.5 228 42.5c44.667 0 88.167 -4.33301 130.5 -13s81.833 -22.667 118.5 -42s69.834 -44.333 99.501 -75s54.167 -68 73.5 -112c21.333 32 47.166 62.5 77.499 91.5s64.5 54.667 102.5 77
s79.333 40.166 124 53.499s92 20 142 20c86 0 163.833 -9.33301 233.5 -28s129 -48.834 178 -90.501s86.833 -95.5 113.5 -161.5s40 -146 40 -240v-971h-479v823c0 48 -1.33301 92.333 -4 133s-10.5 75.834 -23.5 105.501s-33.333 52.667 -61 69s-66.5 24.5 -116.5 24.5
c-47.333 0 -85.5 -9.5 -114.5 -28.5s-51.833 -44.333 -68.5 -76s-27.834 -68.334 -33.501 -110.001s-8.5 -84.834 -8.5 -129.501v-811h-483v815c0 42 -0.666992 83.333 -2 124s-8 77 -20 109s-31.833 57.833 -59.5 77.5s-67.5 29.5 -119.5 29.5
c-19.333 0 -42.166 -3.66699 -68.499 -11s-51.333 -22.166 -75 -44.499s-43.834 -53.833 -60.501 -94.5s-25 -94.334 -25 -161.001v-844h-480v1454z" />
    <glyph glyph-name="n" unicode="n" horiz-adv-x="1651" 
d="M102 1454l463.001 0.000976562v-131c30 32.667 61 60 93 82s65.167 39.667 99.5 53s69.666 22.833 105.999 28.5s73.5 8.5 111.5 8.5c106.667 0 196.5 -14.5 269.5 -43.5s132 -69.833 177 -122.5s77.333 -116 97 -190s29.5 -156 29.5 -246v-893h-483v819
c0 60.667 -3.33301 112.167 -10 154.5s-18.334 77 -35.001 104s-38.667 46.667 -66 59s-61.333 18.5 -102 18.5c-45.333 0 -84.666 -7.5 -117.999 -22.5s-61 -38.333 -83 -70s-38.333 -72.334 -49 -122.001s-16 -109.167 -16 -178.5v-762h-484v1454z" />
    <glyph glyph-name="o" unicode="o" horiz-adv-x="1647" 
d="M33 725c0 118.667 18.668 225.335 56.001 320.002s90.5 175 159.5 241s152 116.667 249 152s205.5 53 325.5 53c122.667 0 233.167 -17.667 331.5 -53s181.833 -86 250.5 -152s121.334 -146.333 158.001 -241s55 -201.334 55 -320.001
c0 -120 -18.833 -227.333 -56.5 -322s-91.334 -174.834 -161.001 -240.501s-153.334 -116 -251.001 -151s-206.5 -52.5 -326.5 -52.5s-228.5 17.333 -325.5 52s-180 84.667 -249 150s-122.167 145.5 -159.5 240.5s-56 202.833 -56 323.5zM516.001 725.001
c0 -55.333 5.66699 -109.001 17 -161.001s29.166 -98.333 53.499 -139s56 -73.167 95 -97.5s86.167 -36.5 141.5 -36.5s102.833 11.667 142.5 35s72.334 54.833 98.001 94.5s44.667 85.834 57 138.501s18.5 108 18.5 166c0 55.333 -5.33301 109 -16 161
s-28.334 98.333 -53.001 139s-57.167 73.167 -97.5 97.5s-90.166 36.5 -149.499 36.5c-53.333 0 -99.333 -12.167 -138 -36.5s-70.5 -56.833 -95.5 -97.5s-43.5 -87 -55.5 -139s-18 -105.667 -18 -161z" />
    <glyph glyph-name="p" unicode="p" horiz-adv-x="1700" 
d="M573 721c0 -59.333 4.5 -116.832 13.5 -172.499s25 -105 48 -148s54 -77.5 93 -103.5s88.833 -39 149.5 -39c40.667 0 76.667 6.33301 108 19s58.5 30 81.5 52s42.333 48 58 78s28.167 62.333 37.5 97s16 70.834 20 108.501s6 75.167 6 112.5
c0 56 -6.16699 111.833 -18.5 167.5s-31.333 105.667 -57 150s-58 80.333 -97 108s-85.167 41.5 -138.5 41.5c-57.333 0 -105.5 -13.167 -144.5 -39.5s-70.333 -61.333 -94 -105s-40.5 -93.834 -50.5 -150.501s-15 -115.334 -15 -176.001zM565 1331
c53.333 61.333 114.002 103.997 182.002 127.997s144 36 228 36c110.667 0 209.167 -19.833 295.5 -59.5s159.166 -94.5 218.499 -164.5s104.5 -152.667 135.5 -248s46.5 -198.666 46.5 -309.999c0 -107.333 -15.667 -207.166 -47 -299.499s-76.5 -172.5 -135.5 -240.5
s-131.167 -121.333 -216.5 -160s-181.666 -58 -288.999 -58c-32.667 0 -66.334 2.33301 -101.001 7s-69.167 12.667 -103.5 24s-67.833 26.333 -100.5 45s-63.334 42.334 -92.001 71.001v-647h-484v1999h463v-123z" />
    <glyph glyph-name="q" unicode="q" horiz-adv-x="1700" 
d="M1126 721c0 60.667 -4.99902 119.333 -14.999 176s-26.833 106.834 -50.5 150.501s-54.834 78.667 -93.501 105s-86.667 39.5 -144 39.5c-53.333 0 -99.5 -13.833 -138.5 -41.5s-71.333 -63.667 -97 -108s-44.667 -94.333 -57 -150s-18.5 -111.5 -18.5 -167.5
c0 -37.333 2 -74.833 6 -112.5s10.667 -73.834 20 -108.501s21.833 -67 37.5 -97s35 -56 58 -78s50.167 -39.333 81.5 -52s67.333 -19 108 -19c60.667 0 110.5 13 149.5 39s69.833 60.5 92.5 103.5s38.5 92.333 47.5 148s13.5 113.167 13.5 172.5zM1135 1454
l462.002 0.00292969v-1999h-483v647c-28.667 -28.667 -59.334 -52.334 -92.001 -71.001s-66.167 -33.667 -100.5 -45s-68.833 -19.333 -103.5 -24s-68.334 -7 -101.001 -7c-107.333 0 -203.666 19.333 -288.999 58s-157.5 92 -216.5 160s-104.167 148.167 -135.5 240.5
s-47 192.166 -47 299.499c0 111.333 15.5 214.666 46.5 309.999s76.167 178 135.5 248s132.166 124.833 218.499 164.5s184.833 59.5 295.5 59.5c84 0 160 -12 228 -36s128.667 -66.667 182 -128v123z" />
    <glyph glyph-name="r" unicode="r" horiz-adv-x="1049" 
d="M569 1454l0.00195312 -155.999c53.333 57.333 118.5 103 195.5 137s164.833 50 263.5 48v-410c-60.667 3.33301 -113.834 0.666016 -159.501 -8.00098s-85 -22.5 -118 -41.5s-60.333 -42.5 -82 -70.5s-38.834 -59 -51.501 -93s-21.667 -70.833 -27 -110.5
s-8 -80.5 -8 -122.5v-627h-480v1454h467z" />
    <glyph glyph-name="s" unicode="s" horiz-adv-x="1479" 
d="M487 471c1.33301 -40 9.33008 -73.665 23.9971 -100.998s34 -49.166 58 -65.499s51.667 -28.166 83 -35.499s64 -11 98 -11c26.667 0 52.834 2.66699 78.501 8s48.834 14.166 69.501 26.499s37.334 28.5 50.001 48.5s19 44.333 19 73
c0 25.333 -7.83301 47.166 -23.5 65.499s-40 35 -73 50s-75.167 29 -126.5 42s-112.333 27.167 -183 42.5c-38 8 -76.833 17.833 -116.5 29.5s-78 25.5 -115 41.5s-71.833 34.5 -104.5 55.5s-61.167 45.167 -85.5 72.5s-43.5 58 -57.5 92s-21 72.333 -21 115
c0 62.667 9 117.667 27 165s42.833 88.166 74.5 122.499s68.834 62.833 111.501 85.5s88.667 40.667 138 54s101 22.666 155 27.999s108 8 162 8c86 0 168.167 -7.33301 246.5 -22s148.166 -39.834 209.499 -75.501s111.5 -82.834 150.5 -141.501s62.167 -132 69.5 -220
h-455c-6 59.333 -28.333 101.5 -67 126.5s-92.667 37.5 -162 37.5c-22.667 0 -44.667 -1.83301 -66 -5.5s-40.5 -9.66699 -57.5 -18s-30.667 -19 -41 -32s-15.5 -28.833 -15.5 -47.5c0 -27.333 10.5 -50.5 31.5 -69.5s49.833 -35.667 86.5 -50s79.667 -27.333 129 -39
l158 -37.5c38.667 -8.66699 78 -19 118 -31s78.5 -26.333 115.5 -43s71.667 -35.834 104 -57.501s60.5 -46.667 84.5 -75s43 -60.333 57 -96s21 -75.5 21 -119.5c0 -67.333 -9 -126.666 -27 -177.999s-43.167 -95.666 -75.5 -132.999s-70.5 -68.333 -114.5 -93
s-91.833 -44.5 -143.5 -59.5s-106.5 -25.5 -164.5 -31.5s-116.667 -9 -176 -9c-89.333 0 -176 8.66699 -260 26s-159.167 45.833 -225.5 85.5s-120.333 91.834 -162 156.501s-64.5 144.667 -68.5 240h458z" />
    <glyph glyph-name="t" unicode="t" horiz-adv-x="918" 
d="M856 1454l0.000976562 -287.001h-188v-729c0 -9.33301 1.33301 -19 4 -29s7.16699 -19.333 13.5 -28s14.833 -15.667 25.5 -21s23.667 -8 39 -8h147v-352h-254c-74 0 -139.167 5 -195.5 15s-103.833 28.333 -142.5 55s-67.834 63.334 -87.501 110.001
s-29.5 106.667 -29.5 180v807h-143v287h143v430h480v-430h188z" />
    <glyph glyph-name="u" unicode="u" horiz-adv-x="1675" 
d="M1561 0l-463.005 -0.00195312v119c-26.667 -30 -56.167 -55.167 -88.5 -75.5s-66.166 -36.666 -101.499 -48.999s-71.666 -21.333 -108.999 -27s-74.333 -8.5 -111 -8.5c-106.667 0 -196.5 14.5 -269.5 43.5s-132 69.833 -177 122.5s-77.333 116 -97 190
s-29.5 156 -29.5 246v893h483v-819c0 -57.333 3.83301 -107 11.5 -149s19.834 -76.833 36.501 -104.5s38.5 -48.334 65.5 -62.001s60.167 -20.5 99.5 -20.5c46.667 0 86.834 8.66699 120.501 26s61.334 42.833 83.001 76.5s37.5 74.834 47.5 123.501s15 104.334 15 167.001
v762h484v-1454z" />
    <glyph glyph-name="v" unicode="v" horiz-adv-x="1548" 
d="M1020 0h-488l-524 1454h508l266 -844l271 844h487z" />
    <glyph glyph-name="w" unicode="w" horiz-adv-x="2355" 
d="M1868 0h-410l-278 979h-4l-271 -979h-413l-484 1454h504l225 -815l209 815h471l209 -807l229 807h492z" />
    <glyph glyph-name="x" unicode="x" horiz-adv-x="1520" 
d="M1008 762l524 -762h-508l-270 397l-267 -397h-499l516 754l-484 700h521l217 -332l221 332h508z" />
    <glyph glyph-name="y" unicode="y" horiz-adv-x="1597" 
d="M975 -238c-21.333 -59.333 -48.667 -110.167 -82 -152.5s-72.833 -77 -118.5 -104s-97.5 -46.833 -155.5 -59.5s-122.333 -19 -193 -19c-41.333 0 -82.5 1.66699 -123.5 5s-83.167 7 -126.5 11v360l119 -12.5c40 -4.33301 79.667 -5.5 119 -3.5c36 4 63.833 15 83.5 33
s33 40 40 66s8.66699 54.333 5 85s-11.167 60.667 -22.5 90l-512 1393h504l295 -917l291 917h491z" />
    <glyph glyph-name="z" unicode="z" horiz-adv-x="1462" 
d="M106 299l627 815h-594v340h1200v-295l-634 -819h655v-340h-1254v299z" />
    <glyph glyph-name="braceleft" unicode="{" horiz-adv-x="1090" 
d="M844 1757c-9.33301 0 -17.166 -4.33594 -23.499 -13.0029s-11.333 -20 -15 -34s-6.33398 -30 -8.00098 -48s-2.5 -36.667 -2.5 -56v-480c0 -40 -4.66699 -78.167 -14 -114.5s-21.333 -70.333 -36 -102s-31 -60.667 -49 -87s-35.667 -49.166 -53 -68.499
c20.667 -16.667 40.167 -36 58.5 -58s34.5 -48.333 48.5 -79s25 -66.334 33 -107.001s12 -87.667 12 -141v-480c0 -17.333 0.833008 -34.5 2.5 -51.5s4.33398 -32.333 8.00098 -46s8.66699 -24.667 15 -33s14.166 -12.5 23.499 -12.5h188v-373h-327
c-44 0 -89.333 9.5 -136 28.5s-89.167 47.333 -127.5 85s-69.666 84.667 -93.999 141s-36.5 121.833 -36.5 196.5v504c0 36.667 -6 69.667 -18 99s-28.333 54.166 -49 74.499s-44.834 36 -72.501 47s-57.5 16.5 -89.5 16.5v365c32 0 61.833 6.16699 89.5 18.5
s51.834 29.333 72.501 51s37 46.834 49 75.501s18 59.334 18 92.001v508c0 72.667 12.167 137.334 36.5 194.001s55.666 104.334 93.999 143.001s80.833 68 127.5 88s92 30 136 30h327v-373h-188z" />
    <glyph glyph-name="bar" unicode="|" horiz-adv-x="696" 
d="M573 2200v-2790h-450v2790h450z" />
    <glyph glyph-name="braceright" unicode="}" horiz-adv-x="1090" 
d="M57 1757l-0.000976562 373.003h328c44 0 89.167 -10 135.5 -30s88.666 -49.333 126.999 -88s69.666 -86.334 93.999 -143.001s36.5 -121.334 36.5 -194.001v-508c0 -32.667 6 -63.334 18 -92.001s28.5 -53.834 49.5 -75.501s45.333 -38.667 73 -51s57.5 -18.5 89.5 -18.5
v-365c-32 0 -61.833 -5.5 -89.5 -16.5s-52 -26.667 -73 -47s-37.5 -45.166 -49.5 -74.499s-18 -62.333 -18 -99v-504c0 -74.667 -12.167 -140.167 -36.5 -196.5s-55.666 -103.333 -93.999 -141s-80.666 -66 -126.999 -85s-91.5 -28.5 -135.5 -28.5h-328v373h189
c9.33301 0 17.166 4.16699 23.499 12.5s11.333 19.333 15 33s6.33398 29 8.00098 46s2.5 34.167 2.5 51.5v480c0 53.333 4 100.333 12 141s19 76.334 33 107.001s30.167 57 48.5 79s37.5 41.333 57.5 58c-17.333 19.333 -35 42.166 -53 68.499s-34.167 55.333 -48.5 87
s-26.166 65.667 -35.499 102s-14 74.5 -14 114.5v480c0 19.333 -0.833008 38 -2.5 56s-4.33398 34 -8.00098 48s-8.66699 25.333 -15 34s-14.166 13 -23.499 13h-189z" />
    <glyph glyph-name="asciitilde" unicode="~" horiz-adv-x="1667" 
d="M1581 733l-90.5029 -119.498c-29.667 -37.667 -62 -70.667 -97 -99s-74 -50.833 -117 -67.5s-93.167 -25 -150.5 -25c-28.667 0 -57.5 3.66699 -86.5 11s-58 16.666 -87 27.999s-57.667 24.166 -86 38.499l-84.5 41.5l-103 50c-29.333 14 -55.666 24 -78.999 30
s-44.666 7.66699 -63.999 5s-38.5 -10.5 -57.5 -23.5s-38.833 -32 -59.5 -57s-44.334 -56.5 -71.001 -94.5l-57 -82l-201 286c17.333 42.667 39.333 83.667 66 123s58.334 73.833 95.001 103.5s79 53.334 127 71.001s102.333 26.5 163 26.5c32 0 65 -4.33301 99 -13
s68 -19.667 102 -33s67.333 -28 100 -44l92 -45c38.667 -20 72.834 -35.333 102.501 -46s56.5 -16.334 80.5 -17.001s46 3.66602 66 12.999s39.667 24 59 44s39 45.333 59 76s42.333 67.334 67 110.001z" />
    <glyph glyph-name="uni00A0" unicode="&#xa0;" horiz-adv-x="496" 
 />
    <glyph glyph-name="cent" unicode="&#xa2;" horiz-adv-x="1634" 
d="M1167 1040c-8 56 -28.501 102.165 -61.501 138.498s-75.167 62.5 -126.5 78.5v-933c56 20.667 100.833 55.334 134.5 104.001s55.834 112 66.501 190h389c-8 -86 -28.333 -164.5 -61 -235.5s-74.834 -133 -126.501 -186s-111.667 -96.167 -180 -129.5
s-142.5 -55.666 -222.5 -66.999v-299h-254v299c-104.667 13.333 -197.167 41.5 -277.5 84.5s-147.833 98.5 -202.5 166.5s-96.167 146.833 -124.5 236.5s-42.5 187.834 -42.5 294.501c0 107.333 14.167 206.666 42.5 297.999s69.833 171.666 124.5 240.999
s122.167 126 202.5 170s172.833 72.667 277.5 86v274h254v-270c72.667 -10 142 -29.333 208 -58s124.833 -65.667 176.5 -111s94.334 -99.166 128.001 -161.499s55.167 -132.5 64.5 -210.5h-389zM470.999 781.998c0 -50 4.83301 -98.6689 14.5 -146.002
s24.667 -91.166 45 -131.499s46.5 -75.833 78.5 -106.5s70.667 -54 116 -70v925c-46 -16 -85.167 -40 -117.5 -72s-58.5 -69 -78.5 -111s-34.667 -87.667 -44 -137s-14 -99.666 -14 -150.999z" />
    <glyph glyph-name="sterling" unicode="&#xa3;" horiz-adv-x="1675" 
d="M180 1118c-22.667 45.333 -40.6689 94.668 -54.002 148.001s-20 112 -20 176c0 62 9.16699 119.833 27.5 173.5s43.833 102.667 76.5 147s71.667 83.666 117 117.999s95.166 63.333 149.499 87s112.333 41.667 174 54s124.834 18.5 189.501 18.5
c116 0 220.5 -11.833 313.5 -35.5s172.333 -64 238 -121s115.834 -132.667 150.501 -227s51.667 -212.166 51 -353.499h-471c-3.33301 74.667 -12 135.834 -26 183.501s-32.667 85.167 -56 112.5s-50.666 46.166 -81.999 56.499s-65.333 15.5 -102 15.5
c-38 0 -73.167 -5.5 -105.5 -16.5s-60.333 -26.833 -84 -47.5s-42.334 -45.834 -56.001 -75.501s-20.5 -63.5 -20.5 -101.5c0 -59.333 9.66699 -114.5 29 -165.5s42.333 -99.833 69 -146.5h385v-278h-254c4 -16.667 7.83301 -34.5 11.5 -53.5s5.5 -36.833 5.5 -53.5
c0 -34 -4.16699 -67.5 -12.5 -100.5s-19.166 -65 -32.499 -96s-28.333 -60.333 -45 -88s-33.334 -52.834 -50.001 -75.501c45.333 0 90.833 -4 136.5 -12s93.167 -19 142.5 -33l65.5 -21c18.333 -6 35 -10.667 50 -14s29.167 -5.83301 42.5 -7.5s27.666 -2.5 42.999 -2.5
c28.667 0 62 12.5 100 37.5s79.667 60.167 125 105.5l196 -279c-43.333 -36 -84.333 -65.5 -123 -88.5s-76.5 -41.333 -113.5 -55s-73.667 -23.167 -110 -28.5s-73.5 -8 -111.5 -8c-53.333 0 -103 5.33301 -149 16s-93.333 23 -142 37
c-45.333 12.667 -87.5 23.5 -126.5 32.5s-80.167 13.5 -123.5 13.5c-41.333 0 -85.833 -11 -133.5 -33s-97.5 -49.333 -149.5 -82l-233 295c44 26.667 83.833 56.834 119.5 90.501s66.334 69.5 92.001 107.5s45.334 77.667 59.001 119s20.5 83 20.5 125
c0 22.667 -3.83301 47.5 -11.5 74.5s-17.5 52.833 -29.5 77.5h-295v278h143z" />
    <glyph glyph-name="yen" unicode="&#xa5;" horiz-adv-x="2060" 
d="M1294 709h484v-283h-484v-426h-520v426h-475v283h475v102l-33 49h-442v279h262l-557 860h574l466 -770l455 770h557l-553 -860h275v-279h-455l-29 -49v-102z" />
    <glyph glyph-name="copyright" unicode="&#xa9;" horiz-adv-x="2216" 
d="M66 987c0 96.667 12.667 189.499 38 278.499s60.833 171.833 106.5 248.5s100.334 146.334 164.001 209.001s134.167 116.167 211.5 160.5s160.333 78.666 249 102.999s180.334 36.5 275.001 36.5s186.167 -12.167 274.5 -36.5s171 -58.666 248 -102.999
s147.333 -97.833 211 -160.5s118.167 -132.334 163.5 -209.001s80.5 -159.5 105.5 -248.5s37.5 -181.833 37.5 -278.5c0 -99.333 -12.5 -194 -37.5 -284s-60.167 -173.333 -105.5 -250s-99.833 -146 -163.5 -208s-134 -114.833 -211 -158.5s-159.667 -77.167 -248 -100.5
s-179.833 -35 -274.5 -35s-186.334 11.667 -275.001 35s-171.667 56.833 -249 100.5s-147.833 96.5 -211.5 158.5s-118.334 131.333 -164.001 208s-81.167 159.834 -106.5 249.501s-38 184.5 -38 284.5zM1659 859.999c-15.333 -78 -38.998 -146.5 -70.998 -205.5
s-70.833 -108.5 -116.5 -148.5s-97.334 -70.167 -155.001 -90.5s-119.834 -30.5 -186.501 -30.5c-92 0 -175.167 14.333 -249.5 43s-137.5 69.167 -189.5 121.5s-92.167 115.5 -120.5 189.5s-42.5 156.667 -42.5 248c0 92 14.667 174.833 44 248.5s70.166 136 122.499 187
s114.833 90.167 187.5 117.5s152.667 41 240 41c70.667 0 135.667 -9.5 195 -28.5s112 -47.333 158 -85s84.667 -85 116 -142s54 -123.5 68 -199.5h-291c-6 32 -15.5 61.167 -28.5 87.5s-29.5 49.166 -49.5 68.499s-43.667 34.333 -71 45s-58.333 16 -93 16
c-51.333 0 -95.833 -8.33301 -133.5 -25s-69.167 -40.334 -94.5 -71.001s-44.166 -67.667 -56.499 -111s-18.5 -91.666 -18.5 -144.999c0 -49.333 6.66699 -95.666 20 -138.999s32.833 -81.5 58.5 -114.5s57.667 -59 96 -78s82.5 -28.5 132.5 -28.5
c68.667 0 122.167 19.667 160.5 59s62.833 96 73.5 170h295zM348.002 986.999c0 -114 18.998 -219.332 56.998 -315.999s90.833 -180.5 158.5 -251.5s148 -126.5 241 -166.5s194.833 -60 305.5 -60c106.667 0 206.334 20 299.001 60s173.334 95.5 242.001 166.5
s122.667 154.833 162 251.5s59 202 59 316c0 76 -9 148.167 -27 216.5s-43.333 131.666 -76 189.999s-72 111 -118 158s-97.333 87 -154 120s-117.667 58.333 -183 76s-133.333 26.5 -204 26.5c-110.667 0 -212.5 -19.667 -305.5 -59s-173.333 -94 -241 -164
s-120.5 -153 -158.5 -249s-57 -201 -57 -315z" />
    <glyph glyph-name="guillemotleft" unicode="&#xab;" horiz-adv-x="1516" 
d="M131 950l545 430v-393l-262 -209l262 -200v-402l-545 434v340zM795 950l544 430v-393l-262 -209l262 -200v-402l-544 434v340z" />
    <glyph glyph-name="registered" unicode="&#xae;" horiz-adv-x="2216" 
d="M66 987c0 96.667 12.667 189.499 38 278.499s60.833 171.833 106.5 248.5s100.334 146.334 164.001 209.001s134.167 116.167 211.5 160.5s160.333 78.666 249 102.999s180.334 36.5 275.001 36.5s186.167 -12.167 274.5 -36.5s171 -58.666 248 -102.999
s147.333 -97.833 211 -160.5s118.167 -132.334 163.5 -209.001s80.5 -159.5 105.5 -248.5s37.5 -181.833 37.5 -278.5c0 -99.333 -12.5 -194 -37.5 -284s-60.167 -173.333 -105.5 -250s-99.833 -146 -163.5 -208s-134 -114.833 -211 -158.5s-159.667 -77.167 -248 -100.5
s-179.833 -35 -274.5 -35s-186.334 11.667 -275.001 35s-171.667 56.833 -249 100.5s-147.833 96.5 -211.5 158.5s-118.334 131.333 -164.001 208s-81.167 159.834 -106.5 249.501s-38 184.5 -38 284.5zM1069 1065c28.667 0 56.335 1.16699 83.002 3.5s50.167 8 70.5 17
s36.666 22.167 48.999 39.5s18.5 41 18.5 71c0 21.333 -5.33301 39 -16 53s-24.5 25 -41.5 33s-35.833 13.5 -56.5 16.5s-41.334 4.5 -62.001 4.5h-156v-238h111zM1143 1532c138.667 0 245 -27.999 319 -83.999s111 -141.333 111 -256c0 -86 -20.833 -156.333 -62.5 -211
s-97.5 -92.334 -167.5 -113.001l275 -430h-311l-263 402h-86v-402h-286v1094h471zM348.001 987c0 -114 18.998 -219.332 56.998 -315.999s90.833 -180.5 158.5 -251.5s148 -126.5 241 -166.5s194.833 -60 305.5 -60c106.667 0 206.334 20 299.001 60
s173.334 95.5 242.001 166.5s122.667 154.833 162 251.5s59 202 59 316c0 76 -9 148.167 -27 216.5s-43.333 131.666 -76 189.999s-72 111 -118 158s-97.333 87 -154 120s-117.667 58.333 -183 76s-133.333 26.5 -204 26.5c-110.667 0 -212.5 -19.667 -305.5 -59
s-173.333 -94 -241 -164s-120.5 -153 -158.5 -249s-57 -201 -57 -315z" />
    <glyph glyph-name="guillemotright" unicode="&#xbb;" horiz-adv-x="1516" 
d="M721 610l-545 -434v402l262 200l-262 209v393l545 -430v-340zM1384 610l-544 -434v402l262 200l-262 209v393l544 -430v-340z" />
    <glyph glyph-name="onequarter" unicode="&#xbc;" horiz-adv-x="2458" 
d="M2028 1999l-1160 -1999h-315l1159 1999h316zM1933 483v295l-225 -295h225zM2384 483v-237h-156v-246h-295v246h-516v221l574 758h237v-742h156zM152 1737c46 2 88.6689 6.16602 128.002 12.499s74.333 17.5 105 33.5s56.5 37.833 77.5 65.5s36.167 64.167 45.5 109.5h246
v-1225h-295v819c-22.667 -9.33301 -45.167 -17 -67.5 -23s-45.833 -11.167 -70.5 -15.5s-50.834 -7.66602 -78.501 -9.99902s-57.834 -3.83301 -90.501 -4.5v238z" />
    <glyph glyph-name="onehalf" unicode="&#xbd;" horiz-adv-x="2458" 
d="M1483 717c0 72.667 10.6719 139.831 32.0049 201.498s51.5 114.834 90.5 159.501s86.167 79.667 141.5 105s117.333 38 186 38c59.333 0 116.833 -8.83301 172.499 -26.5c55.667 -17.667 105 -43 148 -76s77.5 -73.333 103.5 -121s39 -101.5 39 -161.5
c0 -61.333 -11.667 -114.666 -35 -159.999s-53.5 -85.5 -90.5 -120.5s-78.667 -66.667 -125 -95l-138.5 -83.5l-94.5 -60c-32.333 -21.333 -64.833 -46.333 -97.5 -75h544v-242h-905c6 84.667 20 156.5 42 215.5s49.5 109.333 82.5 151s70.5 77.167 112.5 106.5
s86 57.333 132 84c42.667 23.333 80.667 45.5 114 66.5s61.166 42.167 83.499 63.5s39.333 44 50.999 68c11.667 24 17.5 51 17.5 81c0 21.333 -4.16699 40.333 -12.5 57s-20 30.5 -35 41.5s-32.667 19 -53 24s-42.833 6.5 -67.5 4.5
c-28.667 -2 -52.334 -9.66699 -71.001 -23s-33.334 -30.833 -44.001 -52.5s-18 -47 -22 -76s-6 -60.5 -6 -94.5h-295zM1946 1999l-1160 -1999h-315l1159 1999h316zM152.005 1737c46 2 88.6689 6.16602 128.002 12.499s74.333 17.5 105 33.5s56.5 37.833 77.5 65.5
s36.167 64.167 45.5 109.5h246v-1225h-295v819c-22.667 -9.33301 -45.167 -17 -67.5 -23s-45.833 -11.167 -70.5 -15.5s-50.834 -7.66602 -78.501 -9.99902s-57.834 -3.83301 -90.501 -4.5v238z" />
    <glyph glyph-name="threequarters" unicode="&#xbe;" horiz-adv-x="2458" 
d="M582 1462c19.333 0 38.665 3.16309 57.998 9.49609s36.833 15.5 52.5 27.5s28.334 26.333 38.001 43s14.5 35 14.5 55c0 24 -4.16699 43.333 -12.5 58s-19.5 26.334 -33.5 35.001s-30.167 14.5 -48.5 17.5s-37.166 4.5 -56.499 4.5c-51.333 0 -89.5 -15.333 -114.5 -46
s-37.5 -74 -37.5 -130h-295c5.33301 64.667 19.166 123 41.499 175s52.5 96.333 90.5 133s83.333 64.834 136 84.501s112.334 29.5 179.001 29.5c61.333 0 119.333 -7.66699 174 -23s102.5 -38.166 143.5 -68.499s73.333 -68 97 -113s35.5 -97.167 35.5 -156.5
c0 -38.667 -10 -76.5 -30 -113.5s-45.333 -70.167 -76 -99.5c51.333 -28.667 90.833 -67.667 118.5 -117s41.5 -103 41.5 -161c0 -65.333 -14.5 -122.666 -43.5 -171.999s-67 -90.333 -114 -123s-100.5 -57.167 -160.5 -73.5s-120.667 -24.5 -182 -24.5
c-60.667 0 -119.5 7.5 -176.5 22.5s-107.667 39.167 -152 72.5s-79.833 76.333 -106.5 129s-40 117 -40 193h299c2 -61.333 17.833 -105.333 47.5 -132s72.5 -40 128.5 -40c24.667 0 48.5 2.5 71.5 7.5s43.5 13 61.5 24s32.5 25.333 43.5 43s16.5 39.5 16.5 65.5
c0 30 -5.5 55.5 -16.5 76.5s-25.5 38.333 -43.5 52s-38.5 23.667 -61.5 30s-46.833 9.5 -71.5 9.5h-70v196h54zM1933 482.996v295l-225 -295h225zM2384 482.996v-237h-156v-246h-295v246h-516v221l574 758h237v-742h156zM2130 1999l-1159 -1999h-316l1160 1999h315z" />
    <glyph glyph-name="multiply" unicode="&#xd7;" horiz-adv-x="1614" 
d="M557 791l-233.5 250.5l-233.5 248.5l262 246l451 -483l454 483l263 -246l-467 -499l233 -249.5l234 -246.5l-263 -246l-454 483l-451 -483l-262 246z" />
    <glyph glyph-name="divide" unicode="&#xf7;" horiz-adv-x="1667" 
d="M1561 971v-357h-1455v357h1455zM602 221c0 32 6.16797 62.333 18.501 91s29 53.834 50 75.501s45.333 39 73 52s56.834 19.5 87.501 19.5c32 0 62.167 -6.5 90.5 -19.5s53.166 -30.333 74.499 -52s38.166 -46.834 50.499 -75.501s18.5 -59 18.5 -91
c0 -28.667 -6.16699 -56.334 -18.5 -83.001s-29 -50.167 -50 -70.5s-45.333 -36.666 -73 -48.999s-56.834 -18.5 -87.501 -18.5s-60.167 5.66699 -88.5 17s-53.166 27 -74.499 47s-38.5 43.5 -51.5 70.5s-19.5 55.833 -19.5 86.5zM602.001 1368
c0 32 6.16797 62.167 18.501 90.5s29 53.166 50 74.499s45.333 38.166 73 50.499s56.834 18.5 87.501 18.5c32 0 62.167 -6.16699 90.5 -18.5s53.166 -29.166 74.499 -50.499s38.166 -46.166 50.499 -74.499s18.5 -58.5 18.5 -90.5
c0 -30.667 -6.16699 -59.834 -18.5 -87.501s-29 -52 -50 -73s-45.333 -37.667 -73 -50s-56.834 -18.5 -87.501 -18.5s-60.167 6.16699 -88.5 18.5s-53.166 29 -74.499 50s-38.5 45.333 -51.5 73s-19.5 56.834 -19.5 87.501z" />
    <glyph glyph-name="kokaithai" unicode="&#xe01;" horiz-adv-x="1802" 
d="M852 1327c-54 0.666992 -99.8271 -4.8291 -137.494 -16.4961s-68.667 -26.5 -93 -44.5s-43.5 -37.667 -57.5 -59s-24.667 -41.333 -32 -60c17.333 -15.333 32.5 -31.5 45.5 -48.5s23.667 -35.5 32 -55.5s14.666 -42.333 18.999 -67s6.5 -52.334 6.5 -83.001v-893h-496
v905c0 18.667 -2 37.834 -6 57.501s-11.333 39.167 -22 58.5s-25.334 38.333 -44.001 57s-42.334 36 -71.001 52c12 47.333 29.5 94.666 52.5 141.999s52 92.666 87 135.999s76 83.666 123 120.999s100.167 69.833 159.5 97.5s125.166 49.5 197.499 65.5
s151.166 24 236.499 24c100.667 0 191.334 -8.66699 272.001 -26s152 -41.5 214 -72.5s115.167 -67.833 159.5 -110.5s80.5 -89.667 108.5 -141s48.667 -106 62 -164s20 -117.333 20 -178v-1024h-504v991c0 26 -1.83301 52.333 -5.5 79s-10 52.5 -19 77.5
s-21.333 48.333 -37 70s-35.834 40.667 -60.501 57s-54.334 29.166 -89.001 38.499s-75 14 -121 14z" />
    <glyph glyph-name="khokhaithai" unicode="&#xe02;" horiz-adv-x="1536" 
d="M524 0l-319 1343h-205v336h647l184 -852l189 852h516l-397 -1679h-615z" />
    <glyph glyph-name="khokhuatthai" unicode="&#xe03;" horiz-adv-x="1634" 
d="M164 545c0 67.333 3.16602 127.996 9.49902 181.996s18.833 104 37.5 150s44.5 89 77.5 129s76.167 80 129.5 120c13.333 9.33301 26.333 19.333 39 30l36.5 29.5l38.5 31.5c-5.33301 -2 -12.333 -4.16699 -21 -6.5s-17.5 -4.16602 -26.5 -5.49902s-17.5 -2.5 -25.5 -3.5
s-13.667 -1.5 -17 -1.5c-21.333 0 -47.333 2 -78 6s-62.834 12 -96.501 24s-67.167 29 -100.5 51s-63.166 50.667 -89.499 86s-47.833 78.5 -64.5 129.5s-25 111.833 -25 182.5h385c0 -22.667 1.66699 -44.5 5 -65.5s8.5 -39.667 15.5 -56s16.167 -29.5 27.5 -39.5
s25.333 -15 42 -15c16 0 30 4.5 42 13.5s21.833 21.5 29.5 37.5s13.334 34.667 17.001 56s5.5 44.333 5.5 69h389c0 -71.333 -0.333008 -135 -1 -191s-2.5 -106.5 -5.5 -151.5s-8.16699 -85.5 -15.5 -121.5s-17.5 -69.667 -30.5 -101s-29.5 -61.166 -49.5 -89.499
s-44.667 -57.166 -74 -86.499c-22.667 -22.667 -40.667 -47.834 -54 -75.501s-23.5 -56.667 -30.5 -87s-11.667 -61 -14 -92s-3.5 -60.833 -3.5 -89.5c0 -84 13.667 -148.667 41 -194s73.666 -68 138.999 -68c30.667 0 56.834 4.33301 78.501 13s39.5 22.5 53.5 41.5
s24.167 43.833 30.5 74.5s9.5 68 9.5 112v1106h500v-1134c0 -67.333 -8.83301 -128.666 -26.5 -183.999s-42 -104.666 -73 -147.999s-67.833 -81 -110.5 -113s-88.834 -58.5 -138.501 -79.5s-102 -36.5 -157 -46.5s-110.5 -15 -166.5 -15
c-85.333 0 -168.833 12.5 -250.5 37.5s-154.667 62 -219 111s-116.166 110.167 -155.499 183.5s-59 158 -59 254z" />
    <glyph glyph-name="khokhwaithai" unicode="&#xe04;" horiz-adv-x="1860" 
d="M610 0l-495.001 0.00292969v1012c0 61.333 6.33301 121.333 19 180s32.5 114 59.5 166s62 100 105 144s94.833 81.833 155.5 113.5s130.667 56.334 210 74.001s169.333 26.5 270 26.5c99.333 0 188.5 -8.83301 267.5 -26.5s148.5 -42.334 208.5 -74.001
s111.167 -69.5 153.5 -113.5s77 -92 104 -144s46.667 -107.333 59 -166s18.5 -118.667 18.5 -180v-1012h-500v1024c0 38.667 -4.33301 75.667 -13 111s-24.5 66.333 -47.5 93s-54.667 47.834 -95 63.501s-92.166 23.5 -155.499 23.5s-115.833 -7.83301 -157.5 -23.5
s-74.834 -36.834 -99.501 -63.501s-42 -57.667 -52 -93s-15 -72.333 -15 -111v-119c57.333 49.333 122 86.5 194 111.5s156.333 38.5 253 40.5v-361c-87.333 -3.33301 -159.666 -16.333 -216.999 -39s-103 -54.334 -137 -95.001s-58 -89.334 -72 -146.001
s-21 -120.334 -21 -191.001v-225z" />
    <glyph glyph-name="khokhonthai" unicode="&#xe05;" horiz-adv-x="1876" 
d="M1262 1085c0 29.333 -2.50098 60.999 -7.50098 94.999s-13.5 65.333 -25.5 94l-205 -131c-30.667 -18.667 -60 -28.5 -88 -29.5s-57.333 8.83301 -88 29.5l-205 127c-10 -31.333 -17.333 -63.166 -22 -95.499s-7 -62.166 -7 -89.499v-225
c57.333 48.667 122 85.667 194 111s156.333 39 253 41v-361c-87.333 -3.33301 -159.666 -16.333 -216.999 -39s-103 -54.334 -137 -95.001s-58 -89.334 -72 -146.001s-21 -120.334 -21 -191.001v-180h-499v1036c0 74.667 9.83301 147.5 29.5 218.5s51.5 136.333 95.5 196
s101.333 111.834 172 156.501s157.334 78.334 260.001 101.001l266 -176l258 172c105.333 -21.333 194 -54 266 -98s130.167 -95.5 174.5 -154.5s76.166 -124 95.499 -195s29 -144.5 29 -220.5v-1036h-499v1085v0z" />
    <glyph glyph-name="khorakhangthai" unicode="&#xe06;" horiz-adv-x="1815" 
d="M1004 1679l-0.000976562 -331.004c0 -49.333 -5 -94.666 -15 -135.999s-24 -79.666 -42 -114.999s-39.833 -68.166 -65.5 -98.499s-54.5 -58.833 -86.5 -85.5c-24 -19.333 -43.833 -36.833 -59.5 -52.5s-28.167 -32.5 -37.5 -50.5s-16 -38.333 -20 -61s-6 -51 -6 -85
c0 -43.333 6.16699 -82.833 18.5 -118.5s31.5 -66.167 57.5 -91.5s59.333 -45.166 100 -59.499s89.667 -21.5 147 -21.5c63.333 0 112.666 16.833 147.999 50.5s53 86.5 53 158.5v1097h504v-1077c0 -94 -11.833 -180.167 -35.5 -258.5s-61.667 -145.666 -114 -201.999
s-120.166 -100.166 -203.499 -131.499s-184.333 -47 -303 -47c-45.333 0 -88.666 5.66699 -129.999 17s-80.333 26.666 -117 45.999s-70.334 41.5 -101.001 66.5s-58 51.5 -82 79.5v-172h-446v610c0 44 1.16699 83 3.5 117s7 65 14 93s16.333 53.667 28 77s27 46 46 68
s41.833 44 68.5 66s58 45.667 94 71c18.667 13.333 34.5 25.333 47.5 36s24.5 20.5 34.5 29.5s18.833 17.833 26.5 26.5s15.167 17.667 22.5 27c-16.667 -4.66699 -31.667 -7.33398 -45 -8.00098s-28.333 -1 -45 -1c-21.333 0 -47 2.16699 -77 6.5s-61.5 12.5 -94.5 24.5
s-65.667 28.833 -98 50.5s-61.333 49.834 -87 84.501s-46.5 76.667 -62.5 126s-24 107.666 -24 174.999h398c0 -22.667 1.66699 -44.5 5 -65.5s8.5 -39.667 15.5 -56s16.167 -29.5 27.5 -39.5s25.333 -15 42 -15c16 0 30 4.5 42 13.5s21.833 21.5 29.5 37.5
s13.334 34.667 17.001 56s5.5 44.333 5.5 69h402z" />
    <glyph glyph-name="ngonguthai" unicode="&#xe07;" horiz-adv-x="1425" 
d="M758 356c2.66699 -10 6.99902 -18.168 12.999 -24.501s12 -9.5 18 -9.5s11.167 3.33301 15.5 10s6.5 17.667 6.5 33v974h-225v340h725v-1241c0 -60.667 -6.66699 -114.667 -20 -162s-32 -88.666 -56 -123.999s-52.667 -65.333 -86 -90s-70.166 -44.667 -110.499 -60
s-83.5 -26.333 -129.5 -33s-93.667 -10 -143 -10c-65.333 0 -124.5 7.66699 -177.5 23s-100 37.333 -141 66s-76.167 63.5 -105.5 104.5s-53.333 87.167 -72 138.5l-274 753h516z" />
    <glyph glyph-name="chochanthai" unicode="&#xe08;" horiz-adv-x="1655" 
d="M393 618l-164.003 -0.000976562v345h537l131 -398c16.667 46 33.5 95.333 50.5 148s32.5 103 46.5 151s25.5 90.833 34.5 128.5s14.167 64.5 15.5 80.5c6.66699 78.667 -9.16602 138.667 -47.499 180s-94.833 62 -169.5 62c-32.667 0 -63 -3.66699 -91 -11
s-53.167 -19.666 -75.5 -36.999s-41.5 -40.5 -57.5 -69.5s-28.667 -64.833 -38 -107.5h-495c16 92 45 176.333 87 253s95.667 142.667 161 198s141.833 98.333 229.5 129s185.167 46 292.5 46c52.667 0 106.834 -4.16699 162.501 -12.5s110 -22 163 -41
s103.167 -44 150.5 -75s88.833 -69 124.5 -114s63.834 -97.833 84.501 -158.5s31 -130.334 31 -209.001c0 -36.667 -5.5 -80.5 -16.5 -131.5s-26 -106.667 -45 -167s-41.167 -124.166 -66.5 -191.499l-81 -205.5l-88 -209l-88 -201.5h-557z" />
    <glyph glyph-name="chochingthai" unicode="&#xe09;" horiz-adv-x="1802" 
d="M70 1139c10 78.667 34.501 153.001 73.501 223.001s92.333 131.167 160 183.5s149.5 93.833 245.5 124.5s206.667 46 332 46c102 0 192.833 -8.66699 272.5 -26s149.5 -41.5 209.5 -72.5s110.667 -68 152 -111s74.833 -90.333 100.5 -142s44.167 -106.667 55.5 -165
s17 -118.166 17 -179.499v-1020h-488v131c-30 -26.667 -62.833 -50.334 -98.5 -71.001s-73 -38.167 -112 -52.5s-79.333 -25.333 -121 -33s-82.834 -11.5 -123.501 -11.5c-115.333 0 -213.333 14.833 -294 44.5s-146.167 71.667 -196.5 126s-86.833 119.833 -109.5 196.5
s-34 162 -34 256v352h499v-336c0 -36 6.16699 -67.833 18.5 -95.5s30 -51.167 53 -70.5s50.5 -34 82.5 -44s68 -15 108 -15c68 0 122.5 9.33301 163.5 28s72.5 44.5 94.5 77.5s36.5 72 43.5 117s10.5 93.5 10.5 145.5v287c0 38 -4.83301 74.5 -14.5 109.5
s-26.167 66 -49.5 93s-54.5 48.5 -93.5 64.5s-87.5 24 -145.5 24c-50 0 -93 -4.16699 -129 -12.5s-66.333 -20.5 -91 -36.5s-44 -35.333 -58 -58s-24 -48.334 -30 -77.001h-503z" />
    <glyph glyph-name="chochangthai" unicode="&#xe0a;" horiz-adv-x="1614" 
d="M885 1294c34 10 62.8359 25.0049 86.5029 45.0049s43 45.667 58 77s26 68.666 33 111.999s10.5 93.666 10.5 150.999h463c0 -64.667 -2.66699 -123.834 -8 -177.501s-15.833 -102.5 -31.5 -146.5s-37.667 -83.833 -66 -119.5s-65.5 -67.834 -111.5 -96.501
c40 -24.667 71.833 -55.167 95.5 -91.5s41.834 -74.333 54.501 -114s20.834 -78.5 24.501 -116.5s5.5 -71.333 5.5 -100v-193c0 -66.667 -9.33301 -127 -28 -181s-44.167 -101.833 -76.5 -143.5s-70.5 -77.667 -114.5 -108s-91.333 -55.333 -142 -75
s-103.5 -34.167 -158.5 -43.5s-109.833 -14 -164.5 -14c-56.667 0 -113.334 5 -170.001 15s-111.167 25.333 -163.5 46s-101 46.5 -146 77.5s-84.167 67.333 -117.5 109s-59.5 89 -78.5 142s-28.5 111.5 -28.5 175.5v152c0 43.333 2.5 81.333 7.5 114
s12.167 61.834 21.5 87.501s20.666 48.834 33.999 69.501s28.166 40.667 44.499 60s34 39.166 53 59.499s39.167 43.166 60.5 68.499c28.667 34.667 52.334 65 71.001 91s29 51.667 31 77c2 18 -2.33301 32.667 -13 44s-25.334 17 -44.001 17
c-15.333 0 -31.833 -1.33301 -49.5 -4s-38.334 -7.33398 -62.001 -14.001s-51.667 -15.167 -84 -25.5l-115.5 -38.5v340c38 14 75 26.167 111 36.5s69.5 18.833 100.5 25.5s59 11.667 84 15s45.167 5 60.5 5c68.667 0 132.667 -8 192 -24s110.166 -40.5 152.499 -73.5
s74.333 -74.667 96 -125s29.167 -109.833 22.5 -178.5v-9zM999.003 717.005c0 90 -18.833 163.333 -56.5 220s-96.5 91 -176.5 103l-94 -131c-15.333 -20.667 -27 -39.334 -35 -56.001s-13.833 -33 -17.5 -49s-6 -32.667 -7 -50s-1.83301 -36.666 -2.5 -57.999v-147
c0 -166.667 68.333 -250 205 -250c30.667 0 57.5 3.66699 80.5 11s42.167 19.833 57.5 37.5s26.833 41.167 34.5 70.5s11.5 66 11.5 110v189z" />
    <glyph glyph-name="sosothai" unicode="&#xe0b;" horiz-adv-x="1655" 
d="M966 1679c3.33301 -40 3.66406 -77.3359 0.99707 -112.003s-6.83398 -67.167 -12.501 -97.5s-12.167 -58.833 -19.5 -85.5s-14 -52.334 -20 -77.001c44.667 10 81.834 24.5 111.501 43.5s53.167 43.667 70.5 74s29.666 66.5 36.999 108.5s11 90.667 11 146h440
c0 -63.333 -2.5 -121.166 -7.5 -173.499s-15.167 -100 -30.5 -143s-37.333 -82.167 -66 -117.5s-66.334 -68 -113.001 -98c28 -16 52.167 -35 72.5 -57s37.333 -45.667 51 -71s24.834 -52 33.501 -80s15.167 -55.333 19.5 -82s7.33301 -52.5 9 -77.5s2.5 -47.167 2.5 -66.5
v-185c0 -67.333 -9.33301 -128.166 -28 -182.499s-44.5 -102.666 -77.5 -144.999s-71.667 -78.666 -116 -108.999s-92.166 -55.333 -143.499 -75s-104.833 -34.167 -160.5 -43.5s-111.167 -14 -166.5 -14c-56 0 -112.167 4.83301 -168.5 14.5s-110.5 24.834 -162.5 45.501
s-100.333 46.667 -145 78s-83.667 68.666 -117 111.999s-59.5 92.833 -78.5 148.5s-28.5 118.167 -28.5 187.5c0 67.333 3.16699 128 9.5 182s18.833 104 37.5 150s44.5 89 77.5 129s76.167 80 129.5 120l37 28l35 27l38 31c-5.33301 -2 -12.166 -3.83301 -20.499 -5.5
s-16.833 -3 -25.5 -4s-16.667 -1.66699 -24 -2s-12.666 -0.5 -15.999 -0.5c-21.333 0 -47.333 2 -78 6s-62.834 12 -96.501 24s-67.167 29 -100.5 51s-63.166 50.667 -89.499 86s-47.833 78.5 -64.5 129.5s-25 111.833 -25 182.5h405c0 -22.667 1.66699 -44.5 5 -65.5
s8.5 -39.667 15.5 -56s16.333 -29.5 28 -39.5s25.5 -15 41.5 -15c16.667 0 31 4.5 43 13.5s21.833 21.5 29.5 37.5s13.334 34.667 17.001 56s5.5 44.333 5.5 69h388zM1053 712.997c0 40.667 -4.16699 79.835 -12.5 117.502s-21.5 71.5 -39.5 101.5s-41 55.167 -69 75.5
s-61.333 34.166 -100 41.499c-12.667 -18.667 -26 -37.167 -40 -55.5s-29.333 -36.833 -46 -55.5c-20.667 -23.333 -36.334 -49 -47.001 -77s-18.334 -57 -23.001 -87s-7.16699 -60.333 -7.5 -91s-0.5 -60.334 -0.5 -89.001c0 -84.667 16.667 -149.5 50 -194.5
s82 -67.5 146 -67.5c32 0 59.833 4.33301 83.5 13s43.334 22.5 59.001 41.5s27.334 43.833 35.001 74.5s11.5 68 11.5 112v140z" />
    <glyph glyph-name="chochoethai" unicode="&#xe0c;" horiz-adv-x="2666" 
d="M1638 721c0 -53.333 2.6709 -101.173 8.00391 -143.506s15.833 -78.333 31.5 -108s37.667 -52.5 66 -68.5s65.5 -24 111.5 -24c26.667 0 51.667 3.83301 75 11.5s43.833 20.667 61.5 39s31.5 42.333 41.5 72s15 66.5 15 110.5v1069h504v-1077
c0 -101.333 -9.83301 -191.666 -29.5 -270.999s-51.667 -146.166 -96 -200.499s-102.166 -95.833 -173.5 -124.5c-71.333 -28.667 -158.666 -43 -262 -43c-38 0 -74.833 4.5 -110.5 13.5s-69.167 21 -100.5 36s-60.333 32.5 -87 52.5s-50.334 40.667 -71.001 62v-127h-487
v1028c0 38 -3.5 74.5 -10.5 109.5s-21 66 -42 93s-50.833 48.5 -89.5 64.5s-89.667 24 -153 24c-43.333 0 -81.166 -4.83301 -113.499 -14.5s-60.333 -22.5 -84 -38.5s-43.167 -34 -58.5 -54s-27 -40.333 -35 -61c17.333 -16.667 32.5 -33 45.5 -49s24 -33.5 33 -52.5
s15.833 -40.167 20.5 -63.5s7 -50.333 7 -81v-540h172v-365h-671v901c0 18.667 -2.16699 37.834 -6.5 57.501s-11.833 39 -22.5 58s-25.334 37.5 -44.001 55.5s-42.334 34.667 -71.001 50c11.333 48 28.666 95.833 51.999 143.5s52.166 93.334 86.499 137.001
s74.5 84.334 120.5 122.001s97.667 70.334 155 98.001s120.5 49.5 189.5 65.5s143.833 24 224.5 24c144 0 266.667 -19 368 -57s183.833 -89 247.5 -153s110 -138 139 -222s43.5 -172 43.5 -264v-295z" />
    <glyph glyph-name="yoyingthai" unicode="&#xe0d;" horiz-adv-x="2666" 
d="M2056 266c-43.333 -43.333 -91.999 -76.6719 -145.999 -100.005s-117.333 -35 -190 -35c-106.667 0 -197.167 14 -271.5 42s-134.666 69.167 -180.999 123.5s-80 121.166 -101 200.499s-31.5 170.333 -31.5 273v258c0 38.667 -4 75.834 -12 111.501s-23 67.167 -45 94.5
s-52.167 49 -90.5 65s-87.5 24 -147.5 24c-45.333 0 -84.333 -5.5 -117 -16.5s-60.5 -25 -83.5 -42s-42 -35.5 -57 -55.5s-27.5 -39.333 -37.5 -58c17.333 -16.667 32.833 -33 46.5 -49s25.167 -33.5 34.5 -52.5s16.5 -40.167 21.5 -63.5s7.5 -50.333 7.5 -81v-540h172v-365
h-671v901c0 18.667 -2.16699 37.834 -6.5 57.501s-11.833 39.167 -22.5 58.5s-25.334 38.333 -44.001 57s-42.334 36 -71.001 52c11.333 48 28.666 95.833 51.999 143.5s52.166 93.334 86.499 137.001s74.5 84.334 120.5 122.001s97.667 70.334 155 98.001
s120.5 49.5 189.5 65.5s143.833 24 224.5 24c96 0 182.5 -8.66699 259.5 -26s145 -41.5 204 -72.5s109.667 -68 152 -111s77 -90.333 104 -142s46.833 -106.667 59.5 -165s19 -118.166 19 -179.499v-279c0 -44 4 -81.167 12 -111.5s19.667 -54.666 35 -72.999
s33.833 -31.666 55.5 -39.999s46.5 -12.5 74.5 -12.5c50 0 90.333 10.333 121 31s54.167 49.334 70.5 86.001s27.333 80 33 130s8.5 104 8.5 162v766h504v-1454c0 -113.333 -15.333 -217.833 -46 -313.5s-77.167 -178.167 -139.5 -247.5s-141.166 -123.5 -236.499 -162.5
s-207.333 -58.5 -336 -58.5c-82 0 -161.833 11.667 -239.5 35s-147.667 58.666 -210 105.999s-114.5 107.333 -156.5 180s-68 158 -78 256h451c4.66699 -38 14.667 -69.333 30 -94s33.833 -44.167 55.5 -58.5s45.334 -24.5 71.001 -30.5s51.167 -9 76.5 -9
c57.333 0 103.166 8 137.499 24s60.833 37.667 79.5 65s30.834 58.666 36.501 93.999s8.5 72.666 8.5 111.999v143z" />
    <glyph glyph-name="dochadathai" unicode="&#xe0e;" horiz-adv-x="1868" 
d="M49 0l0.0078125 365.004h156v540c0 18.667 -2.16699 37.834 -6.5 57.501s-11.833 39.167 -22.5 58.5s-25.334 38.333 -44.001 57s-42.334 36 -71.001 52c11.333 47.333 28.666 94.666 51.999 141.999s52.5 92.666 87.5 135.999s76 83.666 123 120.999
s100.333 69.833 160 97.5s125.667 49.5 198 65.5s151.166 24 236.499 24c100.667 0 191.334 -8.66699 272.001 -26s152 -41.5 214 -72.5s115 -67.833 159 -110.5s80 -89.667 108 -141s48.667 -106 62 -164s20 -117.333 20 -178v-1610h-426
c-14 22.667 -31.167 45.167 -51.5 67.5s-45 42.5 -74 60.5s-63 32.667 -102 44s-84.5 17 -136.5 17c-46 0 -90.333 -4.83301 -133 -14.5s-84.667 -24.5 -126 -44.5s-82.5 -45.833 -123.5 -77.5s-82.833 -69.5 -125.5 -113.5v373c29.333 28.667 62.666 55.167 99.999 79.5
s77.666 45.5 120.999 63.5s89.166 32 137.499 42s98.166 15 149.499 15c59.333 0 112.666 -5.16699 159.999 -15.5s89.333 -22.833 126 -37.5v1118c0 38.667 -3.5 78 -10.5 118s-21.667 76.167 -44 108.5s-54.5 58.666 -96.5 78.999s-97.667 30.5 -167 30.5
c-54.667 0 -101.5 -5.83301 -140.5 -17.5s-71.5 -26.5 -97.5 -44.5s-46.5 -37.5 -61.5 -58.5s-26.167 -40.833 -33.5 -59.5c17.333 -15.333 32.5 -31.5 45.5 -48.5s23.667 -35.5 32 -55.5s14.5 -42.333 18.5 -67s6 -52.334 6 -83.001v-893h-651z" />
    <glyph glyph-name="topatakthai" unicode="&#xe0f;" horiz-adv-x="1868" 
d="M1753 -598l-449.999 0.00292969c-3.33301 21.333 -8.66602 43.166 -15.999 65.499s-16.666 42.5 -27.999 60.5s-24.666 32.833 -39.999 44.5s-32.666 17.5 -51.999 17.5c-18 0 -34 -5.83301 -48 -17.5s-25.5 -26.5 -34.5 -44.5s-15.833 -38.167 -20.5 -60.5
s-7 -44.166 -7 -65.499h-316c0 20.667 -3 42.167 -9 64.5s-14.5 43 -25.5 62s-24.333 34.667 -40 47s-33.167 18.5 -52.5 18.5c-21.333 0 -40 -6.16699 -56 -18.5s-29.333 -28 -40 -47s-18.5 -39.667 -23.5 -62s-7.5 -43.833 -7.5 -64.5h-372c0 88 12.167 163.667 36.5 227
s57.166 115.5 98.499 156.5s89.5 71.333 144.5 91s113.167 29.5 174.5 29.5c32 0 62.167 -3.66699 90.5 -11s55 -17.166 80 -29.499s48 -27 69 -44s39.5 -35.167 55.5 -54.5c14.667 18 31.5 35 50.5 51s39.667 30 62 42s45.833 21.333 70.5 28s49.667 10 75 10
c24.667 0 48 -2.83301 70 -8.5s41 -12.5 57 -20.5v1122c0 26 -1.5 52.333 -4.5 79s-8.5 52.5 -16.5 77.5s-19.333 48.333 -34 70s-33.834 40.667 -57.501 57s-52.5 29.166 -86.5 38.499s-74 14 -120 14c-55.333 0 -102.333 -5.83301 -141 -17.5s-71 -26.5 -97 -44.5
s-46.333 -37.5 -61 -58.5s-25.667 -40.833 -33 -59.5c17.333 -15.333 32.5 -31.5 45.5 -48.5s23.667 -35.5 32 -55.5s14.5 -42.333 18.5 -67s6 -52.334 6 -83.001v-893h-651v365h156v540c0 18.667 -2.16699 37.834 -6.5 57.501s-11.833 39.167 -22.5 58.5
s-25.334 38.333 -44.001 57s-42.334 36 -71.001 52c11.333 47.333 28.666 94.666 51.999 141.999s52.5 92.666 87.5 135.999s76 83.666 123 120.999s100.333 69.833 160 97.5s125.667 49.5 198 65.5s151.166 24 236.499 24c100.667 0 191.334 -8.66699 272.001 -26
s152 -41.5 214 -72.5s115 -67.833 159 -110.5s80 -89.667 108 -141s48.667 -106 62 -164s20 -117.333 20 -178v-1622z" />
    <glyph glyph-name="thothanthai" unicode="&#xe10;" horiz-adv-x="1647" 
d="M655 -647c0 26.667 -2.33105 51.001 -6.99805 73.001s-11.334 41 -20.001 57s-19.334 28.333 -32.001 37s-27 13 -43 13c-17.333 0 -32.666 -4.66699 -45.999 -14s-24.5 -22 -33.5 -38s-15.833 -35 -20.5 -57s-7 -45.667 -7 -71h-299c0 65.333 6.66699 121.833 20 169.5
s31 88.167 53 121.5s47.167 60.333 75.5 81s57.166 36.5 86.499 47.5s58.166 18.333 86.499 22s53.833 5.16699 76.5 4.5c41.333 -2 80 -11.667 116 -29s64 -40.333 84 -69c8 12 18 24 30 36s25.333 22.5 40 31.5s30 16.333 46 22s32 8.5 48 8.5
c31.333 0 60.833 -5.66699 88.5 -17s48.834 -27.333 63.501 -48v131h401v-512h-372c0 26.667 -3 51 -9 73s-14.167 41 -24.5 57s-22.833 28.333 -37.5 37s-30.667 13 -48 13s-33 -4.83301 -47 -14.5s-25.667 -22.667 -35 -39s-16.5 -35.333 -21.5 -57
s-7.5 -44.834 -7.5 -69.501h-205zM393.002 618.001l-163.998 -0.00390625v345h537l131 -398c16.667 46 33.5 95.333 50.5 148s32.5 103 46.5 151s25.5 90.833 34.5 128.5s14.167 64.5 15.5 80.5c6.66699 78.667 -9.16602 138.667 -47.499 180s-94.833 62 -169.5 62
c-32.667 0 -63 -3.66699 -91 -11s-53.167 -19.666 -75.5 -36.999s-41.5 -40.5 -57.5 -69.5s-28.667 -64.833 -38 -107.5h-495c16 92 45 176.333 87 253s95.667 142.667 161 198s141.833 98.333 229.5 129s185.167 46 292.5 46c43.333 0 88.5 -3 135.5 -9
s93.167 -15.333 138.5 -28c12 7.33301 23.167 16.833 33.5 28.5s19.166 24.834 26.499 39.501s13.166 29.834 17.499 45.501s7.16602 31.167 8.49902 46.5h479c-1.33301 -36 -6.33301 -73.833 -15 -113.5s-21.667 -78 -39 -115s-39.166 -71.167 -65.499 -102.5
s-57.5 -56 -93.5 -74c29.333 -43.333 51.666 -91.833 66.999 -145.5s23 -114.5 23 -182.5c0 -36.667 -5.5 -80.5 -16.5 -131.5s-26 -106.667 -45 -167s-41.167 -124.166 -66.5 -191.499l-81 -205.5l-88 -209l-88 -201.5h-557z" />
    <glyph glyph-name="thonangmonthothai" unicode="&#xe11;" horiz-adv-x="1815" 
d="M976 1679l0.00292969 -135.996c30 28 61.5 52.833 94.5 74.5s66.167 40.167 99.5 55.5s66.166 27 98.499 35s62.833 12 91.5 12c62.667 0 115.5 -9.33301 158.5 -28s78 -45.334 105 -80.001s46.5 -76.334 58.5 -125.001s18 -103.334 18 -164.001v-1323h-504v1137
c0 12 -0.333008 24 -1 36s-2.33398 22.5 -5.00098 31.5s-6.5 16.333 -11.5 22s-11.5 8.5 -19.5 8.5c-22.667 0 -57.167 -17.833 -103.5 -53.5s-107.5 -92.167 -183.5 -169.5l-77.5 -83.5c-21.667 -24.333 -40.167 -47 -55.5 -68s-27.5 -41 -36.5 -60
s-16.167 -38.833 -21.5 -59.5s-8.83301 -43.167 -10.5 -67.5s-2.5 -52.166 -2.5 -83.499v-590h-500v561c0 56.667 4.33301 106.667 13 150s21.167 82.833 37.5 118.5s36 68.667 59 99s48.833 60.666 77.5 90.999l93 94.5c33.333 32.667 68.333 69.667 105 111
c-12.667 -6.66699 -26.667 -11.834 -42 -15.501s-27.333 -5.5 -36 -5.5c-21.333 0 -47.333 2.33301 -78 7s-62.834 13.167 -96.501 25.5s-67.167 29.5 -100.5 51.5s-63.333 50.667 -90 86s-48.334 78 -65.001 128s-25 109 -25 177h394c0 -22.667 1.66699 -44.5 5 -65.5
s8.5 -39.667 15.5 -56s16.167 -29.5 27.5 -39.5s25.333 -15 42 -15c16 0 30 4.5 42 13.5s21.833 21.5 29.5 37.5s13.334 34.667 17.001 56s5.5 44.333 5.5 69h378z" />
    <glyph glyph-name="thophuthaothai" unicode="&#xe12;" horiz-adv-x="2859" 
d="M1851 745c0 -59.333 3.66797 -111.834 11.001 -157.501s19.5 -84.167 36.5 -115.5s39.333 -55 67 -71s61.834 -24 102.501 -24c22.667 0 44.5 2.66699 65.5 8s39.5 16.833 55.5 34.5s28.667 43.334 38 77.001s14 78.5 14 134.5v1048h503v-1077
c0 -101.333 -9 -191.666 -27 -270.999s-48.667 -146.166 -92 -200.499s-101 -95.833 -173 -124.5s-161.667 -43 -269 -43c-32.667 0 -66 4.16699 -100 12.5s-67.167 19.666 -99.5 33.999s-62.833 31.166 -91.5 50.499s-54.334 40.333 -77.001 63v-123h-463v1036
c0 45.333 -7.16699 87.333 -21.5 126s-40.166 70.334 -77.499 95.001l-176 -106c-26.667 -14.667 -55 -23 -85 -25s-61.667 6.33301 -95 25l-180 111c-37.333 -25.333 -63.833 -58 -79.5 -98s-23.5 -82.667 -23.5 -128v-483l201 205h-115v258h553v-291l-684 -725h-454v1040
c0 76.667 12.833 151 38.5 223s64 138 115 198s114.833 112.167 191.5 156.5s166.334 77.166 269.001 98.499l258 -172l262 168c99.333 -22.667 186.666 -56 261.999 -100s138.166 -95.5 188.499 -154.5s88.166 -124.167 113.499 -195.5s38 -145.333 38 -222v-295z" />
    <glyph glyph-name="nonenthai" unicode="&#xe13;" horiz-adv-x="2666" 
d="M2552 0l-487.997 -0.00488281v123c-22.667 -22.667 -48 -43.667 -76 -63s-57.5 -36.166 -88.5 -50.499s-63.167 -25.666 -96.5 -33.999s-66.333 -12.5 -99 -12.5c-106.667 0 -196.334 14.333 -269.001 43s-131.167 70.167 -175.5 124.5s-76.166 121.166 -95.499 200.499
s-29 169.666 -29 270.999v430c0 38 -3.5 74.5 -10.5 109.5s-21 66 -42 93s-50.833 48.5 -89.5 64.5s-89.667 24 -153 24c-45.333 0 -84.333 -5.5 -117 -16.5s-60.5 -25 -83.5 -42s-42 -35.5 -57 -55.5s-27.5 -39.333 -37.5 -58c17.333 -16.667 32.833 -32.834 46.5 -48.501
s25.167 -32.667 34.5 -51s16.5 -39 21.5 -62s7.5 -49.833 7.5 -80.5v-544h172v-365h-671v905c0 18.667 -2.16699 37.834 -6.5 57.501s-11.833 39 -22.5 58s-25.334 37.5 -44.001 55.5s-42.334 34.667 -71.001 50c11.333 48 28.666 95.833 51.999 143.5
s52.166 93.334 86.499 137.001s74.5 84.334 120.5 122.001s97.667 70.334 155 98.001s120.5 49.5 189.5 65.5s143.833 24 224.5 24c96 0 182.5 -8.66699 259.5 -26s145 -41.5 204 -72.5s109.667 -68 152 -111s77 -90.333 104 -142s46.833 -106.667 59.5 -165
s19 -118.166 19 -179.499v-447c0 -38.667 5 -70.667 15 -96s23.833 -45.333 41.5 -60s38.5 -25 62.5 -31s50 -9 78 -9c42.667 0 77.834 8.16699 105.501 24.5s49.5 40.333 65.5 72s27 70.334 33 116.001s9 97.5 9 155.5v934h504v-1679z" />
    <glyph glyph-name="dodekthai" unicode="&#xe14;" horiz-adv-x="1966" 
d="M614 549l212.999 209h-118v258h553v-291l-693 -725h-454v1016c0 92 16.833 180.167 50.5 264.5s86 158.833 157 223.5s161.333 116.167 271 154.5s240.834 57.5 393.501 57.5c150.667 0 280.334 -19.167 389.001 -57.5s198.167 -89.833 268.5 -154.5
s122.333 -139.167 156 -223.5s50.5 -172.5 50.5 -264.5v-1016h-499v1008c0 38.667 -6 76.5 -18 113.5s-32 69.833 -60 98.5s-65.333 51.667 -112 69s-105 26 -175 26c-70.667 0 -129.834 -8.66699 -177.501 -26s-86 -40.333 -115 -69s-49.667 -61.5 -62 -98.5
s-18.5 -74.833 -18.5 -113.5v-459z" />
    <glyph glyph-name="totaothai" unicode="&#xe15;" horiz-adv-x="1966" 
d="M614 1032l0.00292969 -482.998l213 209h-118v258h553v-291l-693 -725h-454v1040c0 76.667 12.833 151 38.5 223s64 138 115 198s114.833 112.167 191.5 156.5s166.334 77.166 269.001 98.499l258 -172l262 168c99.333 -22.667 186.666 -56 261.999 -100
s138.166 -95.5 188.499 -154.5s88.166 -124.167 113.499 -195.5s38 -145.333 38 -222v-1040h-499v1032c0 22.667 -1.33301 44 -4 64s-7.66699 39.333 -15 58s-17.333 36.5 -30 53.5s-29.334 33.5 -50.001 49.5l-176 -106c-26.667 -14.667 -55 -23 -85 -25
s-61.667 6.33301 -95 25l-180 111c-21.333 -16.667 -38.833 -33.834 -52.5 -51.501s-24.167 -36 -31.5 -55s-12.333 -38.667 -15 -59s-4 -41.833 -4 -64.5z" />
    <glyph glyph-name="thothungthai" unicode="&#xe16;" horiz-adv-x="1802" 
d="M807 365l0.00292969 -365h-668v905c0 18.667 -2 37.834 -6 57.501s-11.333 39.167 -22 58.5s-25.334 38.333 -44.001 57s-42.334 36 -71.001 52c12 47.333 29.5 94.666 52.5 141.999s52 92.666 87 135.999s76 83.666 123 120.999s100.167 69.833 159.5 97.5
s125.166 49.5 197.499 65.5s151.166 24 236.499 24c100.667 0 191.334 -8.66699 272.001 -26s152 -41.5 214 -72.5s115.167 -67.833 159.5 -110.5s80.5 -89.667 108.5 -141s48.667 -106 62 -164s20 -117.333 20 -178v-1024h-504v1032c0 38.667 -4.33301 75.834 -13 111.501
s-25 67.167 -49 94.5s-57.667 49 -101 65s-99.666 24 -168.999 24c-54 0 -99.833 -5.83301 -137.5 -17.5s-68.667 -26.5 -93 -44.5s-43.5 -37.5 -57.5 -58.5s-24.667 -40.833 -32 -59.5c17.333 -15.333 32.5 -30.666 45.5 -45.999s23.667 -32 32 -50
s14.666 -38.5 18.999 -61.5s6.5 -49.833 6.5 -80.5v-544h172z" />
    <glyph glyph-name="thothahanthai" unicode="&#xe17;" horiz-adv-x="1802" 
d="M598 1679l0.00195312 -151.001c30 27.333 62 52.5 96 75.5s69.5 42.833 106.5 59.5s75.167 29.667 114.5 39s79.666 14 120.999 14c122 0 224.5 -14.5 307.5 -43.5s150 -70.333 201 -124s87.667 -118.667 110 -195s33.5 -161.5 33.5 -255.5v-1098h-496v1049
c0 84.667 -22 148.167 -66 190.5s-113.333 63.5 -208 63.5c-64.667 0 -116.834 -11.333 -156.501 -34s-70.5 -53.5 -92.5 -92.5s-36.667 -84.667 -44 -137s-11 -108.166 -11 -167.499v-872h-499v1679h483z" />
    <glyph glyph-name="thothongthai" unicode="&#xe18;" horiz-adv-x="1712" 
d="M610 840l-0.00390625 -290.996c0 -34 6.5 -62.833 19.5 -86.5s30.667 -43.167 53 -58.5s48.333 -26.5 78 -33.5s61.5 -10.5 95.5 -10.5c30.667 0 61 2.16699 91 6.5s56.667 12 80 23s42.333 26 57 45s22 43.5 22 73.5c0 18 -0.333008 35.5 -1 52.5
s-3.83398 33.667 -9.50098 50s-15.334 32.333 -29.001 48s-33.5 31.334 -59.5 47.001s-59.5 31.5 -100.5 47.5s-91.833 32.667 -152.5 50l-165.5 45c-54.333 15.333 -105.666 32.333 -153.999 51s-93.166 39.667 -134.499 63s-76.833 50.166 -106.5 80.499
s-53 64.833 -70 103.5s-25.5 82.667 -25.5 132c0 56.667 10.333 106.667 31 150s48.5 81.166 83.5 113.499s75.833 59.333 122.5 81s96.167 39.167 148.5 52.5s105.833 22.833 160.5 28.5s107.667 8.5 159 8.5c67.333 0 132.833 -4.66699 196.5 -14s123.667 -24 180 -44
s107.833 -45.833 154.5 -77.5s86.834 -70 120.501 -115s59.834 -97 78.501 -156s28 -125.5 28 -199.5h-484c-1.33301 42 -8.83301 77.833 -22.5 107.5s-32 54 -55 73s-49.667 33.5 -80 43.5s-62.5 16 -96.5 18c-28.667 2 -55.834 2.16699 -81.501 0.5
s-48.334 -5.33398 -68.001 -11.001s-35.167 -13.5 -46.5 -23.5s-17 -22 -17 -36c0 -12.667 6 -24.834 18 -36.501s27.333 -23 46 -34s40 -21.5 64 -31.5s48 -19.167 72 -27.5s46.833 -15.833 68.5 -22.5s40.167 -12 55.5 -16c71.333 -20 137.833 -39.5 199.5 -58.5
s117.667 -40 168 -63s95 -48.667 134 -77s71.667 -61.5 98 -99.5s46.333 -81.833 60 -131.5s20.5 -107.167 20.5 -172.5c0 -64.667 -10.167 -123 -30.5 -175s-48.333 -98 -84 -138s-77.667 -74.333 -126 -103s-100.666 -52.334 -156.999 -71.001
s-115.166 -32.334 -176.499 -41.001s-122.666 -13 -183.999 -13c-62.667 0 -124.667 4 -186 12s-119.5 20.5 -174.5 37.5s-106 39 -153 66s-87.667 59.833 -122 98.5s-61.166 83.334 -80.499 134.001s-29 108 -29 172v353h499z" />
    <glyph glyph-name="nonuthai" unicode="&#xe19;" horiz-adv-x="1802" 
d="M1204 0l0.000976562 152.001c-62 -58 -130.333 -104 -205 -138s-152.334 -51 -233.001 -51c-122 0 -224.5 14.5 -307.5 43.5s-150 70.5 -201 124.5s-87.5 119.167 -109.5 195.5s-33 161.5 -33 255.5v1097h495v-1028c0 -42 6.66699 -79.833 20 -113.5
s31.833 -62.5 55.5 -86.5s52.167 -42.333 85.5 -55s70 -19 110 -19c64.667 0 117 11.167 157 33.5s71.167 53 93.5 92s37.333 84.667 45 137s11.5 108.166 11.5 167.499v872h500v-1679h-484z" />
    <glyph glyph-name="bobaimaithai" unicode="&#xe1a;" horiz-adv-x="1802" 
d="M901 365c62.667 0 112.834 9.33301 150.501 28s66.667 43.167 87 73.5s33.666 64.833 39.999 103.5s9.5 78 9.5 118v991h500v-1011c0 -61.333 -5.66699 -121.333 -17 -180s-29.5 -114.167 -54.5 -166.5s-57.667 -100.5 -98 -144.5s-89.666 -81.833 -147.999 -113.5
s-126.333 -56.334 -204 -74.001s-166.167 -26.5 -265.5 -26.5c-100 0 -189 8.83301 -267 26.5s-146.167 42.334 -204.5 74.001s-107.5 69.5 -147.5 113.5s-72.333 92.167 -97 144.5s-42.5 107.833 -53.5 166.5s-16.5 118.667 -16.5 180v1011h495v-991
c0 -40 3.16699 -79.333 9.5 -118s19.833 -73.167 40.5 -103.5s50.167 -54.833 88.5 -73.5s89.166 -28 152.499 -28z" />
    <glyph glyph-name="poplathai" unicode="&#xe1b;" horiz-adv-x="1802" 
d="M901 365c62.667 0 112.834 9.33301 150.501 28s66.667 43.167 87 73.5s33.666 64.833 39.999 103.5s9.5 78 9.5 118v1725h500v-1745c0 -61.333 -5.66699 -121.333 -17 -180s-29.5 -114.167 -54.5 -166.5s-57.667 -100.5 -98 -144.5s-89.666 -81.833 -147.999 -113.5
s-126.333 -56.334 -204 -74.001s-166.167 -26.5 -265.5 -26.5c-100 0 -189 8.83301 -267 26.5s-146.167 42.334 -204.5 74.001s-107.5 69.5 -147.5 113.5s-72.333 92.167 -97 144.5s-42.5 107.833 -53.5 166.5s-16.5 118.667 -16.5 180v1011h495v-991
c0 -40 3.16699 -79.333 9.5 -118s19.833 -73.167 40.5 -103.5s50.167 -54.833 88.5 -73.5s89.166 -28 152.499 -28z" />
    <glyph glyph-name="phophungthai" unicode="&#xe1c;" horiz-adv-x="1929" 
d="M115 1679h712.002v-385h-213v-737c0 -40 1.33301 -72.5 4 -97.5s7.16699 -44.5 13.5 -58.5s14.5 -23.5 24.5 -28.5s22 -7.5 36 -7.5c30.667 0 51.334 17.167 62.001 51.5s16 89.5 16 165.5v331h389v-348c0 -42 1.83301 -76 5.5 -102s9 -46.333 16 -61s16 -24.5 27 -29.5
s23.5 -7.5 37.5 -7.5c11.333 0 21.333 2.5 30 7.5s16 14.5 22 28.5s10.5 33.5 13.5 58.5s4.5 57.5 4.5 97.5v1122h500v-1208c0 -90 -13 -167.167 -39 -231.5s-61.5 -117 -106.5 -158s-98 -71 -159 -90s-126.167 -28.5 -195.5 -28.5c-74.667 0 -141.834 12.167 -201.501 36.5
s-109.834 61.5 -150.501 111.5c-37.333 -46 -84.333 -82.167 -141 -108.5s-123 -39.5 -199 -39.5c-70.667 0 -136.834 9.5 -198.501 28.5s-115.5 49 -161.5 90s-82.167 93.667 -108.5 158s-39.5 141.5 -39.5 231.5v1208z" />
    <glyph glyph-name="fofathai" unicode="&#xe1d;" horiz-adv-x="1929" 
d="M115 1679h712.002v-385h-213v-737c0 -40 1.33301 -72.5 4 -97.5s7.16699 -44.5 13.5 -58.5s14.5 -23.5 24.5 -28.5s22 -7.5 36 -7.5c30.667 0 51.334 17.167 62.001 51.5s16 89.5 16 165.5v331h389v-348c0 -42 1.66699 -76 5 -102s8.33301 -46.333 15 -61
s15.167 -24.5 25.5 -29.5s22.5 -7.5 36.5 -7.5c11.333 0 21.5 2.5 30.5 7.5s16.833 14.5 23.5 28.5s11.667 33.5 15 58.5s5 57.5 5 97.5v1856h500v-1942c0 -90 -13 -167.167 -39 -231.5s-61.5 -117 -106.5 -158s-98 -71 -159 -90s-126.167 -28.5 -195.5 -28.5
c-74.667 0 -141.834 12.167 -201.501 36.5s-109.834 61.5 -150.501 111.5c-37.333 -46 -84.333 -82.167 -141 -108.5s-123 -39.5 -199 -39.5c-70.667 0 -136.834 9.5 -198.501 28.5s-115.5 49 -161.5 90s-82.167 93.667 -108.5 158s-39.5 141.5 -39.5 231.5v1208z" />
    <glyph glyph-name="phophanthai" unicode="&#xe1e;" horiz-adv-x="2249" 
d="M1278 1679l250 -860l188 860h533l-447 -1679h-397l-283 958l-278 -958h-398l-446 1679h532l189 -864l250 864h307z" />
    <glyph glyph-name="fofanthai" unicode="&#xe1f;" horiz-adv-x="2249" 
d="M1278 1679l250 -864l377 1598h532l-635 -2413h-397l-283 958l-278 -958h-398l-446 1679h532l189 -868l250 868h307z" />
    <glyph glyph-name="phosamphaothai" unicode="&#xe20;" horiz-adv-x="1868" 
d="M49 0l0.00292969 365.004h156v540c0 18.667 -2.16699 37.834 -6.5 57.501s-11.833 39.167 -22.5 58.5s-25.334 38.333 -44.001 57s-42.334 36 -71.001 52c11.333 47.333 28.666 94.666 51.999 141.999s52.5 92.666 87.5 135.999s76 83.666 123 120.999
s100.333 69.833 160 97.5s125.667 49.5 198 65.5s151.166 24 236.499 24c100.667 0 191.334 -8.66699 272.001 -26s152 -41.5 214 -72.5s115 -67.833 159 -110.5s80 -89.667 108 -141s48.667 -106 62 -164s20 -117.333 20 -178v-1024h-504v991
c0 38.667 -4.16699 78 -12.5 118s-24.5 76.167 -48.5 108.5s-57.667 58.666 -101 78.999s-99.666 30.5 -168.999 30.5c-54.667 0.666992 -100.667 -4.83301 -138 -16.5s-68.333 -26.5 -93 -44.5s-43.834 -37.667 -57.501 -59s-24.167 -41.333 -31.5 -60
c17.333 -15.333 32.5 -31.5 45.5 -48.5s23.667 -35.5 32 -55.5s14.5 -42.333 18.5 -67s6 -52.334 6 -83.001v-893h-651z" />
    <glyph glyph-name="momathai" unicode="&#xe21;" horiz-adv-x="1802" 
d="M115 0v1679h499v-872c0 -59.333 3.66699 -115.166 11 -167.499s22 -98 44 -137s52.833 -69.667 92.5 -92s91.834 -33.5 156.501 -33.5c46 0 86.167 6.83301 120.5 20.5s62.833 33 85.5 58s39.667 54.667 51 89s17 72.5 17 114.5v1020h496v-1097
c0 -94 -11.167 -179.167 -33.5 -255.5s-59 -141.5 -110 -195.5s-118 -95.5 -201 -124.5s-185.5 -43.5 -307.5 -43.5c-82.667 0 -161.334 17 -236.001 51s-142 80 -202 138v-152h-483z" />
    <glyph glyph-name="yoyakthai" unicode="&#xe22;" horiz-adv-x="1757" 
d="M86 1241c0 58 8.16895 109.168 24.502 153.501s38 82.666 65 114.999s58.5 59.333 94.5 81s73.5 39 112.5 52s78.5 22.333 118.5 28s77.667 8.5 113 8.5h312v-348h-197c-25.333 0 -47.333 -3.5 -66 -10.5s-34 -16.167 -46 -27.5s-20.833 -24 -26.5 -38
s-8.5 -28.333 -8.5 -43c0 -41.333 13.833 -75.166 41.5 -101.499s68.167 -41.5 121.5 -45.5h181v-315h-164c-22.667 -1.33301 -44.334 -5.5 -65.001 -12.5s-39 -18 -55 -33s-28.667 -34.833 -38 -59.5s-14 -55.334 -14 -92.001c0 -39.333 7 -72 21 -98s33.5 -47 58.5 -63
s54.833 -27.333 89.5 -34s72.334 -10 113.001 -10c45.333 0 85.166 5 119.499 15s63 27 86 51s40.333 55.667 52 95s17.5 88 17.5 146v1024h495v-1097c0 -70 -9.66699 -134.167 -29 -192.5s-46.333 -110.5 -81 -156.5s-76 -86.167 -124 -120.5s-100.5 -62.833 -157.5 -85.5
s-117.667 -39.667 -182 -51s-129.833 -17 -196.5 -17c-62 0 -124.5 4.66699 -187.5 14s-123.5 24 -181.5 44s-112.5 45.5 -163.5 76.5s-95.167 68 -132.5 111s-66.833 92.333 -88.5 148s-32.5 118.5 -32.5 188.5c0 82 13.167 154.5 39.5 217.5s69.166 111.833 128.499 146.5
c-28 22.667 -52.5 47.5 -73.5 74.5s-38.5 55 -52.5 84s-24.5 58.667 -31.5 89s-10.5 59.833 -10.5 88.5z" />
    <glyph glyph-name="roruathai" unicode="&#xe23;" horiz-adv-x="1524" 
d="M528 623c3.33301 -46 11 -85.665 23 -118.998s29 -60.666 51 -81.999s49.333 -37 82 -47s71 -15 115 -15c20.667 0 41.167 2.33301 61.5 7s38.666 12.167 54.999 22.5s29.666 23.666 39.999 39.999s15.5 36.166 15.5 59.499c0 24 -4.16699 45 -12.5 63
s-22.666 35.333 -42.999 52s-48 33.167 -83 49.5s-79.167 34.833 -132.5 55.5l-158 60.5c-51.333 20.333 -99.833 41.666 -145.5 63.999s-87.834 46.333 -126.501 72s-71.834 54.5 -99.501 86.5s-49.334 67.333 -65.001 106s-23.5 82.334 -23.5 131.001
c0 59.333 9.16699 112.5 27.5 159.5s43.5 88.333 75.5 124s69.167 66.167 111.5 91.5s87.5 46 135.5 62s97.333 27.667 148 35s100.334 11 149.001 11c62.667 0 123.334 -4.33301 182.001 -13s113.834 -22.667 165.501 -42s99 -44.666 142 -75.999
s80.333 -69.833 112 -115.5s56.834 -99.167 75.501 -160.5s29.334 -131.666 32.001 -210.999h-488c0 42.667 -5 79 -15 109s-24.167 54.167 -42.5 72.5s-40.166 31.666 -65.499 39.999s-53.333 12.5 -84 12.5c-45.333 0 -81.5 -9.16699 -108.5 -27.5
s-40.5 -42.5 -40.5 -72.5c0 -18.667 3.5 -35.5 10.5 -50.5s20.167 -29.667 39.5 -44s46.333 -29.333 81 -45s79.667 -33.167 135 -52.5c114.667 -41.333 211.167 -82.333 289.5 -123s141.666 -82.834 189.999 -126.501s83 -89.667 104 -138s31.5 -100.5 31.5 -156.5
c0 -64.667 -8.83301 -122.667 -26.5 -174s-42.5 -96.5 -74.5 -135.5s-70 -72.167 -114 -99.5s-92.5 -49.5 -145.5 -66.5s-109.333 -29.5 -169 -37.5s-120.834 -12 -183.501 -12c-93.333 0 -182.833 12.167 -268.5 36.5s-162 62.666 -229 114.999s-121.5 120 -163.5 203
s-66 183.5 -72 301.5h499z" />
    <glyph glyph-name="ruthai" unicode="&#xe24;" horiz-adv-x="1804" 
d="M807 365l0.00292969 -365h-668v905c0 18.667 -2 37.834 -6 57.501s-11.333 39.167 -22 58.5s-25.334 38.333 -44.001 57s-42.334 36 -71.001 52c12 47.333 29.5 94.666 52.5 141.999s52 92.666 87 135.999s76 83.666 123 120.999s100.167 69.833 159.5 97.5
s125.166 49.5 197.499 65.5s151.166 24 236.499 24c100.667 0 191.334 -8.66699 272.001 -26s152 -41.5 214 -72.5s115.167 -67.833 159.5 -110.5s80.5 -89.667 108.5 -141s48.667 -106 62 -164s20 -117.333 20 -178v-1569h-504v1577c0 38.667 -4.33301 75.834 -13 111.501
s-25 67.167 -49 94.5s-57.667 49 -101 65s-99.666 24 -168.999 24c-54 0 -99.833 -5.83301 -137.5 -17.5s-68.667 -26.5 -93 -44.5s-43.5 -37.5 -57.5 -58.5s-24.667 -40.833 -32 -59.5c17.333 -15.333 32.5 -30.666 45.5 -45.999s23.667 -32 32 -50
s14.666 -38.5 18.999 -61.5s6.5 -49.833 6.5 -80.5v-544h172z" />
    <glyph glyph-name="lolingthai" unicode="&#xe25;" horiz-adv-x="1761" 
d="M1151 729c-22.667 -14 -43.4961 -26.166 -62.4961 -36.499s-37.167 -19 -54.5 -26s-34.833 -13 -52.5 -18s-36.167 -9.5 -55.5 -13.5c-12.667 -2.66699 -30.5 -6 -53.5 -10s-47.833 -8.83301 -74.5 -14.5s-53.834 -12.834 -81.501 -21.501s-52.667 -19.334 -75 -32.001
s-40.666 -27.667 -54.999 -45s-21.5 -37.666 -21.5 -60.999c0 -28.667 5.66699 -51.667 17 -69s26.833 -30.666 46.5 -39.999s42.334 -15.5 68.001 -18.5s52.834 -4.5 81.501 -4.5c29.333 0 63.833 3.16699 103.5 9.5s83.167 15.5 130.5 27.5v-340
c-56 -16 -108 -28.167 -156 -36.5s-95.667 -12.5 -143 -12.5c-54.667 0 -108.667 3.83301 -162 11.5s-103.833 19.667 -151.5 36s-92 37.5 -133 63.5s-76.333 57.333 -106 94s-52.834 79.167 -69.501 127.5s-25 102.833 -25 163.5c0 59.333 9.16699 111.833 27.5 157.5
s44.333 86.167 78 121.5s74.5 66 122.5 92s101.667 49 161 69s123.666 37.667 192.999 53s142.666 29.666 219.999 42.999c40.667 7.33301 78.334 16 113.001 26s64.667 22.167 90 36.5s45 31.166 59 50.499s21 42 21 68c0 29.333 -6.33301 52.833 -19 70.5
s-29.834 31.334 -51.501 41.001s-47.167 16 -76.5 19s-61 4.5 -95 4.5c-38.667 0 -74.334 -2.83301 -107.001 -8.5s-61.167 -17 -85.5 -34s-44 -41.5 -59 -73.5s-23.833 -74 -26.5 -126h-529c2.66699 82.667 15.667 156 39 220s54.333 119.833 93 167.5s84 87.667 136 120
s108.167 58.666 168.5 78.999s123.666 34.833 189.999 43.5s133.5 13 201.5 13c53.333 0 108 -3.16699 164 -9.5s110.5 -17.166 163.5 -32.499s103.167 -35.833 150.5 -61.5s88.666 -57.667 123.999 -96s63.333 -84 84 -137s31 -114.167 31 -183.5v-1196h-496v729z" />
    <glyph glyph-name="luthai" unicode="&#xe26;" horiz-adv-x="1868" 
d="M49 0l0.00292969 365.004h156v540c0 18.667 -2.16699 37.834 -6.5 57.501s-11.833 39.167 -22.5 58.5s-25.334 38.333 -44.001 57s-42.334 36 -71.001 52c11.333 47.333 28.666 94.666 51.999 141.999s52.5 92.666 87.5 135.999s76 83.666 123 120.999
s100.333 69.833 160 97.5s125.667 49.5 198 65.5s151.166 24 236.499 24c100.667 0 191.334 -8.66699 272.001 -26s152 -41.5 214 -72.5s115 -67.833 159 -110.5s80 -89.667 108 -141s48.667 -106 62 -164s20 -117.333 20 -178v-1569h-504v1536
c0 38.667 -4.16699 78 -12.5 118s-24.5 76.167 -48.5 108.5s-57.667 58.666 -101 78.999s-99.666 30.5 -168.999 30.5c-54.667 0.666992 -100.667 -4.83301 -138 -16.5s-68.333 -26.5 -93 -44.5s-43.834 -37.667 -57.501 -59s-24.167 -41.333 -31.5 -60
c17.333 -15.333 32.5 -31.5 45.5 -48.5s23.667 -35.5 32 -55.5s14.5 -42.333 18.5 -67s6 -52.334 6 -83.001v-893h-651z" />
    <glyph glyph-name="wowaenthai" unicode="&#xe27;" horiz-adv-x="1606" 
d="M1032 840c0 88.667 -5.16504 163.669 -15.498 225.002s-26 110.666 -47 147.999s-47.5 64.333 -79.5 81s-69.333 25 -112 25c-55.333 0 -101.5 -20.833 -138.5 -62.5s-61.833 -109.5 -74.5 -203.5h-512c8 97.333 32.167 186.833 72.5 268.5s92.5 152 156.5 211
s138.333 105 223 138s175.667 49.5 273 49.5c124.667 0 235 -21.167 331 -63.5s176.5 -102 241.5 -179s114.167 -169.5 147.5 -277.5s50 -228 50 -360s-16.667 -252 -50 -360s-82.5 -200.333 -147.5 -277s-145.5 -135.834 -241.5 -177.501s-206.333 -62.5 -331 -62.5
c-97.333 0 -188.333 16.333 -273 49s-159 78.5 -223 137.5s-116.167 129.5 -156.5 211.5s-64.5 172 -72.5 270h512c6 -48 15.333 -89 28 -123s28.167 -61.5 46.5 -82.5s39.166 -36.333 62.499 -46s48.666 -14.5 75.999 -14.5c42 0 78.833 8 110.5 24s58.167 42.5 79.5 79.5
s37.333 85.833 48 146.5s16 135.667 16 225z" />
    <glyph glyph-name="sosalathai" unicode="&#xe28;" horiz-adv-x="1860" 
d="M610 0l-494.998 0.00195312v1012c0 61.333 6.33301 121.333 19 180s32.5 114 59.5 166s62 100 105 144s94.833 81.833 155.5 113.5s130.667 56.334 210 74.001s169.333 26.5 270 26.5c113.333 0 214.333 -12.333 303 -37c13.333 6 25.666 15.167 36.999 27.5
s21.333 26.166 30 41.499s15.667 31.666 21 48.999s8.66602 34 9.99902 50h480c-1.33301 -34.667 -6.33301 -71.5 -15 -110.5s-21.5 -76.667 -38.5 -113s-38 -70.166 -63 -101.499s-54.5 -56.666 -88.5 -75.999c47.333 -62 81.666 -129.833 102.999 -203.5
s32 -150.5 32 -230.5v-1012h-500v1024c0 38.667 -4.33301 75.667 -13 111s-24.5 66.333 -47.5 93s-54.667 47.834 -95 63.501s-92.166 23.5 -155.499 23.5s-115.833 -7.83301 -157.5 -23.5s-74.834 -36.834 -99.501 -63.501s-42 -57.667 -52 -93s-15 -72.333 -15 -111v-119
c57.333 49.333 122 86.5 194 111.5s156.333 38.5 253 40.5v-361c-87.333 -3.33301 -159.666 -16.333 -216.999 -39s-103 -54.334 -137 -95.001s-58 -89.334 -72 -146.001s-21 -120.334 -21 -191.001v-225z" />
    <glyph glyph-name="sorusithai" unicode="&#xe29;" horiz-adv-x="1868" 
d="M774 758l-0.00292969 438h324v-127h147v610h504v-610h147v-311h-147v-70c0 -61.333 -6 -121.833 -18 -181.5s-31.167 -116.5 -57.5 -170.5s-60.666 -103.667 -102.999 -149s-93.666 -84.666 -153.999 -117.999s-130.5 -59.333 -210.5 -78s-170.667 -28 -272 -28
c-104 0 -196.333 9.33301 -277 28s-151.334 44.667 -212.001 78s-112 72.666 -154 117.999s-76 95 -102 149s-44.833 110.833 -56.5 170.5s-17.5 120.167 -17.5 181.5v991h499v-979c0 -40 3.83301 -79.833 11.5 -119.5s22.834 -75.5 45.501 -107.5s55 -58 97 -78
s97.333 -30 166 -30s123.5 10 164.5 30s72.333 46 94 78s35.834 67.833 42.501 107.5s10 79.5 10 119.5v58h-471z" />
    <glyph glyph-name="sosuathai" unicode="&#xe2a;" horiz-adv-x="1761" 
d="M1151 729c-22.667 -14 -43.4932 -26.1641 -62.4932 -36.4971s-37.167 -19 -54.5 -26s-34.833 -13 -52.5 -18s-36.167 -9.5 -55.5 -13.5c-12.667 -2.66699 -30.5 -6 -53.5 -10s-47.833 -8.83301 -74.5 -14.5s-53.834 -12.834 -81.501 -21.501s-52.667 -19.334 -75 -32.001
s-40.666 -27.667 -54.999 -45s-21.5 -37.666 -21.5 -60.999c0 -28.667 5.66699 -51.667 17 -69s26.833 -30.666 46.5 -39.999s42.334 -15.5 68.001 -18.5s52.834 -4.5 81.501 -4.5c29.333 0 63.833 3.16699 103.5 9.5s83.167 15.5 130.5 27.5v-340
c-56 -16 -108 -28.167 -156 -36.5s-95.667 -12.5 -143 -12.5c-54.667 0 -108.667 3.83301 -162 11.5s-103.833 19.667 -151.5 36s-92 37.5 -133 63.5s-76.333 57.333 -106 94s-52.834 79.167 -69.501 127.5s-25 102.833 -25 163.5c0 59.333 9.16699 111.833 27.5 157.5
s44.333 86.167 78 121.5s74.5 66 122.5 92s101.667 49 161 69s123.666 37.667 192.999 53s142.666 29.666 219.999 42.999c40.667 7.33301 78.334 16 113.001 26s64.667 22.167 90 36.5s45 31.166 59 50.499s21 42 21 68c0 29.333 -6.33301 53.166 -19 71.499
s-29.834 32.5 -51.501 42.5s-47.167 16.667 -76.5 20s-61 5 -95 5c-38.667 0 -74.334 -3 -107.001 -9s-61.167 -17.833 -85.5 -35.5s-44 -42.667 -59 -75s-23.833 -74.5 -26.5 -126.5h-529c2.66699 82.667 15.667 156 39 220s54.333 119.833 93 167.5s84 87.667 136 120
s108.167 58.666 168.5 78.999s123.666 34.833 189.999 43.5s133.5 13 201.5 13c45.333 0 91.166 -2.16699 137.499 -6.5s93.166 -11.5 140.499 -21.5c12 6.66699 23.167 16 33.5 28s19.166 25.167 26.499 39.5s13.166 29.333 17.499 45s7.16602 31.167 8.49902 46.5h480
c-1.33301 -34.667 -6.16602 -71 -14.499 -109s-20.5 -74.833 -36.5 -110.5s-36.167 -68.667 -60.5 -99s-52.833 -55.166 -85.5 -74.499c22.667 -35.333 40 -74.333 52 -117s18 -89.667 18 -141v-1196h-496v729z" />
    <glyph glyph-name="hohipthai" unicode="&#xe2b;" horiz-adv-x="1765" 
d="M614 1679v-434l500 434h643l-413 -354c54 -23.333 100.667 -51.166 140 -83.499s72 -70 98 -113s45.333 -92 58 -147s19 -116.833 19 -185.5v-796h-500v775c0 63.333 -12.5 115.166 -37.5 155.499s-66.5 72.833 -124.5 97.5l-383 -328v-700h-499v1679h499z" />
    <glyph glyph-name="lochulathai" unicode="&#xe2c;" horiz-adv-x="2195" 
d="M1769 0l-356.002 0.00292969l-311 848l-299 -848h-365l-438 1679h541l155 -856l222 594h372l234 -635l73 324c9.33301 44.667 16.666 84 21.999 118s4 62.5 -4 85.5s-25.333 40.667 -52 53s-67 19.5 -121 21.5v304c51.333 0.666992 96.833 5.66699 136.5 15
s73.834 23.5 102.501 42.5s51.334 43.5 68.001 73.5s27.667 66.667 33 110h549c-8 -59.333 -23.5 -112.333 -46.5 -159s-49.833 -87.834 -80.5 -123.501s-63.167 -65.667 -97.5 -90s-67.5 -43.5 -99.5 -57.5c22.667 -22.667 42.167 -48.834 58.501 -78.501
c16.333 -29.667 28.833 -61.334 37.5 -95.001s13 -68.167 13 -103.5s-5 -70 -15 -104z" />
    <glyph glyph-name="oangthai" unicode="&#xe2d;" horiz-adv-x="1737" 
d="M868 1311c-156 0 -254.336 -71.001 -295.003 -213.001h-524c22.667 92 57.667 176.167 105 252.5s105.833 141.833 175.5 196.5s149.667 97.167 240 127.5s189.833 45.5 298.5 45.5c143.333 0 267 -22.667 371 -68s189.5 -107.666 256.5 -186.999
s116.5 -172.833 148.5 -280.5s48 -223.834 48 -348.501c0 -78 -7.16699 -153.667 -21.5 -227s-36.333 -142.333 -66 -207s-67 -123.834 -112 -177.501s-97.833 -100 -158.5 -139s-129.5 -69.167 -206.5 -90.5s-162.167 -32 -255.5 -32c-94.667 0 -180.667 10.667 -258 32
s-146.166 51.166 -206.499 89.499s-112.5 84.333 -156.5 138s-80.333 112.834 -109 177.501s-50 133.834 -64 207.501s-21 149.834 -21 228.501v118h815v-340h-294c22.667 -86.667 58.834 -149.834 108.501 -189.501s111.5 -59.5 185.5 -59.5
c100.667 0 177.834 38 231.501 114s80.5 195 80.5 357c0 84 -6.5 155.833 -19.5 215.5s-32.5 108.834 -58.5 147.501s-58.833 67 -98.5 85s-86.167 27 -139.5 27z" />
    <glyph glyph-name="honokhukthai" unicode="&#xe2e;" horiz-adv-x="1729" 
d="M868 1311c-156 0 -254.335 -71 -295.002 -213h-524c22.667 92 57.667 176.167 105 252.5s105.833 141.833 175.5 196.5s149.667 97.167 240 127.5s189.833 45.5 298.5 45.5c54 0 105.167 -3.66699 153.5 -11s94.166 -17.333 137.499 -30
c14.667 7.33301 28 17.166 40 29.499s22.333 26 31 41s15.334 31 20.001 48s7 33.5 7 49.5h480c0 -38.667 -5 -78.334 -15 -119.001s-24.333 -79.5 -43 -116.5s-41.334 -71 -68.001 -102s-57 -56.167 -91 -75.5c57.333 -78.667 100.333 -168.667 129 -270
s43 -210.666 43 -327.999c0 -78 -7.16699 -153.667 -21.5 -227s-36.333 -142.333 -66 -207s-67 -123.834 -112 -177.501s-97.833 -100 -158.5 -139s-129.5 -69.167 -206.5 -90.5s-162.167 -32 -255.5 -32c-94.667 0 -180.667 10.667 -258 32
s-146.166 51.166 -206.499 89.499s-112.5 84.333 -156.5 138s-80.333 112.834 -109 177.501s-50 133.834 -64 207.501s-21 149.834 -21 228.501v118h815v-340h-294c22.667 -86.667 58.834 -149.834 108.501 -189.501s111.5 -59.5 185.5 -59.5
c100.667 0 177.834 38 231.501 114s80.5 195 80.5 357c0 84 -6.5 155.833 -19.5 215.5s-32.5 108.834 -58.5 147.501s-58.833 67 -98.5 85s-86.167 27 -139.5 27z" />
    <glyph glyph-name="paiyannoithai" unicode="&#xe2f;" horiz-adv-x="1810" 
d="M1200 0l0.000976562 692.002c-25.333 -13.333 -50.333 -25.333 -75 -36s-50 -19.667 -76 -27s-53.5 -13 -82.5 -17s-60.5 -6 -94.5 -6c-118 0 -223.5 13.5 -316.5 40.5s-171.833 65.333 -236.5 115s-114.167 109.667 -148.5 180s-51.5 148.5 -51.5 234.5
c0 63.333 9.16699 119.666 27.5 168.999s43 92.666 74 129.999s67.167 69 108.5 95s85 47 131 63s93 27.667 141 35s94.667 11 140 11h271v-385h-221c-28 0 -52.167 -4 -72.5 -12s-37.333 -18.667 -51 -32s-23.834 -28.5 -30.501 -45.5s-10 -34.833 -10 -53.5
c0 -24.667 3.66699 -47.167 11 -67.5s20 -38 38 -53s41.833 -26.667 71.5 -35s67.167 -12.5 112.5 -12.5c106.667 0 190 22.667 250 68s90 114 90 206v422h496v-1679h-496z" />
    <glyph glyph-name="saraathai" unicode="&#xe30;" horiz-adv-x="1044" 
d="M119 1032v467h385v-123h450v-344h-835zM119 201v463h385v-123h450v-340h-835z" />
    <glyph glyph-name="maihanakatthai" unicode="&#xe31;" 
d="M-1143 1876v504h410v-144h839v-360h-1249z" />
    <glyph glyph-name="saraaathai" unicode="&#xe32;" horiz-adv-x="1470" 
d="M37 1090c0 105.333 18.333 197.166 55 275.499s85.167 143.5 145.5 195.5s129.333 90.833 207 116.5s157.5 38.5 239.5 38.5c59.333 0 117.166 -5.16699 173.499 -15.5s109.333 -26 159 -47s95.334 -47.333 137.001 -79s77.5 -69 107.5 -112s53.333 -91.833 70 -146.5
s25 -115 25 -181v-1135h-500v1081c0 84 -14.333 144 -43 180s-71.667 54 -129 54c-49.333 0 -89.5 -17.667 -120.5 -53s-49.5 -92.666 -55.5 -171.999h-471z" />
    <glyph glyph-name="saraamthai" unicode="&#xe33;" horiz-adv-x="1470" 
d="M-504 2224c0 -16 3.5 -31.667 10.5 -47s16.5 -29 28.5 -41s25.667 -21.5 41 -28.5s31 -10.5 47 -10.5c17.333 0 34 3.5 50 10.5s30 16.5 42 28.5s21.5 25.667 28.5 41s10.5 31 10.5 47c0 17.333 -3.5 34 -10.5 50s-16.5 30 -28.5 42s-26 21.5 -42 28.5
s-32.667 10.5 -50 10.5c-16 0 -31.667 -3.5 -47 -10.5s-29 -16.5 -41 -28.5s-21.5 -26 -28.5 -42s-10.5 -32.667 -10.5 -50zM508 1090c6 79.333 24.5 136.666 55.5 171.999s71.167 53 120.5 53c57.333 0 100.333 -18 129 -54s43 -96 43 -180v-1081h500v1135
c0 66 -8.33301 126.333 -25 181s-40 103.5 -70 146.5s-65.833 80.333 -107.5 112s-87.334 58 -137.001 79s-102.667 36.667 -159 47s-114.166 15.5 -173.499 15.5c-82 0 -161.833 -12.833 -239.5 -38.5s-146.667 -64.5 -207 -116.5s-108.833 -117.167 -145.5 -195.5
s-55 -170.166 -55 -275.499h471zM-754 2224c0 53.333 9.83301 103.166 29.5 149.5c19.667 46.333 46.5 86.666 80.5 121c34 34.333 74 61.333 120 81s95 29.5 147 29.5c50 0 98 -9.83301 144 -29.5s86.5 -46.667 121.5 -81s63 -74.666 84 -121
c21 -46.333 31.5 -96.166 31.5 -149.5c0 -52 -10.5 -101 -31.5 -147s-49 -86 -84 -120s-75.5 -60.833 -121.5 -80.5s-94 -29.5 -144 -29.5c-52 0 -101 9.83301 -147 29.5s-86 46.5 -120 80.5s-60.833 74 -80.5 120s-29.5 95 -29.5 147z" />
    <glyph glyph-name="saraithai" unicode="&#xe34;" 
d="M-1720 1876l164 360h1441v-360h-1605z" />
    <glyph glyph-name="saraiithai" unicode="&#xe35;" 
d="M-1556 2236h1003v258h438v-618h-1605z" />
    <glyph glyph-name="sarauethai" unicode="&#xe36;" 
d="M-709 2249c0 42.667 8.16504 83 24.498 121s39 71 68 99s63.333 50.167 103 66.5s82.5 24.5 128.5 24.5c51.333 0 97 -9.5 137 -28.5s73.833 -44 101.5 -75s48.834 -66.833 63.501 -107.5s22 -82.334 22 -125c0 -49.333 -9.16699 -95.166 -27.5 -137.5
c-18.333 -42.333 -43.166 -79 -74.499 -110s-67.833 -55.5 -109.5 -73.5s-86.167 -27 -133.5 -27h-1314l164 360h847v13zM-496.002 2228c0 -14 3 -27.5 9 -40.5s14 -24.333 24 -34s21.667 -17.334 35 -23c13.333 -5.66699 27.666 -8.5 42.999 -8.5
s29.666 2.83301 42.999 8.5s25 13.334 35 23c10 9.66699 18 21 24 34s9 26.5 9 40.5c0 15.333 -3 29.833 -9 43.5s-14 25.5 -24 35.5s-21.667 17.833 -35 23.5s-27.666 8.5 -42.999 8.5s-29.666 -2.83301 -42.999 -8.5s-25 -13.5 -35 -23.5s-18 -21.833 -24 -35.5
s-9 -28.167 -9 -43.5z" />
    <glyph glyph-name="saraueethai" unicode="&#xe37;" 
d="M-1556 2236h655v258h328v-258h131v258h327v-618h-1605z" />
    <glyph glyph-name="sarauthai" unicode="&#xe38;" 
d="M-578 -963v422h-188v340h651v-762h-463z" />
    <glyph glyph-name="sarauuthai" unicode="&#xe39;" 
d="M-1323 -201l594 0.00195312v-303c0 -43.333 6 -76 18 -98s34.667 -33 68 -33c32.667 0 55.167 11 67.5 33s18.5 54.667 18.5 98v303h442v-303c0 -62.667 -9.83301 -121.834 -29.5 -177.501s-50.667 -104.334 -93 -146.001s-97 -74.667 -164 -99
s-147.5 -36.5 -241.5 -36.5c-87.333 0 -163 11.833 -227 35.5s-117.5 55.667 -160.5 96s-76 87 -99 140s-36.833 108.833 -41.5 167.5h-152v323z" />
    <glyph glyph-name="phinthuthai" unicode="&#xe3a;" 
d="M-664 -430c0 40.667 8.16699 79.5 24.5 116.5s38.333 69.167 66 96.5s59.834 49.166 96.501 65.499s75.667 24.5 117 24.5c40 0 78 -8.16699 114 -24.5s67.667 -38.166 95 -65.499s49.166 -59.5 65.499 -96.5s24.5 -75.833 24.5 -116.5c0 -40 -8.16699 -78 -24.5 -114
s-38.166 -67.833 -65.499 -95.5s-59 -49.5 -95 -65.5s-74 -24 -114 -24c-41.333 0 -80.333 8 -117 24s-68.834 37.833 -96.501 65.5s-49.667 59.5 -66 95.5s-24.5 74 -24.5 114z" />
    <glyph glyph-name="PUCR2005" unicode="&#xe3e;" 
 />
    <glyph glyph-name="bahtthai" unicode="&#xe3f;" horiz-adv-x="1946" 
d="M852 1999l-0.00195312 233.001h254v-233c38 -1.33301 76.5 -3.33301 115.5 -6s76.833 -7.16699 113.5 -13.5s71.5 -14.5 104.5 -24.5s62.5 -22.667 88.5 -38c36 -21.333 70.5 -46.666 103.5 -75.999s62.167 -62.666 87.5 -99.999s45.5 -78.5 60.5 -123.5
s22.5 -94.167 22.5 -147.5c0 -45.333 -5.33301 -87.833 -16 -127.5s-25.667 -76.334 -45 -110.001s-42.166 -64.167 -68.499 -91.5s-55.5 -51.333 -87.5 -72c44.667 -21.333 85.667 -47.833 123 -79.5s69.333 -67.334 96 -107.001s47.334 -82.5 62.001 -128.5
s22 -94 22 -144c0 -50.667 -6.83301 -100.834 -20.5 -150.501s-33.667 -97.167 -60 -142.5s-59 -87.333 -98 -126s-84 -72.167 -135 -100.5s-107.833 -50.5 -170.5 -66.5s-130.667 -24 -204 -24h-94v-274h-254v274h-709v1999h709zM1372 627.001
c0 36.667 -7.33203 67.8311 -21.999 93.498s-34.334 46.834 -59.001 63.501s-53 29.334 -85 38.001s-65.333 14.667 -100 18v-451c86.667 4 152.667 26 198 66s68 97.333 68 172zM851.999 388.998v455h-193v-455h193zM851.999 1204v406h-193v-406h193zM1290 1413
c0 34 -4.66895 62.335 -14.002 85.002s-22.166 41.167 -38.499 55.5s-35.666 25.166 -57.999 32.499s-46.833 12.666 -73.5 15.999v-385c64 12 110.667 33.833 140 65.5s44 75.167 44 130.5z" />
    <glyph glyph-name="saraethai" unicode="&#xe40;" horiz-adv-x="766" 
d="M131 0v1679h504v-1679h-504z" />
    <glyph glyph-name="saraaethai" unicode="&#xe41;" horiz-adv-x="1425" 
d="M115 0v1679h503v-1679h-503zM807 0v1679h504v-1679h-504z" />
    <glyph glyph-name="saraothai" unicode="&#xe42;" horiz-adv-x="852" 
d="M160 1929c0 30.667 -3.83301 59.667 -11.5 87s-19.667 51.166 -36 71.499s-37.5 36.5 -63.5 48.5s-57.333 18 -94 18l82 340h876l144 -372h-537c17.333 -12 34.333 -27.167 51 -45.5s31.5 -38.166 44.5 -59.499s23.5 -43.5 31.5 -66.5s12 -45.167 12 -66.5v-1519h168
v-365h-667v1929z" />
    <glyph glyph-name="saraaimaimuanthai" unicode="&#xe43;" horiz-adv-x="852" 
d="M659 369l172.001 0.000976562v-369h-667v1671c0 36 7.16699 70 21.5 102s32 62.167 53 90.5s43.333 55 67 80s44.834 48.833 63.501 71.5c26.667 31.333 49 60.333 67 86.999c18 26.667 27 52.334 27 77c0 6 -1 13.333 -3 22s-6 16.834 -12 24.5
c-6 7.66699 -14.333 14.167 -25 19.5s-24.667 8 -42 8c-25.333 0 -48.833 -6.66699 -70.5 -20s-40.334 -31.5 -56.001 -54.5s-27.834 -50 -36.501 -81s-13 -63.833 -13 -98.5h-344c0 96 15 179.5 45 250.5s69.667 129.833 119 176.5s105.666 81.334 168.999 104
c63.333 22.667 128.333 34 195 34c39.333 0 79.166 -3 119.499 -9s79.166 -15.333 116.499 -28s72.333 -28.834 105 -48.5c32.667 -19.667 61 -43.167 85 -70.5s43 -58.666 57 -94c14 -35.333 21 -75 21 -119c0 -22.667 -2.83301 -44 -8.5 -64s-13.167 -39.333 -22.5 -58
s-20.166 -36.834 -32.499 -54.501s-25.166 -35.167 -38.499 -52.5l-46 -62.5c-15.333 -21 -29.166 -43.167 -41.499 -66.5s-22.5 -48.666 -30.5 -75.999s-12.667 -57.333 -14 -90v-1302z" />
    <glyph glyph-name="saraaimaimalaithai" unicode="&#xe44;" horiz-adv-x="852" 
d="M-279 2122l143.999 372h958l82 -340c-36.667 0 -70.167 -6 -100.5 -18s-56.166 -28.167 -77.499 -48.5s-38 -44.166 -50 -71.499s-18 -56.333 -18 -87v-1548h168v-381h-667v1884c0 21.333 2.5 43.5 7.5 66.5s11.833 45.167 20.5 66.5s19 41.166 31 59.499
s25 33.5 39 45.5h-537z" />
    <glyph glyph-name="lakkhangyaothai" unicode="&#xe45;" horiz-adv-x="1470" 
d="M37 1090c0 105.333 18.333 197.166 55 275.499s85.167 143.5 145.5 195.5s129.333 90.833 207 116.5s157.5 38.5 239.5 38.5c59.333 0 117.166 -5.16699 173.499 -15.5s109.333 -26 159 -47s95.334 -47.333 137.001 -79s77.5 -69 107.5 -112s53.333 -91.833 70 -146.5
s25 -115 25 -181v-1680h-500v1626c0 84 -14.333 144 -43 180s-71.667 54 -129 54c-49.333 0 -89.5 -17.667 -120.5 -53s-49.5 -92.666 -55.5 -171.999h-471z" />
    <glyph glyph-name="maiyamokthai" unicode="&#xe46;" horiz-adv-x="1712" 
d="M557 1061c0.666992 -16.667 3.49805 -32.3311 8.49805 -46.998s12.167 -27.667 21.5 -39s21 -20.333 35 -27s30.667 -10 50 -10h114v-377h-155c-36 0 -73.5 3.83301 -112.5 11.5s-77.5 19.5 -115.5 35.5s-74.333 36.333 -109 61s-65.667 54 -93 88
s-50.166 72.833 -68.499 116.5s-29.833 92.5 -34.5 146.5c-7.33301 82 -1.5 160 17.5 234s52.667 140.667 101 200s112.333 109.666 192 150.999s176.834 70.333 291.501 87l156 -152l135 148c84 -6.66699 157.167 -20.667 219.5 -42s115.833 -48 160.5 -80
s81.334 -68.833 110.001 -110.5s51.334 -86.667 68.001 -135s28.167 -98.833 34.5 -151.5s9.5 -106.334 9.5 -161.001v-1549h-503v1557v74c0 28 -1.16699 55.333 -3.5 82s-6.33301 51.167 -12 73.5s-14.167 38.5 -25.5 48.5l-107 -114
c-10 -10.667 -22.167 -20.167 -36.5 -28.5s-30.833 -12.5 -49.5 -12.5c-20.667 0 -38.334 4.16699 -53.001 12.5s-27 17.833 -37 28.5l-148 139c-12 -11.333 -22.167 -26.833 -30.5 -46.5s-15 -41.5 -20 -65.5s-8.33301 -48.667 -10 -74s-1.83398 -49.333 -0.500977 -72z
" />
    <glyph glyph-name="maitaikhuthai" unicode="&#xe47;" 
d="M-1085 2327c0 -7.33301 0.999023 -16.6641 2.99902 -27.998c2 -11.333 5.83301 -22.166 11.5 -32.5c5.66699 -10.333 13.834 -19.333 24.501 -27s24.667 -11.5 42 -11.5c31.333 0 54.166 9.83301 68.499 29.5s20.166 52.167 17.499 97.5h263
c-2 -45.333 3.83301 -77.833 17.5 -97.5s35.167 -29.5 64.5 -29.5c28.667 0 46.834 10.333 54.501 31s8.5 52.667 2.5 96h332c10 -78 6.16699 -145.5 -11.5 -202.5s-44 -104.167 -79 -141.5s-75.667 -65 -122 -83s-93.166 -27 -140.499 -27
c-27.333 0 -53.166 3.5 -77.499 10.5s-46.833 16.333 -67.5 28s-39.5 25.167 -56.5 40.5s-31.5 31.333 -43.5 48c-13.333 -17.333 -29.5 -33.833 -48.5 -49.5s-40 -29.167 -63 -40.5s-47.167 -20.333 -72.5 -27s-51.333 -10 -78 -10c-52 0 -98.333 6.16699 -139 18.5
s-76.334 29.166 -107.001 50.499s-56.667 46.166 -78 74.499s-38.666 58.333 -51.999 90s-23 64 -29 97s-9 64.833 -9 95.5c0 50.667 7 96.834 21 138.5c14 41.667 33 79.167 57 112.5s52.333 62.5 85 87.5s67.667 45.667 105 62s76 28.666 116 37
c40 8.33301 80 12.5 120 12.5h876v-315h-848c-36.667 0 -65.667 -5 -87 -15s-37.333 -22 -48 -36s-17.334 -28.667 -20.001 -44s-4 -28.666 -4 -40z" />
    <glyph glyph-name="maiekthai" unicode="&#xe48;" 
d="M-545 3256h430v-598h-430v598z" />
    <glyph glyph-name="maithothai" unicode="&#xe49;" 
d="M-885 2658l-0.000976562 271h-143v270h504v-250c44 5.33301 84.167 15.333 120.5 30s67.333 33 93 55s45.667 47 60 75s21.5 58 21.5 90h340c0 -70 -14.167 -137.5 -42.5 -202.5s-71.166 -122.5 -128.499 -172.5s-129 -90.167 -215 -120.5s-187 -45.5 -303 -45.5h-307z
" />
    <glyph glyph-name="maitrithai" unicode="&#xe4a;" 
d="M-237 2654c0 19.333 -0.170898 41.833 -0.503906 67.5s-2.66602 49.834 -6.99902 72.5c-4.33301 22.667 -11.5 41.834 -21.5 57.5c-10 15.667 -24.667 23.5 -44 23.5c-15.333 0 -27.5 -4.33301 -36.5 -13s-15.833 -19.834 -20.5 -33.5
c-4.66699 -13.667 -7.83398 -28.834 -9.50098 -45.5c-1.66699 -16.667 -2.83398 -33 -3.50098 -49h-167c0 14 -0.666992 29.167 -2 45.5s-4.5 31.666 -9.5 46c-5 14.333 -12 26.166 -21 35.5c-9 9.33301 -20.833 14 -35.5 14c-18.667 0 -33.167 -7.66699 -43.5 -23
s-18 -34.333 -23 -57s-8 -46.667 -9 -72s-1.5 -48.333 -1.5 -69h-254c-5.33301 82 -0.833008 153.333 13.5 214s35.333 111 63 151s60 69.833 97 89.5s76.167 29.5 117.5 29.5c37.333 0 71.833 -9.16699 103.5 -27.5s59.834 -42.166 84.501 -71.5
c24.667 29.333 53.334 53.166 86.001 71.5c32.667 18.333 69.667 27.5 111 27.5c24.667 0 48.834 -3.83301 72.501 -11.5s45.834 -18.667 66.501 -33s38.834 -31.833 54.501 -52.5s27.5 -44.334 35.5 -71c9.33301 12 18.166 26.5 26.499 43.5s15.833 35.333 22.5 55
s11.834 40.334 15.501 62c3.66699 21.667 5.5 43.167 5.5 64.5h295c0 -36.667 -4.33301 -74.667 -13 -114s-20.834 -78 -36.501 -116s-34.5 -74.5 -56.5 -109.5s-46.167 -66.333 -72.5 -94s-54.666 -51 -84.999 -70s-61.5 -31.5 -93.5 -37.5h-204z" />
    <glyph glyph-name="maichattawathai" unicode="&#xe4b;" 
d="M-143 2871v-213h-377v213h-242v291h242v209h377v-209h241v-291h-241z" />
    <glyph glyph-name="thanthakhatthai" unicode="&#xe4c;" 
d="M-82 2773c-50 0 -94.334 -6.83301 -133.001 -20.5s-71.167 -33 -97.5 -58s-46.333 -54.833 -60 -89.5s-20.5 -73 -20.5 -115h-398c0 91.333 17.667 172.666 53 244c35.333 71.333 84.5 131.5 147.5 180.5s137.833 86.5 224.5 112.5s181.334 39.667 284.001 41v-295z" />
    <glyph glyph-name="nikhahitthai" unicode="&#xe4d;" 
d="M-504 2224c0 -16 3.5 -31.667 10.5 -47s16.5 -29 28.5 -41s25.667 -21.5 41 -28.5s31 -10.5 47 -10.5c17.333 0 34 3.5 50 10.5s30 16.5 42 28.5s21.5 25.667 28.5 41s10.5 31 10.5 47c0 17.333 -3.5 34 -10.5 50s-16.5 30 -28.5 42s-26 21.5 -42 28.5
s-32.667 10.5 -50 10.5c-16 0 -31.667 -3.5 -47 -10.5s-29 -16.5 -41 -28.5s-21.5 -26 -28.5 -42s-10.5 -32.667 -10.5 -50zM-754 2224c0 53.333 9.83301 103.166 29.5 149.5c19.667 46.333 46.5 86.666 80.5 121c34 34.333 74 61.333 120 81s95 29.5 147 29.5
c50 0 98 -9.83301 144 -29.5s86.5 -46.667 121.5 -81s63 -74.666 84 -121c21 -46.333 31.5 -96.166 31.5 -149.5c0 -52 -10.5 -101 -31.5 -147s-49 -86 -84 -120s-75.5 -60.833 -121.5 -80.5s-94 -29.5 -144 -29.5c-52 0 -101 9.83301 -147 29.5s-86 46.5 -120 80.5
s-60.833 74 -80.5 120s-29.5 95 -29.5 147z" />
    <glyph glyph-name="yamakkanthai" unicode="&#xe4e;" 
d="M-20 2372c-46 0 -83.668 -2.49805 -113.001 -7.49805s-52.333 -13 -69 -24s-28.167 -25.333 -34.5 -43s-9.5 -39.5 -9.5 -65.5v-94h-106c-32 0 -58.333 -5.16699 -79 -15.5s-37 -25.333 -49 -45s-20.333 -43.334 -25 -71.001s-7 -58.834 -7 -93.501h-393
c0 61.333 5.5 119 16.5 173s28.833 102.5 53.5 145.5s57.167 79.667 97.5 110s89.5 52.5 147.5 66.5c11.333 40 32.333 76.167 63 108.5s70.334 60.333 119.001 84s105.5 42.167 170.5 55.5s137.5 21 217.5 23v-307z" />
    <glyph glyph-name="fongmanthai" unicode="&#xe4f;" horiz-adv-x="2028" 
d="M131 836c0 81.333 10.5 159.5 31.5 234.5s50.833 145 89.5 210s85 124.333 139 178s114 99.5 180 137.5s136.833 67.5 212.5 88.5s154.5 31.5 236.5 31.5c80.667 0 158.167 -10.5 232.5 -31.5s144 -50.5 209 -88.5s124.167 -83.833 177.5 -137.5s99 -113 137 -178
s67.5 -135 88.5 -210s31.5 -153.167 31.5 -234.5s-10.5 -159.5 -31.5 -234.5s-50.5 -145.167 -88.5 -210.5s-83.667 -124.833 -137 -178.5s-112.5 -99.5 -177.5 -137.5s-134.667 -67.5 -209 -88.5s-151.833 -31.5 -232.5 -31.5c-82 0 -160.833 10.5 -236.5 31.5
s-146.5 50.5 -212.5 88.5s-126 83.833 -180 137.5s-100.333 113.167 -139 178.5s-68.5 135.5 -89.5 210.5s-31.5 153.167 -31.5 234.5zM549 844c0 62.667 12.5 122 37.5 178s58.833 105.167 101.5 147.5s92.5 75.833 149.5 100.5s117.833 37 182.5 37
c62.667 0 121.834 -12.333 177.501 -37s104.334 -58.167 146.001 -100.5s74.667 -91.5 99 -147.5s36.5 -115.333 36.5 -178c0 -64.667 -12.167 -125.334 -36.5 -182.001s-57.333 -106.167 -99 -148.5s-90.334 -75.666 -146.001 -99.999s-114.834 -36.5 -177.501 -36.5
c-64.667 0 -125.5 12.167 -182.5 36.5s-106.833 57.666 -149.5 99.999s-76.5 91.833 -101.5 148.5s-37.5 117.334 -37.5 182.001zM410 844c0 -55.333 7.16699 -108.833 21.5 -160.5s34.666 -100.167 60.999 -145.5s58 -86.666 95 -123.999s78.167 -69.5 123.5 -96.5
s94 -47.833 146 -62.5s106.333 -22 163 -22c54.667 0 107.5 7.33301 158.5 22s98.833 35.5 143.5 62.5s85.334 59.167 122.001 96.5s68.167 78.666 94.5 123.999s46.833 93.833 61.5 145.5s22 105.167 22 160.5c0 82.667 -16 160.667 -48 234s-75.333 137.166 -130 191.499
s-118.5 97.333 -191.5 129s-150.5 47.5 -232.5 47.5c-85.333 0 -165 -15.833 -239 -47.5s-138.5 -74.667 -193.5 -129s-98.333 -118.166 -130 -191.499s-47.5 -151.333 -47.5 -234zM799 844c0 -30.667 5.5 -59.5 16.5 -86.5s26.333 -50.5 46 -70.5s43 -35.667 70 -47
s56.5 -17 88.5 -17c28.667 0 55.667 5.66699 81 17s47.5 27 66.5 47s34 43.5 45 70.5s16.5 55.833 16.5 86.5c0 28.667 -5.5 55.834 -16.5 81.501s-26 48.167 -45 67.5s-41.167 34.833 -66.5 46.5s-52.333 17.5 -81 17.5c-32 0 -61.5 -5.83301 -88.5 -17.5
s-50.333 -27.167 -70 -46.5s-35 -41.833 -46 -67.5s-16.5 -52.834 -16.5 -81.501z" />
    <glyph glyph-name="zerothai" unicode="&#xe50;" horiz-adv-x="1929" 
d="M1815 754c0 -102 -10.6699 -192.33 -32.0029 -270.997s-51.166 -147.334 -89.499 -206.001s-83.833 -108 -136.5 -148s-110.5 -72.333 -173.5 -97s-129.833 -42.334 -200.5 -53.001s-142.667 -16 -216 -16c-74.667 0 -147.5 5.5 -218.5 16.5s-138 28.833 -201 53.5
s-121 57.167 -174 97.5s-98.667 89.833 -137 148.5s-68.166 127.167 -89.499 205.5s-32 168.166 -32 269.499c0 107.333 20.667 206 62 296s99.5 167.333 174.5 232s164.833 115 269.5 151s220 54 346 54c124.667 0 239 -18 343 -54s193.333 -86.333 268 -151
s132.834 -142 174.501 -232s62.5 -188.667 62.5 -296zM1331 717.003c0 68.667 -9.83105 127 -29.498 175s-46 87.333 -79 118s-71.667 53 -116 67s-90.833 21 -139.5 21c-49.333 0 -96.333 -7 -141 -21s-83.834 -36.333 -117.501 -67s-60.5 -70 -80.5 -118
s-30 -106.333 -30 -175c0 -52 8.83301 -100.333 26.5 -145s42.667 -83.334 75 -116.001s71.166 -58.167 116.499 -76.5s95.666 -27.5 150.999 -27.5s105.333 9.16699 150 27.5s82.834 43.833 114.501 76.5s56.167 71.334 73.5 116.001s26 93 26 145z" />
    <glyph glyph-name="onethai" unicode="&#xe51;" horiz-adv-x="1905" 
d="M856 -33c-61.333 0 -125.501 2.50098 -192.501 7.50098s-135.833 17.167 -206.5 36.5s-142.834 48 -216.501 86s-148.5 90.333 -224.5 157l271 221c38.667 -38 82.167 -67.5 130.5 -88.5s97.666 -36.5 147.999 -46.5s100 -16 149 -18s93.5 -3 133.5 -3
c70.667 0 133.334 9.5 188.001 28.5s100.834 47.333 138.501 85s66.334 84.667 86.001 141s29.5 121.833 29.5 196.5c0 112.667 -29.167 197.5 -87.5 254.5s-147.833 85.5 -268.5 85.5c-52 0 -100.167 -3.83301 -144.5 -11.5s-82.5 -19.5 -114.5 -35.5s-57 -36 -75 -60
s-27 -52.333 -27 -85c0 -26.667 7.33301 -50.834 22 -72.501s38.667 -39.334 72 -53.001s76.833 -22 130.5 -25s119.5 0.5 197.5 10.5v-303c-23.333 -7.33301 -47.333 -13.333 -72 -18s-48.334 -8.5 -71.001 -11.5s-43.334 -5 -62.001 -6s-33.667 -1.5 -45 -1.5
c-54 0 -106.833 5.16699 -158.5 15.5s-100.667 25.166 -147 44.499s-89.166 42.833 -128.499 70.5s-73.166 59.167 -101.499 94.5s-50.5 73.833 -66.5 115.5s-24 86.5 -24 134.5c0 68.667 11.167 130.834 33.5 186.501s52.833 104.834 91.5 147.501
s84.167 79.334 136.5 110.001s108.5 56 168.5 76s122.5 34.667 187.5 44s129.5 14 193.5 14c75.333 0 149 -5.83301 221 -17.5s139.833 -29.834 203.5 -54.501s122.167 -56.167 175.5 -94.5s99.333 -84 138 -137s68.667 -113.833 90 -182.5s32 -145.667 32 -231
c0 -120 -22.5 -229.5 -67.5 -328.5s-108.5 -184 -190.5 -255s-180.333 -126 -295 -165s-241.667 -58.5 -381 -58.5z" />
    <glyph glyph-name="twothai" unicode="&#xe52;" horiz-adv-x="2208" 
d="M1610 1012c0 20.667 -3.16602 39.8389 -9.49902 57.5059s-15.5 32.5 -27.5 44.5l-221 -180l-205 172c-6 -10.667 -11 -22.834 -15 -36.501s-6 -28.834 -6 -45.501v-61c0 -20.667 0.166992 -39.334 0.5 -56.001s2.33301 -31 6 -43s9.66699 -21.167 18 -27.5
s20.833 -9.5 37.5 -9.5h90v-327h-160c-68.667 0 -127 8.33301 -175 25s-87.667 38.834 -119 66.501s-55.666 59.167 -72.999 94.5s-30 71.833 -38 109.5s-12.5 75 -13.5 112s-0.833008 70.5 0.5 100.5c3.33301 61.333 16 118.333 38 171s53 99.5 93 140.5
s88.833 75.833 146.5 104.5s123.834 49.667 198.501 63l176 -152l188 148c74 -9.33301 144.5 -27.5 211.5 -54.5s126.167 -61 177.5 -102s92.166 -87.5 122.499 -139.5s45.5 -107.667 45.5 -167v-381c0 -76.667 -10.5 -146.167 -31.5 -208.5s-50.333 -118.166 -88 -167.499
s-82.167 -92 -133.5 -128s-107.333 -65.833 -168 -89.5s-124.834 -41.334 -192.501 -53.001s-136.167 -17.5 -205.5 -17.5h-221c-138 0 -264.333 16.667 -379 50s-213.167 80.333 -295.5 141s-146.166 133.667 -191.499 219s-68 179.666 -68 282.999v508
c0 54.667 -11.333 94.167 -34 118.5s-60.667 36.5 -114 36.5l127 352c72.667 0 140 -9.33301 202 -28s115.667 -46.834 161 -84.501s80.833 -85.167 106.5 -142.5s38.5 -125 38.5 -203v-566c0 -42 12.167 -82 36.5 -120s59.666 -71.5 105.999 -100.5
s103.666 -52 171.999 -69s146.5 -25.5 234.5 -25.5c82 0 151.667 7.66699 209 23s103.833 35.666 139.5 60.999s61.667 54.166 78 86.499s24.5 65.5 24.5 99.5v398v0z" />
    <glyph glyph-name="threethai" unicode="&#xe53;" horiz-adv-x="1925" 
d="M729 1110c-15.333 -8 -30.8359 -19.8252 -46.5029 -35.4922s-29.667 -35.834 -42 -60.501s-22.5 -54.667 -30.5 -90s-12 -77 -12 -125v-123c0 -46 0.5 -87.333 1.5 -124s4.5 -68.834 10.5 -96.501s15.333 -50.834 28 -69.501s30.334 -32.5 53.001 -41.5
s51.334 -13.167 86.001 -12.5s77.334 6 128.001 16v-328c-20.667 -6 -44.667 -11.5 -72 -16.5s-55.333 -9 -84 -12s-57 -4.83301 -85 -5.5s-52.667 0 -74 2c-72 9.33301 -133.833 27.166 -185.5 53.499s-95.167 57.833 -130.5 94.5s-63.5 77.667 -84.5 123
s-37 91.666 -48 138.999s-18.167 94.5 -21.5 141.5s-5 91.167 -5 132.5v102c0 116 16.5 216.167 49.5 300.5s79.5 155.166 139.5 212.499s131.667 102.166 215 134.499s175.333 54.166 276 65.499l176 -152l184 148c106.667 -6 201 -25.5 283 -58.5s151 -75.333 207 -127
s98.333 -110.834 127 -177.501s43 -137 43 -211v-909h-492v930c0 20.667 -2.5 40.834 -7.5 60.501s-11.833 38 -20.5 55s-19 31.833 -31 44.5s-25 22 -39 28l-262 -209z" />
    <glyph glyph-name="fourthai" unicode="&#xe54;" horiz-adv-x="1925" 
d="M938 1065c-112.667 0 -196.167 -21.998 -250.5 -65.998s-81.5 -104 -81.5 -180v-160c0 -43.333 4 -81.666 12 -114.999s22.333 -61.666 43 -84.999s49 -41.333 85 -54s82.333 -19.334 139 -20.001c-22.667 20.667 -40 45.834 -52 75.501s-18 63.167 -18 100.5
c0 17.333 1 37.833 3 61.5s8.33301 48.5 19 74.5s27.334 51.667 50.001 77s54.5 48 95.5 68s92.833 36.167 155.5 48.5s139.334 18.5 230.001 18.5v-331c-34 0 -61.333 -1.83301 -82 -5.5s-36.834 -8.83398 -48.501 -15.501s-19.5 -14.834 -23.5 -24.501s-6 -20.5 -6 -32.5
c0 -39.333 14 -68.333 42 -87s64.667 -28 110 -28h430v-385h-930c-92.667 0 -175.5 9.5 -248.5 28.5s-137 44.833 -192 77.5s-101.833 70.5 -140.5 113.5s-70.167 88.5 -94.5 136.5s-42 96.833 -53 146.5s-16.5 97.834 -16.5 144.501v156
c0 112.667 21.167 210.334 63.5 293.001s101.166 151.167 176.499 205.5s165.166 94.666 269.499 120.999s218.5 39.5 342.5 39.5h352c28 0 50.667 5.33301 68 16s31 25.667 41 45s16.833 42.166 20.5 68.499s5.5 55.5 5.5 87.5h459c0 -44.667 -3 -90.667 -9 -138
s-17 -93.833 -33 -139.5s-38 -88.834 -66 -129.501s-63.5 -76.334 -106.5 -107.001s-94.667 -55 -155 -73s-131.166 -27 -212.499 -27h-393z" />
    <glyph glyph-name="fivethai" unicode="&#xe55;" horiz-adv-x="1925" 
d="M938 1065c-112.667 0 -196.168 -20.6621 -250.501 -61.9951s-81.5 -100 -81.5 -176v-168c0 -43.333 4 -81.666 12 -114.999s22.333 -61.666 43 -84.999s49 -41.333 85 -54s82.333 -19.334 139 -20.001c-22.667 20.667 -40 45.834 -52 75.501s-18 63.167 -18 100.5
c0 17.333 1 37.833 3 61.5s8.33301 48.5 19 74.5s27.334 51.667 50.001 77s54.5 48 95.5 68s92.833 36.167 155.5 48.5s139.334 18.5 230.001 18.5v-331c-34 0 -61.333 -1.83301 -82 -5.5s-36.834 -8.83398 -48.501 -15.501s-19.5 -14.834 -23.5 -24.501s-6 -20.5 -6 -32.5
c0 -39.333 14 -68.333 42 -87s64.667 -28 110 -28h430v-385h-930c-92.667 0 -175.5 9.5 -248.5 28.5s-137 44.833 -192 77.5s-101.833 70.5 -140.5 113.5s-70.167 88.5 -94.5 136.5s-42 96.833 -53 146.5s-16.5 97.834 -16.5 144.501v156c0 86 13.333 163.167 40 231.5
s63.667 128.166 111 179.499s103.5 94.5 168.5 129.5s135.833 62.167 212.5 81.5v21c0 44 9 85.833 27 125.5s42.5 74.5 73.5 104.5s67.167 53.833 108.5 71.5s85 26.5 131 26.5c48 0 92.667 -8.33301 134 -25s77.166 -39.334 107.499 -68.001s54.5 -61.834 72.5 -99.501
s28 -77.5 30 -119.5c24.667 0.666992 45 6.66699 61 18s28.5 26.666 37.5 45.999s15.333 42 19 68s5.5 54.333 5.5 85h459c0 -44.667 -3.16699 -90.667 -9.5 -138s-17.666 -93.833 -33.999 -139.5s-38.333 -88.834 -66 -129.501s-63.167 -76.334 -106.5 -107.001
s-95 -55 -155 -73s-130.333 -27 -211 -27h-393zM876.999 1450c0 -14 2.83301 -27.5 8.5 -40.5s13.5 -24.5 23.5 -34.5s21.667 -17.833 35 -23.5s27.666 -8.5 42.999 -8.5s29.833 2.83301 43.5 8.5s25.5 13.5 35.5 23.5s17.833 21.5 23.5 34.5s8.5 26.5 8.5 40.5
c0 15.333 -2.83301 29.666 -8.5 42.999s-13.5 25 -23.5 35s-21.833 18 -35.5 24s-28.167 9 -43.5 9s-29.666 -3 -42.999 -9s-25 -14 -35 -24s-17.833 -21.667 -23.5 -35s-8.5 -27.666 -8.5 -42.999z" />
    <glyph glyph-name="sixthai" unicode="&#xe56;" horiz-adv-x="1958" 
d="M537 1376c66 33.333 139.838 58.5088 221.505 75.5088s168.834 27.5 261.501 31.5c100 2.66699 190 -3.83301 270 -19.5s150.667 -38.834 212 -69.501s113.666 -67.834 156.999 -111.501s78.666 -92 105.999 -145s47.333 -110 60 -171s18.667 -123.833 18 -188.5v-102
c0 -100.667 -19.5 -194.334 -58.5 -281.001s-95.5 -161.5 -169.5 -224.5s-164.833 -111.5 -272.5 -145.5s-230.167 -49 -367.5 -45c-102.667 2.66699 -198.334 15.667 -287.001 39s-165.834 56.5 -231.501 99.5s-117.167 95.667 -154.5 158s-56 134.166 -56 215.499
c0 80 14.667 147.167 44 201.5s69.666 98.166 120.999 131.499s111.5 57.166 180.5 71.499s143.5 21.5 223.5 21.5h135v-328h-123c-22.667 0 -41.334 -2.66699 -56.001 -8s-26.334 -12.833 -35.001 -22.5s-14.667 -21 -18 -34s-5 -27.167 -5 -42.5
c0 -21.333 6.83301 -39.5 20.5 -54.5s33.334 -27.333 59.001 -37s56.667 -17 93 -22s77.166 -8.16699 122.499 -9.5c50.667 -1.33301 94.834 3.66699 132.501 15s68.834 29.666 93.501 54.999s43 58.333 55 99s18 89.667 18 147v123c0 104.667 -24.167 182.667 -72.5 234
s-114.5 77 -198.5 77c-52 0 -104.333 -1.83301 -157 -5.5s-106.334 -11.834 -161.001 -24.501s-110.5 -30.834 -167.5 -54.501s-116.167 -55.5 -177.5 -95.5l-328 512l328 184z" />
    <glyph glyph-name="seventhai" unicode="&#xe57;" horiz-adv-x="2322" 
d="M1663 791l0.00390625 -118.998c-2 -43.333 -7.83301 -92 -17.5 -146s-25.834 -107.667 -48.501 -161c26.667 11.333 50 29.333 70 54s36.667 53.334 50 86.001s23.333 68 30 106s10 76 10 114v500c0 78 11.333 145.667 34 203s54.834 104.833 96.501 142.5
s92 65.834 151 84.501s124.833 28 197.5 28l127 -315c-26.667 0 -49.334 -4.83301 -68 -14.5c-18.667 -9.66699 -33.834 -23 -45.5 -40c-11.667 -17 -20.167 -37.333 -25.5 -61s-8 -49.167 -8 -76.5v-426c0 -68.667 -9.83301 -134 -29.5 -196s-47.667 -120.167 -84 -174.5
s-80.333 -104 -132 -149s-109.167 -84.833 -172.5 -119.5s-131.833 -63.667 -205.5 -87s-151.167 -39.666 -232.5 -48.999l-303 197c38.667 36 68.834 75 90.501 117s37.667 85 48 129s16.5 87.333 18.5 130s3 82.667 3 120v147c0 74 -7.33301 133.5 -22 178.5
s-33.334 79.833 -56.001 104.5l-221 -180l-222 184c-24.667 -24.667 -45.834 -61 -63.501 -109s-26.5 -110 -26.5 -186v-176c0 -18.667 0.833008 -39.334 2.5 -62.001s4.33398 -45.5 8.00098 -68.5s8.66699 -45.333 15 -67s14.166 -41 23.499 -58s20.333 -30.667 33 -41
s27.667 -15.5 45 -15.5c6 0 13.167 0.166992 21.5 0.5s18.666 1.16602 30.999 2.49902s27.166 3.33301 44.499 6s38.333 6.66699 63 12v-328c-78 -16 -150.333 -24 -217 -24c-89.333 0.666992 -168.833 17.5 -238.5 50.5s-128.334 79.167 -176.001 138.5
s-84 130.666 -109 213.999s-37.5 175.666 -37.5 276.999v110c0 106.667 15.167 201 45.5 283s73.5 152.5 129.5 211.5s123.333 106.667 202 143s166 61.5 262 75.5l172 -148l180 140c108.667 -14.667 198.667 -41.167 270 -79.5s128.333 -87 171 -146
s72.667 -127.833 90 -206.5s26 -165.334 26 -260.001z" />
    <glyph glyph-name="eightthai" unicode="&#xe58;" horiz-adv-x="1884" 
d="M877 1057c-51.333 0 -94.3311 -5.16699 -128.998 -15.5s-62.5 -24.833 -83.5 -43.5s-36 -41 -45 -67s-13.5 -55 -13.5 -87v-291c0 -20.667 3 -40.667 9 -60s14.167 -37.5 24.5 -54.5s22.166 -32.333 35.499 -46s27.333 -24.5 42 -32.5l237 201l254 -205
c27.333 8.66699 50 24.5 68 47.5s27 55.167 27 96.5c0 20.667 -2 38.167 -6 52.5s-11.833 26 -23.5 35s-27.834 15.667 -48.501 20s-48 6.5 -82 6.5v324h139c68 -2 127.167 -9 177.5 -21s93.333 -28 129 -48s64.667 -43.5 87 -70.5s39.833 -56.5 52.5 -88.5
s21.334 -66.167 26.001 -102.5s7 -73.5 7 -111.5c0 -168 -53 -296 -159 -384s-260.333 -132 -463 -132l-181 147l-172 -152c-103.333 7.33301 -196.333 27.666 -279 60.999s-153 76 -211 128s-102.667 111.333 -134 178s-47 137 -47 211v246c0 103.333 18 196 54 278
s87.833 151.5 155.5 208.5s150.334 100.667 248.001 131s208.5 45.5 332.5 45.5h357c26.667 0 48.667 5.33301 66 16s31.166 25.667 41.499 45s17.5 42.166 21.5 68.499s6 55.5 6 87.5h454c0 -44.667 -3.33301 -90.834 -10 -138.501s-18.334 -94.667 -35.001 -141
s-39 -90.166 -67 -131.499s-63.333 -77.666 -106 -108.999s-93.5 -56.166 -152.5 -74.499s-127.833 -27.5 -206.5 -27.5h-397z" />
    <glyph glyph-name="ninethai" unicode="&#xe59;" horiz-adv-x="1946" 
d="M1405 1483c24.667 0 44.6709 4.33398 60.0039 13.001s27.333 21.167 36 37.5s14.667 36.666 18 60.999s5 52.5 5 84.5h413c0 -44.667 -2.33301 -88.334 -7 -131.001s-13.834 -83 -27.501 -121s-32.667 -73.167 -57 -105.5s-56.333 -60.333 -96 -84s-88 -42 -145 -55
s-124.833 -19.5 -203.5 -19.5c-6 0 -13.833 -0.833008 -23.5 -2.5s-15.5 -3.5 -17.5 -5.5l-49 -49l544 -1106h-471l-471 958c-14 26.667 -27.5 50.667 -40.5 72s-26.5 39.333 -40.5 54s-29.333 26 -46 34s-35.667 12 -57 12s-40.833 -5.5 -58.5 -16.5
s-32.834 -29.667 -45.501 -56s-22.334 -61.833 -29.001 -106.5s-10 -101 -10 -169v-151c0.666992 -30 3 -62 7 -96s11.333 -65.5 22 -94.5s25.334 -53 44.001 -72s43.334 -28.5 74.001 -28.5c12.667 0 31.5 1.33301 56.5 4s58.167 8 99.5 16l61 -340
c-19.333 -4 -43.166 -8.5 -71.499 -13.5s-57.833 -9.5 -88.5 -13.5s-61 -7 -91 -9s-57 -2 -81 0c-70.667 8 -132.834 24 -186.501 48s-99.834 53.333 -138.501 88s-70.834 73.5 -96.501 116.5s-46 87.833 -61 134.5s-25.667 93.834 -32 141.501s-9.5 93.834 -9.5 138.501
v119c0 233.333 52.167 410.5 156.5 531.5s265.166 181.5 482.499 181.5c19.333 0 40.5 -0.166992 63.5 -0.5s46.167 -1.5 69.5 -3.5s46.166 -5.33301 68.499 -10s42.5 -11 60.5 -19c24.667 -10 47.167 -22.833 67.5 -38.5s38.833 -32.834 55.5 -51.501l74 82
c8 8 19.333 16.833 34 26.5s33.334 14.5 56.001 14.5h123z" />
    <glyph glyph-name="angkhankhuthai" unicode="&#xe5a;" horiz-adv-x="2474" 
d="M1864 0v1679h495v-1679h-495zM1696 0l-0.000976562 1679h-496v-422c0 -92 -30 -160.667 -90 -206s-143.333 -68 -250 -68c-45.333 0 -82.833 4.16699 -112.5 12.5s-53.5 20 -71.5 35s-30.667 32.667 -38 53s-11 42.833 -11 67.5c0 18.667 3.33301 36.5 10 53.5
s16.834 32.167 30.501 45.5s30.667 24 51 32s44.5 12 72.5 12h221v385h-271c-45.333 0 -92 -3.66699 -140 -11s-95 -19 -141 -35s-89.667 -37 -131 -63s-77.5 -57.667 -108.5 -95s-55.667 -80.666 -74 -129.999s-27.5 -105.666 -27.5 -168.999
c0 -86 17.167 -164.167 51.5 -234.5s83.833 -130.333 148.5 -180s143.5 -88 236.5 -115s198.5 -40.5 316.5 -40.5c34 0 65.5 2 94.5 6s56.5 9.66699 82.5 17s51.333 16.333 76 27s49.667 22.667 75 36v-692h496z" />
    <glyph glyph-name="khomutthai" unicode="&#xe5b;" horiz-adv-x="3899" 
d="M3035 819l-50.498 -73.5l-61 -96c-22.333 -36.333 -46.666 -78.333 -73 -126c-26.333 -47.667 -54.833 -102.167 -85.5 -163.5c-45.333 91.333 -88 173.166 -128 245.499s-76.667 135.5 -110 189.5c-34.667 -60 -74.334 -137.833 -119 -233.5
c-44.667 -95.667 -89.667 -210.5 -135 -344.5c-45.333 128 -88.5 236 -129.5 324s-76.833 159 -107.5 213c-16.667 -79.333 -42 -154.333 -76 -225s-75.167 -135.834 -123.5 -195.501s-102.5 -113.334 -162.5 -161.001s-124.333 -88.167 -193 -121.5s-140.5 -59 -215.5 -77
s-151.5 -27 -229.5 -27c-102.667 0 -196.667 11.167 -282 33.5s-161.833 53.833 -229.5 94.5s-126.667 89.167 -177 145.5s-92.166 118.666 -125.499 186.999s-58.166 141.333 -74.499 219s-24.5 158.167 -24.5 241.5c0 73.333 6.83301 145.5 20.5 216.5
s34.667 138.5 63 202.5s63.666 123.333 105.999 178s92.333 101.834 150 141.501s123 70.667 196 93s153.833 33.5 242.5 33.5c87.333 0 164.666 -10 231.999 -30s126 -47.667 176 -83s92.167 -77 126.5 -125s62 -100.333 83 -157s36 -116.167 45 -178.5
s13.5 -125.166 13.5 -188.499l-426 -4c0 60 -3.33301 112.667 -10 158s-18.334 83.333 -35.001 114s-38.667 54.167 -66 70.5s-61.333 26.166 -102 29.499c-54 -1.33301 -101.333 -15.166 -142 -41.499s-74.5 -61.666 -101.5 -105.999s-47.167 -96 -60.5 -155
s-20 -121.833 -20 -188.5c0 -65.333 10.833 -128.166 32.5 -188.499s52.334 -113.5 92.001 -159.5s87.5 -82.833 143.5 -110.5s118.333 -41.5 187 -41.5c73.333 0 140 12.167 200 36.5s113.833 58 161.5 101s89.167 94.167 124.5 153.5s64.666 124.166 87.999 194.499
s40.666 144.833 51.999 223.5s17 159 17 241l266 144c60 -66 116.167 -131.167 168.5 -195.5s95.833 -123.5 130.5 -177.5l60.5 91.5l66 99l65.5 96l58 82.5l69.5 -100l69 -99.5l62.5 -92c19.333 -29 35.666 -54.833 49 -77.5l55 78.5c18 25.667 35.333 48.834 52 69.501
h626l262 -398h-737z" />
    <glyph glyph-name="ZWSP" unicode="&#x200b;" 
 />
    <glyph glyph-name="endash" unicode="&#x2013;" horiz-adv-x="1733" 
d="M1733 975v-365h-1733v365h1733z" />
    <glyph glyph-name="emdash" unicode="&#x2014;" horiz-adv-x="3195" 
d="M3195 975v-365h-3195v365h3195z" />
    <glyph glyph-name="quoteleft" unicode="&#x2018;" horiz-adv-x="852" 
d="M193 1221l0.000976562 359.998c0 42.667 3.83301 85.834 11.5 129.501s19.5 85.834 35.5 126.501s36.5 78.5 61.5 113.5s54.5 65.5 88.5 91.5s73 46.5 117 61.5s93.333 22.5 148 22.5v-254c-32.667 0 -59.334 -7 -80.001 -21s-37 -31.667 -49 -53
s-20.5 -44.5 -25.5 -69.5s-7.83301 -48.167 -8.5 -69.5h143v-438h-442z" />
    <glyph glyph-name="quoteright" unicode="&#x2019;" horiz-adv-x="852" 
d="M659 2048l-0.00195312 -359.998c0 -42.667 -3.66699 -85.834 -11 -129.501s-19 -85.834 -35 -126.501s-36.333 -78.5 -61 -113.5s-54 -65.5 -88 -91.5s-73.167 -46.5 -117.5 -61.5s-94.166 -22.5 -149.499 -22.5v254c32.667 0 59.334 7 80.001 21s37 31.667 49 53
s20.333 44.5 25 69.5s7.66699 48.167 9 69.5h-143v438h442z" />
    <glyph glyph-name="quotedblleft" unicode="&#x201c;" horiz-adv-x="1438" 
d="M180 1221l0.00195312 359.998c0 42.667 3.66699 85.834 11 129.501s19 85.834 35 126.501s36.333 78.5 61 113.5s54.167 65.5 88.5 91.5s73.666 46.5 117.999 61.5s94.166 22.5 149.499 22.5v-254c-32.667 0 -59.5 -7 -80.5 -21s-37.5 -31.667 -49.5 -53
s-20.5 -44.5 -25.5 -69.5s-7.83301 -48.167 -8.5 -69.5h144v-438h-443zM795.002 1221l0.00195312 359.998c0 42.667 3.66699 85.834 11 129.501s19 85.834 35 126.501s36.333 78.5 61 113.5s54 65.5 88 91.5s73.167 46.5 117.5 61.5s94.166 22.5 149.499 22.5v-254
c-32.667 0 -59.334 -7 -80.001 -21s-37 -31.667 -49 -53s-20.5 -44.5 -25.5 -69.5s-7.83301 -48.167 -8.5 -69.5h143v-438h-442z" />
    <glyph glyph-name="quotedblright" unicode="&#x201d;" horiz-adv-x="1438" 
d="M643 2048l-0.00195312 -359.998c0 -42.667 -3.66699 -85.834 -11 -129.501s-19 -85.834 -35 -126.501s-36.333 -78.5 -61 -113.5s-54.167 -65.5 -88.5 -91.5s-73.666 -46.5 -117.999 -61.5s-94.166 -22.5 -149.499 -22.5v254c32.667 0 59.5 7 80.5 21
s37.5 31.667 49.5 53s20.333 44.5 25 69.5s7.66699 48.167 9 69.5h-143v438h442zM1257 2048l-0.00195312 -359.998c0 -42.667 -3.66699 -85.834 -11 -129.501s-19 -85.834 -35 -126.501s-36.333 -78.5 -61 -113.5s-54 -65.5 -88 -91.5s-73.167 -46.5 -117.5 -61.5
s-94.166 -22.5 -149.499 -22.5v254c32.667 0 59.334 7 80.001 21s37 31.667 49 53s20.333 44.5 25 69.5s7.66699 48.167 9 69.5h-143v438h442z" />
    <glyph glyph-name="bullet" unicode="&#x2022;" horiz-adv-x="1171" 
d="M74 860c0 42.667 6.16699 84.5 18.5 125.5s29.5 79.5 51.5 115.5s48.5 69.167 79.5 99.5s65.333 56.5 103 78.5s78 39 121 51s87.833 18 134.5 18c70.667 0 137.167 -13.333 199.5 -40s117 -62.5 164 -107.5s84.167 -96.833 111.5 -155.5s41 -120.334 41 -185.001
c0 -68.667 -13.667 -133 -41 -193s-64.5 -112.333 -111.5 -157s-101.667 -80 -164 -106s-128.833 -39 -199.5 -39c-46.667 0 -91.5 5.83301 -134.5 17.5s-83.333 28.334 -121 50.001s-72 47.5 -103 77.5s-57.5 63.333 -79.5 100s-39.167 76 -51.5 118s-18.5 86 -18.5 132z
" />
    <glyph glyph-name="Euro" unicode="&#x20ac;" horiz-adv-x="2232" 
d="M1659 1327c-7.33301 48 -22 91.3301 -44 129.997s-50 71.334 -84 98.001s-73.833 47.167 -119.5 61.5s-95.5 21.5 -149.5 21.5c-57.333 0 -109.166 -7 -155.499 -21s-87.833 -33.667 -124.5 -59s-68.334 -55.5 -95.001 -90.5s-49.334 -73.5 -68.001 -115.5h438v-283h-503
v-147h503v-283h-430c18.667 -39.333 41.334 -75.166 68.001 -107.499s58 -60.333 94 -84s76.667 -42 122 -55s95.666 -19.5 150.999 -19.5c121.333 0 216.333 34.5 285 103.5s111.334 169.5 128.001 301.5h508c-11.333 -124.667 -42.666 -237.5 -94 -338.5
c-51.333 -101 -117.833 -187 -199.5 -258s-176 -125.833 -283 -164.5s-221.833 -58 -344.5 -58c-133.333 0 -254 15.833 -362 47.5s-203 77 -285 136s-150.667 130.333 -206 214s-97.333 177.834 -126 282.501h-250v283h205v147h-205v283h250
c28.667 105.333 71 200.833 127 286.5s125 158.834 207 219.501s177 107.5 285 140.5s228 49.5 360 49.5c72.667 0 144.334 -7.16699 215.001 -21.5s138.167 -35.333 202.5 -63s124.166 -61.834 179.499 -102.501s104.333 -87.667 147 -141s78 -112.833 106 -178.5
s46.333 -137.167 55 -214.5h-508z" />
    <glyph glyph-name="trademark" unicode="&#x2122;" horiz-adv-x="2753" 
d="M799 1745v-954h-324v954h-328v254h979v-254h-327zM2298 791v708l-279 -708h-184l-283 704v-704h-303v1208h410l270 -692l271 692h405v-1208h-307z" />
    <glyph glyph-name="uni25CC" unicode="&#x25cc;" horiz-adv-x="1868" 
d="M569 455l65.998 159c14.667 -22.667 30.334 -43.167 47.001 -61.5s36.334 -34.5 59.001 -48.5zM933.998 1303l74 -156c-27.333 6 -55 8.33301 -83 7s-52.333 -5 -73 -11zM933.998 303l-74 152.001c24.667 -6.66699 47.5 -9.83398 68.5 -9.50098s46.167 4.83301 75.5 13.5
zM1434 803.001l-156 -69.999c8 22.667 12.167 46.167 12.5 70.5s-2.5 50.166 -8.5 77.499zM433.998 807.002l160 78c-4 -24.667 -6.5 -50.167 -7.5 -76.5s1.5 -52.833 7.5 -79.5zM597.998 1159l164 -56.998c-28.667 -14.667 -53.167 -30.334 -73.5 -47.001
s-36.833 -35.334 -49.5 -56.001zM1274 451.004l-152 48.999c22.667 14 42.5 29.333 59.5 46s32.833 35.334 47.5 56.001zM1298 1159l-69 -164c-14.667 22.667 -31.667 43.167 -51 61.5s-39.333 34.833 -60 49.5z" />
    <glyph glyph-name="thothannobasethai" unicode="&#xf700;" horiz-adv-x="1647" 
d="M393 618l-163.998 -0.00390625v345h537l131 -398c16.667 46 33.5 95.333 50.5 148s32.5 103 46.5 151s25.5 90.833 34.5 128.5s14.167 64.5 15.5 80.5c6.66699 78.667 -9.16602 138.667 -47.499 180s-94.833 62 -169.5 62c-32.667 0 -63 -3.66699 -91 -11
s-53.167 -19.666 -75.5 -36.999s-41.5 -40.5 -57.5 -69.5s-28.667 -64.833 -38 -107.5h-495c16 92 45 176.333 87 253s95.667 142.667 161 198s141.833 98.333 229.5 129s185.167 46 292.5 46c43.333 0 88.5 -3 135.5 -9s93.167 -15.333 138.5 -28
c12 7.33301 23.167 16.833 33.5 28.5s19.166 24.834 26.499 39.501s13.166 29.834 17.499 45.501s7.16602 31.167 8.49902 46.5h479c-1.33301 -36 -6.33301 -73.833 -15 -113.5s-21.667 -78 -39 -115s-39.166 -71.167 -65.499 -102.5s-57.5 -56 -93.5 -74
c29.333 -43.333 51.666 -91.833 66.999 -145.5s23 -114.5 23 -182.5c0 -36.667 -5.5 -80.5 -16.5 -131.5s-26 -106.667 -45 -167s-41.167 -124.166 -66.5 -191.499l-81 -205.5l-88 -209l-88 -201.5h-557z" />
    <glyph glyph-name="saraileftthai" unicode="&#xf701;" 
d="M-1933 1876l164 360h1044v-360h-1208z" />
    <glyph glyph-name="saraiileftthai" unicode="&#xf702;" 
d="M-1769 2236h606v258h438v-618h-1208z" />
    <glyph glyph-name="saraueleftthai" unicode="&#xf703;" 
d="M-1331 2249c0 42.667 8.16602 83 24.499 121s39 71 68 99s63.167 50.167 102.5 66.5s82 24.5 128 24.5c55.333 0 103.333 -9.5 144 -28.5s74.334 -44 101.001 -75s46.5 -66.833 59.5 -107.5s19.5 -82.334 19.5 -125c0 -49.333 -8.16699 -95.166 -24.5 -137.5
c-16.333 -42.333 -39.5 -79 -69.5 -110s-66.167 -55.5 -108.5 -73.5s-89.5 -27 -141.5 -27h-905l164 360h438v13zM-1118 2228c0 -14 2.83301 -27.5 8.5 -40.5s13.5 -24.333 23.5 -34s21.667 -17.334 35 -23c13.333 -5.66699 27.666 -8.5 42.999 -8.5
s29.833 2.83301 43.5 8.5s25.5 13.334 35.5 23c10 9.66699 17.833 21 23.5 34s8.5 26.5 8.5 40.5c0 15.333 -2.83301 29.833 -8.5 43.5s-13.5 25.5 -23.5 35.5s-21.833 17.833 -35.5 23.5s-28.167 8.5 -43.5 8.5s-29.666 -2.83301 -42.999 -8.5s-25 -13.5 -35 -23.5
s-17.833 -21.833 -23.5 -35.5s-8.5 -28.167 -8.5 -43.5z" />
    <glyph glyph-name="saraueeleftthai" unicode="&#xf704;" 
d="M-1769 2236h274v258h319v-258h132v258h319v-618h-1208z" />
    <glyph glyph-name="maieklowleftthai" unicode="&#xf705;" 
d="M-1196 2519h418v-598h-418v598z" />
    <glyph glyph-name="maitholowleftthai" unicode="&#xf706;" 
d="M-1503 1921l-0.000976562 270h-127v271h422v-250c40.667 0 77.834 7 111.501 21s62.5 32.667 86.5 56s42.667 50 56 80s20 61 20 93h295c0 -70 -12.667 -137.5 -38 -202.5s-63.333 -122.5 -114 -172.5s-114.167 -90.167 -190.5 -120.5s-165.5 -45.5 -267.5 -45.5h-254z
" />
    <glyph glyph-name="maitrilowleftthai" unicode="&#xf707;" 
d="M-1122 1921c0 16.667 -0.164062 36.4961 -0.49707 59.4961s-2.33301 45 -6 66s-9.83398 38.833 -18.501 53.5s-21.667 22 -39 22c-12 0 -21.667 -3.83301 -29 -11.5s-13 -17.5 -17 -29.5s-7 -25.167 -9 -39.5s-3.33301 -27.833 -4 -40.5h-152
c0 14.667 -0.666992 29.334 -2 44.001s-4 27.667 -8 39s-9.66699 20.5 -17 27.5s-16.666 10.5 -27.999 10.5c-18 0 -31.833 -6.83301 -41.5 -20.5s-16.667 -30.667 -21 -51s-7 -42.166 -8 -65.499s-1.5 -44.666 -1.5 -63.999h-217
c-5.33301 80.667 -1.83301 150.667 10.5 210.001c12.333 59.333 30.333 108.333 54 147s52 67.334 85 86c33 18.667 67.833 28 104.5 28c31.333 0 60.666 -8.5 87.999 -25.5s51.333 -39.833 72 -68.5c22.667 28.667 48.167 51.5 76.5 68.5s60.166 25.5 95.499 25.5
c45.333 0 86.666 -13.667 123.999 -41s64.333 -67 81 -119c8 11.333 15.5 25.166 22.5 41.5c7 16.333 13 34 18 53s9 39 12 60s4.5 41.833 4.5 62.5h258c0 -53.333 -8.16699 -109 -24.5 -167s-38.333 -112.333 -66 -163s-60.167 -94 -97.5 -130s-77 -58.667 -119 -68h-180z
" />
    <glyph glyph-name="maichattawalowleftthai" unicode="&#xf708;" 
d="M-950 2130v-209h-369v209h-233v278h233v205h369v-205h233v-278h-233z" />
    <glyph glyph-name="thanthakhatlowleftthai" unicode="&#xf709;" 
d="M-721 2204c-50 0 -94.333 -6.83301 -133 -20.5s-71.167 -33 -97.5 -58s-46.333 -54.833 -60 -89.5s-20.5 -73 -20.5 -115h-398c0 91.333 17.833 172.5 53.5 243.5s85 131.167 148 180.5s137.833 87 224.5 113s181 39.667 283 41v-295z" />
    <glyph glyph-name="maieklowrightthai" unicode="&#xf70a;" 
d="M-598 2519h483v-598h-483v598z" />
    <glyph glyph-name="maitholowrightthai" unicode="&#xf70b;" 
d="M-1065 1921l0.000976562 311h-143v271h503v-250c43.333 0 83.666 7 120.999 21s69.833 32.667 97.5 56s49.5 50 65.5 80s24 61 24 93h327c0 -46.667 -6.33301 -93.334 -19 -140c-12.667 -46.667 -31.5 -91.667 -56.5 -135s-56.5 -83.666 -94.5 -120.999
s-82.5 -69.833 -133.5 -97.5s-108.5 -49.334 -172.5 -65.001s-134.667 -23.5 -212 -23.5h-307z" />
    <glyph glyph-name="maitrilowrightthai" unicode="&#xf70c;" 
d="M-664 1921c0 20.667 -0.828125 43.334 -2.49512 68.001s-5.33398 47.667 -11.001 69s-14 39.333 -25 54s-25.833 22 -44.5 22c-14.667 0 -26.667 -4.33301 -36 -13s-16.833 -19.5 -22.5 -32.5s-9.5 -27.333 -11.5 -43s-3 -30.5 -3 -44.5h-187c0 16 -1.33301 32 -4 48
s-7 30.167 -13 42.5s-14 22.5 -24 30.5s-22.333 12 -37 12c-19.333 0 -34.666 -6.66699 -45.999 -20s-20 -30.333 -26 -51s-9.83301 -43.667 -11.5 -69s-2.5 -49.666 -2.5 -72.999h-328c-5.33301 82 2.66699 154.333 24 217s50 115.334 86 158
c36 42.667 76.5 74.834 121.5 96.5c45 21.667 89.167 32.5 132.5 32.5c21.333 0 42.166 -2.83301 62.499 -8.5s39.666 -13.334 57.999 -23c18.333 -9.66699 35.333 -21 51 -34s29.5 -26.833 41.5 -41.5c27.333 29.333 59.833 54.5 97.5 75.5s80.5 31.5 128.5 31.5
c29.333 0 57.833 -4.83301 85.5 -14.5s53 -23 76 -40s43.167 -37 60.5 -60s30.666 -47.833 39.999 -74.5c9.33301 12.667 18.166 27.5 26.499 44.5s15.666 35.333 21.999 55s11.333 40.334 15 62c3.66699 21.667 5.5 43.167 5.5 64.5h349
c0 -55.333 -9.83301 -112.833 -29.5 -172.5s-46.167 -115.334 -79.5 -167.001s-72.5 -95.834 -117.5 -132.501s-92.5 -59.667 -142.5 -69h-279z" />
    <glyph glyph-name="maichattawalowrightthai" unicode="&#xf70d;" 
d="M-131 2134v-213h-459v213h-241v332h241v209h459v-209h242v-332h-242z" />
    <glyph glyph-name="thanthakhatlowrightthai" unicode="&#xf70e;" 
d="M-82 2204c-50 0 -92.334 -6.83203 -127.001 -20.499s-62.5 -33 -83.5 -58s-36.167 -54.833 -45.5 -89.5s-14 -73 -14 -115h-479c0 91.333 19.833 174.666 59.5 249.999s93.5 140.166 161.5 194.5c68 54.333 147.333 96.666 238 127
c90.667 30.333 187.334 46.166 290.001 47.5v-336z" />
    <glyph glyph-name="yoyingnobasethai" unicode="&#xf70f;" horiz-adv-x="2666" 
d="M1135 1032c0 38 -3.49512 74.3291 -10.4951 108.996s-21 65.167 -42 91.5s-50.833 47.333 -89.5 63s-89.667 23.5 -153 23.5c-42 0 -79 -5.33301 -111 -16s-60 -24.167 -84 -40.5s-44.167 -34.333 -60.5 -54s-29.5 -38.834 -39.5 -57.501
c17.333 -16.667 32.833 -33.167 46.5 -49.5s25.167 -34.333 34.5 -54s16.5 -41.334 21.5 -65.001s7.5 -50.834 7.5 -81.501v-536h172v-365h-671v905c0 18.667 -2.16699 37.834 -6.5 57.501s-11.833 39 -22.5 58s-25.334 37.5 -44.001 55.5s-42.334 34.667 -71.001 50
c11.333 48 28.666 95.833 51.999 143.5s52.166 93.334 86.499 137.001s74.5 84.334 120.5 122.001s97.667 70.334 155 98.001s120.5 49.5 189.5 65.5s143.833 24 224.5 24c96 0 182.5 -9.16699 259.5 -27.5s145 -43.833 204 -76.5s109.667 -71.334 152 -116.001
s77 -93.667 104 -147s46.833 -109.666 59.5 -168.999s19 -119.666 19 -180.999v-385c0 -84.667 18.333 -148.834 55 -192.501s88 -65.5 154 -65.5c63.333 0 112.666 20.5 147.999 61.5s53 106.5 53 196.5v1065h504v-1130c0 -101.333 -19.167 -189.166 -57.5 -263.499
s-90 -135.666 -155 -183.999s-140 -84.166 -225 -107.499s-174.167 -35 -267.5 -35c-96 0 -187.167 11.5 -273.5 34.5s-162 58.5 -227 106.5s-116.5 109.167 -154.5 183.5s-57 162.833 -57 265.5v483z" />
    <glyph glyph-name="maihanakatleftthai" unicode="&#xf710;" 
d="M-1282 1876v504h410v-144h1081v-360h-1491z" />
    <glyph glyph-name="nikhahitleftthai" unicode="&#xf711;" 
d="M-1196 2224c0 -16 3.5 -31.667 10.5 -47s16.333 -29 28 -41s25.167 -21.5 40.5 -28.5s31.333 -10.5 48 -10.5c17.333 0 34 3.5 50 10.5s30 16.5 42 28.5s21.5 25.667 28.5 41s10.5 31 10.5 47c0 17.333 -3.5 34 -10.5 50s-16.5 30 -28.5 42s-26 21.5 -42 28.5
s-32.667 10.5 -50 10.5c-16.667 0 -32.667 -3.5 -48 -10.5s-28.833 -16.5 -40.5 -28.5s-21 -26 -28 -42s-10.5 -32.667 -10.5 -50zM-1446 2224c0 53.333 9.83301 103.166 29.5 149.5c19.667 46.333 46.5 86.666 80.5 121c34 34.333 74 61.333 120 81s95 29.5 147 29.5
c50 0 98 -9.83301 144 -29.5s86.5 -46.667 121.5 -81s63 -74.666 84 -121c21 -46.333 31.5 -96.166 31.5 -149.5c0 -52 -10.5 -101 -31.5 -147s-49 -86 -84 -120s-75.5 -60.833 -121.5 -80.5s-94 -29.5 -144 -29.5c-52 0 -101 9.83301 -147 29.5s-86 46.5 -120 80.5
s-60.833 74 -80.5 120s-29.5 95 -29.5 147z" />
    <glyph glyph-name="maitaikhuleftthai" unicode="&#xf712;" 
d="M-1552 2343c0 -7.33301 0.998047 -16.5 2.99805 -27.5s5.66699 -21.833 11 -32.5s13.166 -19.667 23.499 -27s23.5 -11 39.5 -11c29.333 0 50.833 9.5 64.5 28.5s19.5 50.167 17.5 93.5h250c-2 -43.333 3.83301 -74.5 17.5 -93.5s33.834 -28.5 60.501 -28.5
s43.834 10.167 51.501 30.5s8.16699 50.833 1.5 91.5h320c6 -50.667 6 -95.667 0 -135s-16.5 -73.833 -31.5 -103.5s-34 -54.834 -57 -75.501s-48 -37.5 -75 -50.5s-55.667 -22.333 -86 -28s-60.5 -8.5 -90.5 -8.5c-26 0 -50.5 3.5 -73.5 10.5s-44.167 16.333 -63.5 28
s-36.833 24.834 -52.5 39.501s-29.167 29.667 -40.5 45c-13.333 -16.667 -29.166 -32.334 -47.499 -47c-18.333 -14.667 -38.333 -27.667 -60 -39s-44.5 -20.333 -68.5 -27s-48.333 -10 -73 -10c-72.667 0 -134.334 12 -185.001 36s-91.667 54.333 -123 91
s-54.166 77.167 -68.499 121.5s-21.5 87.166 -21.5 128.5c0 72.667 13 136.334 39 191c26 54.667 61 100.334 105 137c44 36.667 94.667 64.167 152 82.5s117 27.5 179 27.5h816v-307h-783c-34.667 0 -62 -4.83301 -82 -14.5s-35.167 -21.5 -45.5 -35.5
s-16.833 -28.5 -19.5 -43.5s-4 -27.5 -4 -37.5z" />
    <glyph glyph-name="maiekupperleftthai" unicode="&#xf713;" 
d="M-1155 3256h430v-598h-430v598z" />
    <glyph glyph-name="maithoupperleftthai" unicode="&#xf714;" 
d="M-1290 2658l0.000976562 271h-144v270h463v-250c42.667 0 83 6.5 121 19.5s71.167 30.833 99.5 53.5s50.666 49.167 66.999 79.5s24.5 62.833 24.5 97.5h323c0 -70 -14.167 -137.5 -42.5 -202.5s-71 -122.5 -128 -172.5s-128.5 -90.167 -214.5 -120.5
s-187 -45.5 -303 -45.5h-266z" />
    <glyph glyph-name="maitriupperleftthai" unicode="&#xf715;" 
d="M-868 2654c0 19.333 -0.170898 41.833 -0.503906 67.5s-2.66602 49.834 -6.99902 72.5c-4.33301 22.667 -11.5 41.834 -21.5 57.5c-10 15.667 -24.667 23.5 -44 23.5c-15.333 0 -27.5 -4.33301 -36.5 -13s-15.833 -19.834 -20.5 -33.5
c-4.66699 -13.667 -7.83398 -28.834 -9.50098 -45.5c-1.66699 -16.667 -2.83398 -33 -3.50098 -49h-167c0 14 -0.666992 29.167 -2 45.5s-4.5 31.666 -9.5 46c-5 14.333 -12 26.166 -21 35.5c-9 9.33301 -20.833 14 -35.5 14c-18.667 0 -33.167 -7.66699 -43.5 -23
s-18 -34.333 -23 -57s-8 -46.667 -9 -72s-1.5 -48.333 -1.5 -69h-254c-5.33301 82 -0.833008 153.333 13.5 214s35.333 111 63 151s60 69.833 97 89.5s76.167 29.5 117.5 29.5c37.333 0 71.833 -9.16699 103.5 -27.5s59.834 -42.166 84.501 -71.5
c24.667 29.333 53.334 53.166 86.001 71.5c32.667 18.333 69.667 27.5 111 27.5c24.667 0 48.834 -3.83301 72.501 -11.5s45.834 -18.667 66.501 -33s38.834 -31.833 54.501 -52.5s27.5 -44.334 35.5 -71c9.33301 12 18.166 26.5 26.499 43.5s15.833 35.333 22.5 55
s11.834 40.334 15.501 62c3.66699 21.667 5.5 43.167 5.5 64.5h295c0 -36.667 -4.33301 -74.667 -13 -114s-20.834 -78 -36.501 -116s-34.5 -74.5 -56.5 -109.5s-46.167 -66.333 -72.5 -94s-54.666 -51 -84.999 -70s-61.5 -31.5 -93.5 -37.5h-204z" />
    <glyph glyph-name="maichattawaupperleftthai" unicode="&#xf716;" 
d="M-729 2871v-213h-377v213h-242v291h242v209h377v-209h242v-291h-242z" />
    <glyph glyph-name="thanthakhatupperleftthai" unicode="&#xf717;" 
d="M-426 2753c-50 0 -94.334 -6.83301 -133.001 -20.5s-71.167 -33 -97.5 -58s-46.333 -54.833 -60 -89.5s-20.5 -73 -20.5 -115h-398c0 90.667 17.667 171.667 53 243s84.5 131.5 147.5 180.5s137.833 86.5 224.5 112.5s181.334 39.667 284.001 41v-294z" />
    <glyph glyph-name="saraulowthai" unicode="&#xf718;" 
d="M-578 -1446v381h-188v340h651v-721h-463z" />
    <glyph glyph-name="sarauulowthai" unicode="&#xf719;" 
d="M-1323 -725h572.998v-262c0 -43.333 8.5 -76 25.5 -98s44.167 -33 81.5 -33c70.667 0 106 43.667 106 131v262h422v-262c0 -62.667 -10.667 -122.834 -32 -180.501s-53.666 -108.667 -96.999 -153s-98.166 -79.666 -164.499 -105.999s-144.5 -39.5 -234.5 -39.5
c-81.333 0 -153.5 10.833 -216.5 32.5s-116.833 51.167 -161.5 88.5s-79.667 81.5 -105 132.5s-40.333 105.5 -45 163.5h-152v324z" />
    <glyph glyph-name="phinthulowthai" unicode="&#xf71a;" 
d="M-672 -1008c0 40.667 8.16699 79.5 24.5 116.5s38.333 69.167 66 96.5s59.834 49.166 96.501 65.499s75.334 24.5 116.001 24.5c40 0 78 -8.16699 114 -24.5s67.833 -38.166 95.5 -65.499s49.5 -59.5 65.5 -96.5s24 -75.833 24 -116.5c0 -40 -8 -78 -24 -114
s-37.833 -67.667 -65.5 -95s-59.5 -49.166 -95.5 -65.499s-74 -24.5 -114 -24.5c-40.667 0 -79.334 8.16699 -116.001 24.5s-68.834 38.166 -96.501 65.499s-49.667 59 -66 95s-24.5 74 -24.5 114z" />
    <glyph glyph-name="lochula.short" unicode="&#xf71d;" horiz-adv-x="2195" 
d="M1769 0l-356.002 0.00292969l-311 848l-299 -848h-365l-438 1679h541l155 -856l222 594h372l234 -635l73 324c9.33301 44.667 16.666 84 21.999 118s4 62.5 -4 85.5s-25.333 40.667 -52 53s-67 19.5 -121 21.5v304c51.333 0.666992 96.833 5.66699 136.5 15
s73.834 23.5 102.501 42.5s51.334 43.5 68.001 73.5s27.667 66.667 33 110h549c-8 -59.333 -23.5 -112.333 -46.5 -159s-49.833 -87.834 -80.5 -123.501s-63.167 -65.667 -97.5 -90s-67.5 -43.5 -99.5 -57.5c22.667 -22.667 42.167 -48.834 58.501 -78.501
c16.333 -29.667 28.833 -61.334 37.5 -95.001s13 -68.167 13 -103.5s-5 -70 -15 -104z" />
    <glyph glyph-name="rulakkhangyao" unicode="&#xf881;" horiz-adv-x="2728" 
d="M1688 -545l-503.997 0.00292969v1577c0 38.667 -4 75.667 -12 111s-24 66.333 -48 93s-57.667 47.834 -101 63.501s-100.333 23.5 -171 23.5c-50 0 -93.5 -5.66699 -130.5 -17s-68.333 -25.666 -94 -42.999s-46.167 -36.333 -61.5 -57s-26.666 -40.334 -33.999 -59.001
c17.333 -15.333 32.5 -31 45.5 -47s23.667 -33.667 32 -53s14.666 -40.833 18.999 -64.5s6.5 -50.834 6.5 -81.501v-536h172v-365h-668v905c0 18.667 -2 37.834 -6 57.501s-11.333 39.167 -22 58.5s-25.334 38.333 -44.001 57s-42.334 36 -71.001 52
c12 47.333 29.5 94.666 52.5 141.999s52 92.666 87 135.999s76 83.666 123 120.999s100.167 69.833 159.5 97.5s125.166 49.5 197.499 65.5s151.166 24 236.499 24c66.667 0 128.167 -4.83301 184.5 -14.5s108.333 -23 156 -40s90.667 -36.833 129 -59.5
s72.833 -47.334 103.5 -74.001c32.667 28.667 67.834 54.5 105.501 77.5s76.667 42.667 117 59s81.833 29 124.5 38s85.667 13.5 129 13.5c59.333 0 118.166 -5.16699 176.499 -15.5s113.833 -26 166.5 -47s101.5 -47.333 146.5 -79s84 -69 117 -112
s58.833 -91.833 77.5 -146.5s28 -115 28 -181v-1680h-499v1610c0 48 -5.5 88 -16.5 120s-26.167 57.667 -45.5 77s-42 33 -68 41s-53.667 12 -83 12c-24.667 0 -49.667 -4.16699 -75 -12.5s-48.166 -21.833 -68.499 -40.5s-37 -43.167 -50 -73.5s-19.5 -67.5 -19.5 -111.5
v-1622z" />
    <glyph glyph-name="lulakkhangyao" unicode="&#xf882;" horiz-adv-x="2707" 
d="M49 0l0.00390625 365.006h156v540c0 18.667 -2.16699 37.834 -6.5 57.501s-11.833 39.167 -22.5 58.5s-25.334 38.333 -44.001 57s-42.334 36 -71.001 52c11.333 47.333 28.666 94.666 51.999 141.999s52.5 92.666 87.5 135.999s76 83.666 123 120.999
s100.333 69.833 160 97.5s125.667 49.5 198 65.5s151.166 24 236.499 24c125.333 0 234.333 -13.167 327 -39.5s172 -62.166 238 -107.499c60 49.333 127.833 86.166 203.5 110.499s153.834 36.5 234.501 36.5c59.333 0 117.166 -5.16699 173.499 -15.5s109.333 -26 159 -47
s95.334 -47.333 137 -79c41.667 -31.667 77.5 -69 107.5 -112s53.333 -91.833 70 -146.5s25 -115 25 -181v-1680h-500v1626c0 84 -14.333 144 -43 180s-71.667 54 -129 54c-47.333 0 -85.833 -15.333 -115.5 -46s-48.5 -81 -56.5 -151
c2 -16.667 3.16699 -32.834 3.5 -48.501s0.5 -30.834 0.5 -45.501v-1569h-504v1536c0 38.667 -4.16699 78 -12.5 118s-24.5 76.167 -48.5 108.5s-57.667 58.666 -101 78.999s-99.666 30.5 -168.999 30.5c-54.667 0.666992 -100.667 -4.83301 -138 -16.5
s-68.333 -26.5 -93 -44.5s-43.834 -37.667 -57.501 -59s-24.167 -41.333 -31.5 -60c17.333 -15.333 32.5 -31.5 45.5 -48.5s23.667 -35.5 32 -55.5s14.5 -42.333 18.5 -67s6 -52.334 6 -83.001v-893h-651z" />
    <glyph glyph-name=".null" 
 />
    <glyph glyph-name="nonmarkingreturn" horiz-adv-x="791" 
 />
    <glyph glyph-name="yamakkanleftthai" 
d="M-680 2372c-46 0 -83.6689 -2.49805 -113.002 -7.49805s-52.166 -13 -68.499 -24s-27.666 -25.333 -33.999 -43s-9.5 -39.5 -9.5 -65.5v-94h-107c-32 0 -58.167 -5.16699 -78.5 -15.5s-36.5 -25.333 -48.5 -45s-20.333 -43.334 -25 -71.001s-7 -58.834 -7 -93.501h-394
c0 61.333 5.5 119 16.5 173s29 102.5 54 145.5s57.5 79.667 97.5 110s89.333 52.5 148 66.5c11.333 40 32.333 76.167 63 108.5s70.167 60.333 118.5 84s105 42.167 170 55.5s137.5 21 217.5 23v-307z" />
    <glyph glyph-name="saraamleft" horiz-adv-x="1470" 
d="M-1196 2224c0 -16 3.5 -31.667 10.5 -47s16.333 -29 28 -41s25.167 -21.5 40.5 -28.5s31.333 -10.5 48 -10.5c17.333 0 34 3.5 50 10.5s30 16.5 42 28.5s21.5 25.667 28.5 41s10.5 31 10.5 47c0 17.333 -3.5 34 -10.5 50s-16.5 30 -28.5 42s-26 21.5 -42 28.5
s-32.667 10.5 -50 10.5c-16.667 0 -32.667 -3.5 -48 -10.5s-28.833 -16.5 -40.5 -28.5s-21 -26 -28 -42s-10.5 -32.667 -10.5 -50zM508 1090c6 79.333 24.5 136.666 55.5 171.999s71.167 53 120.5 53c57.333 0 100.333 -18 129 -54s43 -96 43 -180v-1081h500v1135
c0 66 -8.33301 126.333 -25 181s-40 103.5 -70 146.5s-65.833 80.333 -107.5 112s-87.334 58 -137.001 79s-102.667 36.667 -159 47s-114.166 15.5 -173.499 15.5c-82 0 -161.833 -12.833 -239.5 -38.5s-146.667 -64.5 -207 -116.5s-108.833 -117.167 -145.5 -195.5
s-55 -170.166 -55 -275.499h471zM-1446 2224c0 53.333 9.83301 103.166 29.5 149.5c19.667 46.333 46.5 86.666 80.5 121c34 34.333 74 61.333 120 81s95 29.5 147 29.5c50 0 98 -9.83301 144 -29.5s86.5 -46.667 121.5 -81s63 -74.666 84 -121
c21 -46.333 31.5 -96.166 31.5 -149.5c0 -52 -10.5 -101 -31.5 -147s-49 -86 -84 -120s-75.5 -60.833 -121.5 -80.5s-94 -29.5 -144 -29.5c-52 0 -101 9.83301 -147 29.5s-86 46.5 -120 80.5s-60.833 74 -80.5 120s-29.5 95 -29.5 147z" />
    <glyph glyph-name="uni0E33.alt1" horiz-adv-x="1470" 
d="M508 1090c6 79.333 24.5 136.666 55.5 171.999s71.167 53 120.5 53c57.333 0 100.333 -18 129 -54s43 -96 43 -180v-1081h500v1135c0 66 -8.33301 126.333 -25 181s-40 103.5 -70 146.5s-65.833 80.333 -107.5 112s-87.334 58 -137.001 79s-102.667 36.667 -159 47
s-114.166 15.5 -173.499 15.5c-82 0 -161.833 -12.833 -239.5 -38.5s-146.667 -64.5 -207 -116.5s-108.833 -117.167 -145.5 -195.5s-55 -170.166 -55 -275.499h471zM-1196 2224c0 -16 3.5 -31.667 10.5 -47s16.333 -29 28 -41s25.167 -21.5 40.5 -28.5
s31.333 -10.5 48 -10.5c17.333 0 34 3.5 50 10.5s30 16.5 42 28.5s21.5 25.667 28.5 41s10.5 31 10.5 47c0 17.333 -3.5 34 -10.5 50s-16.5 30 -28.5 42s-26 21.5 -42 28.5s-32.667 10.5 -50 10.5c-16.667 0 -32.667 -3.5 -48 -10.5s-28.833 -16.5 -40.5 -28.5
s-21 -26 -28 -42s-10.5 -32.667 -10.5 -50zM-1446 2224c0 53.333 9.83301 103.166 29.5 149.5c19.667 46.333 46.5 86.666 80.5 121c34 34.333 74 61.333 120 81s95 29.5 147 29.5c50 0 98 -9.83301 144 -29.5s86.5 -46.667 121.5 -81s63 -74.666 84 -121
c21 -46.333 31.5 -96.166 31.5 -149.5c0 -52 -10.5 -101 -31.5 -147s-49 -86 -84 -120s-75.5 -60.833 -121.5 -80.5s-94 -29.5 -144 -29.5c-52 0 -101 9.83301 -147 29.5s-86 46.5 -120 80.5s-60.833 74 -80.5 120s-29.5 95 -29.5 147z" />
    <glyph glyph-name="saraithai.alt1" 
d="M-1479 1876l164 360h1196v-360h-1360z" />
    <glyph glyph-name="saraiithai.alt1" 
d="M-1315 2236h758v258h438v-618h-1360z" />
    <glyph glyph-name="sarauethai.alt1" 
d="M-713 2249c0 42.667 8.16699 83 24.5 121s39 71 68 99s63.333 50.167 103 66.5s82.5 24.5 128.5 24.5c51.333 0 97 -9.5 137 -28.5s73.833 -44 101.5 -75s48.667 -66.833 63 -107.5s21.5 -82.334 21.5 -125c0 -49.333 -9 -95.166 -27 -137.5
c-18 -42.333 -42.667 -79 -74 -110s-67.833 -55.5 -109.5 -73.5s-86.167 -27 -133.5 -27h-1069l164 360h602v13zM-500 2228c0 -14 2.83301 -27.5 8.5 -40.5s13.5 -24.333 23.5 -34s21.833 -17.334 35.5 -23c13.667 -5.66699 28.167 -8.5 43.5 -8.5
s29.666 2.83301 42.999 8.5s25 13.334 35 23c10 9.66699 17.833 21 23.5 34s8.5 26.5 8.5 40.5c0 15.333 -2.83301 29.833 -8.5 43.5s-13.5 25.5 -23.5 35.5s-21.667 17.833 -35 23.5s-27.666 8.5 -42.999 8.5s-29.833 -2.83301 -43.5 -8.5s-25.5 -13.5 -35.5 -23.5
s-17.833 -21.833 -23.5 -35.5s-8.5 -28.167 -8.5 -43.5z" />
    <glyph glyph-name="saraueethai.alt1" 
d="M-1315 2236h410v258h327v-258h132v258h327v-618h-1360z" />
    <glyph glyph-name="saraithai.alt2" 
d="M-2220 1876l164 360h1360v-360h-1524z" />
    <glyph glyph-name="saraiithai.alt2" 
d="M-2056 2236h921v258h439v-618h-1524z" />
    <glyph glyph-name="sarauethai.alt2" 
d="M-1319 2249c0 42.667 8.16797 83 24.501 121s39 71 68 99s63.333 50.167 103 66.5s82.5 24.5 128.5 24.5c50.667 0 96.167 -9.5 136.5 -28.5s74.166 -44 101.499 -75s48.333 -66.833 63 -107.5s22 -82.334 22 -125c0 -49.333 -9 -95.166 -27 -137.5
c-18 -42.333 -42.667 -79 -74 -110s-67.833 -55.5 -109.5 -73.5s-86.167 -27 -133.5 -27h-1204l164 360h737v13zM-1106 2228c0 -14 2.83301 -27.5 8.5 -40.5s13.5 -24.333 23.5 -34s21.833 -17.334 35.5 -23c13.667 -5.66699 28.167 -8.5 43.5 -8.5
s29.666 2.83301 42.999 8.5s25 13.334 35 23c10 9.66699 17.833 21 23.5 34s8.5 26.5 8.5 40.5c0 15.333 -2.83301 29.833 -8.5 43.5s-13.5 25.5 -23.5 35.5s-21.667 17.833 -35 23.5s-27.666 8.5 -42.999 8.5s-29.833 -2.83301 -43.5 -8.5s-25.5 -13.5 -35.5 -23.5
s-17.833 -21.833 -23.5 -35.5s-8.5 -28.167 -8.5 -43.5z" />
    <glyph glyph-name="saraueethai.alt2" 
d="M-2056 2236h573v258h328v-258h131v258h328v-618h-1524z" />
    <glyph glyph-name="maiekthai.alt2" 
d="M-1126 3256h430v-598h-430v598z" />
    <glyph glyph-name="maithothai.alt2" 
d="M-1270 2658v271h-143v270h463v-250c44.667 0 86.167 7 124.5 21s71.166 32.667 98.499 56s48.833 50 64.5 80s23.5 61 23.5 93h324c0 -70 -14.167 -137.5 -42.5 -202.5s-71.166 -122.5 -128.499 -172.5s-129 -90.167 -215 -120.5s-187 -45.5 -303 -45.5h-266z" />
    <glyph glyph-name="maitrithai.alt2" 
d="M-848 2654c0 19.333 -0.170898 41.833 -0.503906 67.5s-2.66602 49.834 -6.99902 72.5c-4.33301 22.667 -11.5 41.834 -21.5 57.5c-10 15.667 -24.667 23.5 -44 23.5c-15.333 0 -27.5 -4.33301 -36.5 -13s-15.833 -19.834 -20.5 -33.5
c-4.66699 -13.667 -7.83398 -28.834 -9.50098 -45.5c-1.66699 -16.667 -2.83398 -33 -3.50098 -49h-167c0 14 -0.666992 29.167 -2 45.5s-4.5 31.666 -9.5 46c-5 14.333 -12 26.166 -21 35.5c-9 9.33301 -20.833 14 -35.5 14c-18.667 0 -33.167 -7.66699 -43.5 -23
s-18 -34.333 -23 -57s-8 -46.667 -9 -72s-1.5 -48.333 -1.5 -69h-254c-5.33301 82 -0.833008 153.333 13.5 214s35.333 111 63 151s60 69.833 97 89.5s76.167 29.5 117.5 29.5c37.333 0 71.833 -9.16699 103.5 -27.5s59.834 -42.166 84.501 -71.5
c24.667 29.333 53.334 53.166 86.001 71.5c32.667 18.333 69.667 27.5 111 27.5c24.667 0 48.834 -3.83301 72.501 -11.5s45.834 -18.667 66.501 -33s38.834 -31.833 54.501 -52.5s27.5 -44.334 35.5 -71c9.33301 12 18.166 26.5 26.499 43.5s15.833 35.333 22.5 55
s11.834 40.334 15.501 62c3.66699 21.667 5.5 43.167 5.5 64.5h295c0 -36.667 -4.33301 -74.667 -13 -114s-20.834 -78 -36.501 -116s-34.5 -74.5 -56.5 -109.5s-46.167 -66.333 -72.5 -94s-54.666 -51 -84.999 -70s-61.5 -31.5 -93.5 -37.5h-204z" />
    <glyph glyph-name="maichattawathai.alt2" 
d="M-700 2871v-213h-377v213h-242v291h242v209h377v-209h241v-291h-241z" />
    <glyph glyph-name="saraithai.alt3" 
d="M-2166 1876l163 360h1884v-360h-2047z" />
    <glyph glyph-name="saraiithai.alt3" 
d="M-2002 2236h1449v258h438v-618h-2051z" />
    <glyph glyph-name="sarauethai.alt3" 
d="M-721 2249c0 42.667 8.16797 83 24.501 121s39 71 68 99s63.333 50.167 103 66.5s82.5 24.5 128.5 24.5c50.667 0 96.167 -9.5 136.5 -28.5s74.166 -44 101.499 -75s48.333 -66.833 63 -107.5s22 -82.334 22 -125c0 -49.333 -9 -95.166 -27 -137.5
c-18 -42.333 -42.667 -79 -74 -110s-67.833 -55.5 -109.5 -73.5s-86.167 -27 -133.5 -27h-1748l164 360h1281v13zM-507.999 2228c0 -14 2.83301 -27.5 8.5 -40.5s13.5 -24.333 23.5 -34s21.833 -17.334 35.5 -23c13.667 -5.66699 28.167 -8.5 43.5 -8.5
s29.666 2.83301 42.999 8.5s25 13.334 35 23c10 9.66699 17.833 21 23.5 34s8.5 26.5 8.5 40.5c0 15.333 -2.83301 29.833 -8.5 43.5s-13.5 25.5 -23.5 35.5s-21.667 17.833 -35 23.5s-27.666 8.5 -42.999 8.5s-29.833 -2.83301 -43.5 -8.5s-25.5 -13.5 -35.5 -23.5
s-17.833 -21.833 -23.5 -35.5s-8.5 -28.167 -8.5 -43.5z" />
    <glyph glyph-name="saraueethai.alt3" 
d="M-2002 2236h1101v258h328v-258h131v258h327v-618h-2051z" />
    <glyph glyph-name="maiekthai.alt4" 
d="M-545 3092h430v-598h-430v598z" />
    <glyph glyph-name="maithothai.alt4" 
d="M-844 2494v271h-143v270h463v-250c44.667 0 86.667 7 126 21s73.666 32.667 102.999 56s52.333 50 69 80s25 61 25 93h312c0 -69.333 -14.167 -136.5 -42.5 -201.5s-71.166 -122.667 -128.499 -173s-129 -90.666 -215 -121c-86 -30.333 -187 -45.5 -303 -45.5h-266z" />
    <glyph glyph-name="maitrithai.alt4" 
d="M-442 2490c0 19.333 -0.170898 41.833 -0.503906 67.5s-2.66602 49.834 -6.99902 72.5c-4.33301 22.667 -11.5 41.834 -21.5 57.5c-10 15.667 -24.667 23.5 -44 23.5c-15.333 0 -27.5 -4.33301 -36.5 -13s-15.833 -19.834 -20.5 -33.5
c-4.66699 -13.667 -7.83398 -28.834 -9.50098 -45.5c-1.66699 -16.667 -2.83398 -33 -3.50098 -49h-167c0 14 -0.666992 29.167 -2 45.5s-4.5 31.666 -9.5 46c-5 14.333 -12 26.166 -21 35.5c-9 9.33301 -20.833 14 -35.5 14c-18.667 0 -33.167 -7.66699 -43.5 -23
s-18 -34.333 -23 -57s-8 -46.667 -9 -72s-1.5 -48.333 -1.5 -69h-254c-5.33301 82 -0.833008 153.333 13.5 214s35.333 111 63 151s60 69.833 97 89.5s76.167 29.5 117.5 29.5c37.333 0 71.833 -9.16699 103.5 -27.5s59.834 -42.166 84.501 -71.5
c24.667 29.333 53.334 53.166 86.001 71.5c32.667 18.333 69.667 27.5 111 27.5c24.667 0 48.834 -3.83301 72.501 -11.5s45.834 -18.667 66.501 -33s38.834 -31.833 54.501 -52.5s27.5 -44.334 35.5 -71c9.33301 12 18.166 26.5 26.499 43.5s15.833 35.333 22.5 55
s11.834 40.334 15.501 62c3.66699 21.667 5.5 43.167 5.5 64.5h295c0 -36.667 -4.33301 -74.667 -13 -114s-20.834 -78 -36.501 -116s-34.5 -74.5 -56.5 -109.5s-46.167 -66.333 -72.5 -94s-54.666 -51 -84.999 -70s-61.5 -31.5 -93.5 -37.5h-204z" />
    <glyph glyph-name="maichattawathai.alt4" 
d="M-164 2707v-213h-377v213h-241v291h241v209h377v-209h242v-291h-242z" />
    <glyph glyph-name="maiekthai.alt5" 
d="M-1147 3092h430v-598h-430v598z" />
    <glyph glyph-name="maithothai.alt5" 
d="M-1290 2494l-0.000976562 271h-144v270h463v-250c44.667 0 86.167 7 124.5 21s71.333 32.667 99 56s49.334 50 65.001 80s23.5 61 23.5 93h323c0 -69.333 -14.167 -136.5 -42.5 -201.5s-71 -122.667 -128 -173s-128.5 -90.666 -214.5 -121
c-86 -30.333 -187 -45.5 -303 -45.5h-266z" />
    <glyph glyph-name="maitrithai.alt5" 
d="M-869 2494c0 19.333 -0.170898 41.833 -0.503906 67.5s-2.66602 49.834 -6.99902 72.5c-4.33301 22.667 -11.5 41.834 -21.5 57.5c-10 15.667 -24.667 23.5 -44 23.5c-15.333 0 -27.5 -4.33301 -36.5 -13s-15.833 -19.834 -20.5 -33.5
c-4.66699 -13.667 -7.83398 -28.834 -9.50098 -45.5c-1.66699 -16.667 -2.83398 -33 -3.50098 -49h-167c0 14 -0.666992 29.167 -2 45.5s-4.5 31.666 -9.5 46c-5 14.333 -12 26.166 -21 35.5c-9 9.33301 -20.833 14 -35.5 14c-18.667 0 -33.167 -7.66699 -43.5 -23
s-18 -34.333 -23 -57s-8 -46.667 -9 -72s-1.5 -48.333 -1.5 -69h-254c-5.33301 82 -0.833008 153.333 13.5 214s35.333 111 63 151s60 69.833 97 89.5s76.167 29.5 117.5 29.5c37.333 0 71.833 -9.16699 103.5 -27.5s59.834 -42.166 84.501 -71.5
c24.667 29.333 53.334 53.166 86.001 71.5c32.667 18.333 69.667 27.5 111 27.5c24.667 0 48.834 -3.83301 72.501 -11.5s45.834 -18.667 66.501 -33s38.834 -31.833 54.501 -52.5s27.5 -44.334 35.5 -71c9.33301 12 18.166 26.5 26.499 43.5s15.833 35.333 22.5 55
s11.834 40.334 15.501 62c3.66699 21.667 5.5 43.167 5.5 64.5h295c0 -36.667 -4.33301 -74.667 -13 -114s-20.834 -78 -36.501 -116s-34.5 -74.5 -56.5 -109.5s-46.167 -66.333 -72.5 -94s-54.666 -51 -84.999 -70s-61.5 -31.5 -93.5 -37.5h-204z" />
    <glyph glyph-name="maichattawathai.alt5" 
d="M-721 2707v-213h-377v213h-241v291h241v209h377v-209h242v-291h-242z" />
    <glyph glyph-name="sarauthai.alt6" 
d="M-872 -963v463h-189v299h651v-762h-462z" />
    <glyph glyph-name="sarauuthai.alt6" 
d="M-1389 -201l594 0.00292969v-303c0 -43.333 6.16699 -76 18.5 -98s34.833 -33 67.5 -33c33.333 0 56 11 68 33s18 54.667 18 98v303h443v-303c0 -62.667 -9.83301 -121.834 -29.5 -177.501s-50.834 -104.334 -93.501 -146.001s-97.5 -74.667 -164.5 -99
s-147.5 -36.5 -241.5 -36.5c-87.333 0 -163.833 11.667 -229.5 35s-120.667 55 -165 95s-77.666 86.667 -99.999 140s-33.5 109.666 -33.5 168.999h-152v323z" />
    <glyph glyph-name="phinthuthai.alt6" 
d="M-975 -430c0 40.667 8.16699 79.5 24.5 116.5s38.166 69.167 65.499 96.5s59.333 49.166 96 65.499s75.667 24.5 117 24.5c40 0 78 -8.16699 114 -24.5s67.833 -38.166 95.5 -65.499s49.5 -59.5 65.5 -96.5s24 -75.833 24 -116.5c0 -40 -8 -78 -24 -114
s-37.833 -67.833 -65.5 -95.5s-59.5 -49.5 -95.5 -65.5s-74 -24 -114 -24c-41.333 0 -80.333 8 -117 24s-68.667 37.833 -96 65.5s-49.166 59.5 -65.499 95.5s-24.5 74 -24.5 114z" />
    <glyph glyph-name="sarauthai.alt7" 
d="M-823 -963v463h-189v299h652v-762h-463z" />
    <glyph glyph-name="sarauuthai.alt7" 
d="M-1642 -201l593 0.00292969v-303c0 -43.333 6.16699 -76 18.5 -98s34.833 -33 67.5 -33c33.333 0 56 11 68 33s18 54.667 18 98v303h443v-303c0 -62.667 -9.83301 -121.834 -29.5 -177.501s-50.834 -104.334 -93.501 -146.001s-97.5 -74.667 -164.5 -99
s-147.5 -36.5 -241.5 -36.5c-87.333 0 -163.833 11.667 -229.5 35s-120.667 55 -165 95s-77.666 86.667 -99.999 140s-33.5 109.666 -33.5 168.999h-151v323z" />
    <glyph glyph-name="phinthuthai.alt7" 
d="M-975 -430c0 40.667 8.16699 79.5 24.5 116.5s38.166 69.167 65.499 96.5s59.333 49.166 96 65.499s75.667 24.5 117 24.5c40 0 78 -8.16699 114 -24.5s67.833 -38.166 95.5 -65.499s49.5 -59.5 65.5 -96.5s24 -75.833 24 -116.5c0 -40 -8 -78 -24 -114
s-37.833 -67.833 -65.5 -95.5s-59.5 -49.5 -95.5 -65.5s-74 -24 -114 -24c-41.333 0 -80.333 8 -117 24s-68.667 37.833 -96 65.5s-49.166 59.5 -65.499 95.5s-24.5 74 -24.5 114z" />
    <glyph glyph-name="maihanakatthai.alt8" 
d="M-1282 1876v504h410v-144h1286v-360h-1696z" />
    <glyph glyph-name="maiekthai.alt8" 
d="M-1044 3256h430v-598h-430v598z" />
    <glyph glyph-name="maithothai.alt8" 
d="M-1270 2658l-0.000976562 271h-143v270h463v-250c44 0 85.5 7 124.5 21s73.333 32.667 103 56s53 50 70 80s25.5 61 25.5 93h312c0 -70 -14.167 -137.5 -42.5 -202.5s-71.166 -122.5 -128.499 -172.5s-129 -90.167 -215 -120.5s-187 -45.5 -303 -45.5h-266z" />
    <glyph glyph-name="maitrithai.alt8" 
d="M-643 2654c0 19.333 -0.170898 41.833 -0.503906 67.5s-2.66602 49.834 -6.99902 72.5c-4.33301 22.667 -11.5 41.834 -21.5 57.5c-10 15.667 -24.667 23.5 -44 23.5c-15.333 0 -27.5 -4.33301 -36.5 -13s-15.833 -19.834 -20.5 -33.5
c-4.66699 -13.667 -7.83398 -28.834 -9.50098 -45.5c-1.66699 -16.667 -2.83398 -33 -3.50098 -49h-167c0 14 -0.666992 29.167 -2 45.5s-4.5 31.666 -9.5 46c-5 14.333 -12 26.166 -21 35.5c-9 9.33301 -20.833 14 -35.5 14c-18.667 0 -33.167 -7.66699 -43.5 -23
s-18 -34.333 -23 -57s-8 -46.667 -9 -72s-1.5 -48.333 -1.5 -69h-254c-5.33301 82 -0.833008 153.333 13.5 214s35.333 111 63 151s60 69.833 97 89.5s76.167 29.5 117.5 29.5c37.333 0 71.833 -9.16699 103.5 -27.5s59.834 -42.166 84.501 -71.5
c24.667 29.333 53.334 53.166 86.001 71.5c32.667 18.333 69.667 27.5 111 27.5c24.667 0 48.834 -3.83301 72.501 -11.5s45.834 -18.667 66.501 -33s38.834 -31.833 54.501 -52.5s27.5 -44.334 35.5 -71c9.33301 12 18.166 26.5 26.499 43.5s15.833 35.333 22.5 55
s11.834 40.334 15.501 62c3.66699 21.667 5.5 43.167 5.5 64.5h295c0 -36.667 -4.33301 -74.667 -13 -114s-20.834 -78 -36.501 -116s-34.5 -74.5 -56.5 -109.5s-46.167 -66.333 -72.5 -94s-54.666 -51 -84.999 -70s-61.5 -31.5 -93.5 -37.5h-204z" />
    <glyph glyph-name="maichattawathai.alt8" 
d="M-618 2871v-213h-377v213h-242v291h242v209h377v-209h241v-291h-241z" />
    </font>
</defs>
</svg>
